<?xml version="1.0" encoding="UTF-8" standalone="no"?>
<!-- Created with Inkscape (http://www.inkscape.org/) -->

<svg
   xmlns:dc="http://purl.org/dc/elements/1.1/"
   xmlns:cc="http://creativecommons.org/ns#"
   xmlns:rdf="http://www.w3.org/1999/02/22-rdf-syntax-ns#"
   xmlns:svg="http://www.w3.org/2000/svg"
   xmlns="http://www.w3.org/2000/svg"
   xmlns:sodipodi="http://sodipodi.sourceforge.net/DTD/sodipodi-0.dtd"
   xmlns:inkscape="http://www.inkscape.org/namespaces/inkscape"
   width="2.8in"
   height="0.69999999in"
   viewBox="0 0 251.99998 62.999999"
   id="svg2"
   version="1.1"
   inkscape:version="0.91 r13725"
   sodipodi:docname="BB.svg">
  <defs
     id="defs4" />
  <sodipodi:namedview
     id="base"
     pagecolor="#ffffff"
     bordercolor="#666666"
     borderopacity="1.0"
     inkscape:pageopacity="0.0"
     inkscape:pageshadow="2"
     inkscape:zoom="1.979899"
     inkscape:cx="84.78985"
     inkscape:cy="47.873717"
     inkscape:document-units="px"
     inkscape:current-layer="layer1"
     showgrid="true"
     borderlayer="true"
     units="in"
     inkscape:window-width="1213"
     inkscape:window-height="754"
     inkscape:window-x="98"
     inkscape:window-y="6"
     inkscape:window-maximized="0"
     showguides="false">
    <inkscape:grid
       type="xygrid"
       id="grid4382" />
  </sodipodi:namedview>
  <metadata
     id="metadata7">
    <rdf:RDF>
      <cc:Work
         rdf:about="">
        <dc:format>image/svg+xml</dc:format>
        <dc:type
           rdf:resource="http://purl.org/dc/dcmitype/StillImage" />
        <dc:title></dc:title>
      </cc:Work>
    </rdf:RDF>
  </metadata>
  <g
     inkscape:label="Layer 1"
     inkscape:groupmode="layer"
     id="layer1"
     transform="translate(0,-989.3622)">
    <rect
       style="opacity:1;fill:#3e033d;fill-opacity:1;stroke:none;stroke-width:10;stroke-miterlimit:4;stroke-dasharray:none;stroke-opacity:1"
       id="rect4602"
       width="235.35895"
       height="1.46319"
       x="10.352252"
       y="1036.0402"
       ry="7.7560777e-05" />
    <g
       transform="translate(3.7331403,1042.7908)"
       style="font-style:normal;font-weight:normal;font-size:40px;line-height:125%;font-family:sans-serif;letter-spacing:0px;word-spacing:0px;fill:#3e033d;fill-opacity:1;stroke:none;stroke-width:1px;stroke-linecap:butt;stroke-linejoin:miter;stroke-opacity:1"
       id="flowRoot4170">
      <path
         d="m 19.765,-38.218607 q -0.595,0 -1.645,0.14 -0.56,5.46 -0.77,7.035 0.77,0.07 1.225,0.07 4.9,0 4.9,-4.2 0,-3.045 -3.71,-3.045 z m -1.19,18.795 q 1.785,0 3.045,-1.435 1.26,-1.47 1.26,-3.85 0,-1.925 -1.05,-2.94 -1.015,-1.015 -2.555,-1.015 -1.575,0 -2.275,0.175 -0.455,3.29 -1.4,7.805 0.42,0.49 1.295,0.875 0.875,0.385 1.68,0.385 z m -6.895,0.105 q 0.98,-3.885 1.96,-11.585 0.84,-6.475 0.84,-9.555 2.59,-0.455 5.46,-0.455 2.135,0 3.745,0.42 1.61,0.42 2.695,1.61 1.12,1.155 1.12,2.975 0,4.305 -3.745,5.88 1.75,0.84 2.45,1.925 0.7,1.05 0.7,2.8 0,3.745 -2.38,6.02 -2.38,2.275 -5.74,2.275 -4.9,0 -7.105,-2.31 z"
         style="font-style:italic;font-variant:normal;font-weight:bold;font-stretch:normal;font-size:35px;font-family:Overlock;-inkscape-font-specification:'Overlock Bold Italic';fill:#3e033d;fill-opacity:1"
         id="path4846"
         inkscape:connector-curvature="0" />
      <path
         d="m 33.673672,-23.623607 q 0.035,2.17 0.84,3.255 0.84,1.05 2.03,1.05 0.98,0 1.925,-0.665 0.945,-0.665 1.54,-1.785 1.68,0.665 1.68,2.065 0,1.085 -1.645,1.89 -1.645,0.805 -3.78,0.805 -1.33,0 -2.52,-0.35 -1.155,-0.385 -2.205,-1.12 -1.015,-0.77 -1.61,-2.1 -0.595,-1.365 -0.595,-3.185 0,-2.555 0.84,-4.62 0.84,-2.1 2.17,-3.325 1.365,-1.26 2.905,-1.925 1.575,-0.665 3.115,-0.665 2.345,0 3.535,1.225 1.19,1.19 1.19,3.01 0,1.75 -1.015,3.395 -1.015,1.61 -2.73,2.31 -1.89,0.805 -4.515,0.805 -0.525,0 -1.155,-0.07 z m 5.075,-6.265 q 0,-0.91 -0.455,-1.505 -0.42,-0.63 -1.12,-0.63 -1.295,0 -2.275,1.855 -0.98,1.82 -1.19,4.55 0.665,0 1.12,-0.035 0.49,-0.07 1.295,-0.315 0.805,-0.245 1.295,-0.665 0.525,-0.42 0.91,-1.26 0.42,-0.84 0.42,-1.995 z"
         style="font-style:italic;font-variant:normal;font-weight:bold;font-stretch:normal;font-size:35px;font-family:Overlock;-inkscape-font-specification:'Overlock Bold Italic';fill:#3e033d;fill-opacity:1"
         id="path4848"
         inkscape:connector-curvature="0" />
      <path
         d="m 56.257969,-32.583607 q 0.84,-5.705 0.84,-6.685 0,-1.33 -0.945,-1.75 0.07,-0.91 0.805,-1.61 0.77,-0.735 1.925,-0.735 1.12,0 1.645,0.665 0.525,0.63 0.525,1.575 0,1.365 -1.365,10.36 -1.365,8.96 -1.365,9.66 0,1.365 1.295,1.925 -0.455,2.17 -2.485,2.17 -1.12,0 -1.785,-0.875 -0.665,-0.875 -0.665,-1.96 0,-0.455 0.035,-0.805 -2.45,3.64 -5.32,3.64 -1.995,0 -3.255,-1.61 -1.26,-1.645 -1.26,-4.69 0,-4.34 2.31,-7.63 2.345,-3.325 5.39,-3.325 2.1,0 3.675,1.68 z m -1.19,8.05 0.84,-5.775 q -0.98,-1.05 -1.505,-1.365 -0.49,-0.35 -1.085,-0.35 -1.785,0 -2.975,2.24 -1.155,2.205 -1.155,5.74 0,1.925 0.56,3.15 0.56,1.225 1.505,1.225 0.84,0 1.925,-1.365 1.12,-1.4 1.89,-3.5 z"
         style="font-style:italic;font-variant:normal;font-weight:bold;font-stretch:normal;font-size:35px;font-family:Overlock;-inkscape-font-specification:'Overlock Bold Italic';fill:#3e033d;fill-opacity:1"
         id="path4850"
         inkscape:connector-curvature="0" />
      <path
         d="m 84.557109,-30.938607 q 0.945,0 2.8,0.525 1.89,0.525 2.52,0.525 1.435,0 1.435,-1.54 0,-0.805 -0.455,-1.505 0.49,-1.05 1.995,-1.05 0.7,0 1.015,0.42 0.35,0.42 0.35,0.98 0,1.645 -1.33,3.5 -1.33,1.82 -3.115,1.82 -0.595,0 -1.4,-0.175 -0.28,2.8 -1.33,4.9 -1.015,2.065 -2.59,3.255 -1.54,1.19 -3.36,1.75 -1.785,0.56 -3.85,0.56 -3.605,0 -5.775,-1.96 -2.135,-1.96 -2.135,-4.69 0,-2.065 1.4,-3.92 1.435,-1.855 4.165,-2.94 -3.15,-1.4 -3.15,-4.095 0,-2.59 2.205,-4.48 2.205,-1.925 5.425,-1.925 2.1,0 3.605,0.945 1.505,0.91 1.505,2.03 0,0.84 -0.735,1.4 -0.735,0.525 -2.03,0.665 -0.77,-2.415 -2.8,-2.415 -1.435,0 -2.38,0.945 -0.945,0.91 -0.945,2.415 0,0.98 0.84,1.855 0.875,0.875 2.275,0.875 0.42,0 0.665,-0.035 0.07,0.63 0.07,0.805 0,0.315 -0.035,0.56 -0.035,0.21 -0.14,0.385 -0.105,0.175 -0.175,0.28 -0.07,0.07 -0.28,0.175 -0.175,0.07 -0.245,0.105 -0.07,0.035 -0.315,0.105 -0.245,0.07 -0.315,0.07 -2.065,0.525 -3.325,2.1 -1.26,1.575 -1.26,3.395 0,1.925 1.26,3.325 1.295,1.4 3.535,1.4 3.08,0 5.04,-2.03 1.96,-2.03 1.96,-6.615 -0.49,-0.105 -0.91,-0.105 -0.63,0 -0.98,0.455 -0.35,0.42 -0.35,1.085 0,0.945 0.49,1.505 -0.525,1.085 -1.925,1.085 -0.735,0 -1.085,-0.42 -0.315,-0.42 -0.315,-0.98 0,-1.715 1.295,-3.5 1.33,-1.82 3.185,-1.82 z"
         style="font-style:italic;font-variant:normal;font-weight:bold;font-stretch:normal;font-size:35px;font-family:Overlock;-inkscape-font-specification:'Overlock Bold Italic';fill:#3e033d;fill-opacity:1"
         id="path4852"
         inkscape:connector-curvature="0" />
      <path
         d="m 109.52086,-38.218607 q -0.595,0 -1.645,0.14 -0.56,5.46 -0.77,7.035 0.77,0.07 1.225,0.07 4.9,0 4.9,-4.2 0,-3.045 -3.71,-3.045 z m -1.19,18.795 q 1.785,0 3.045,-1.435 1.26,-1.47 1.26,-3.85 0,-1.925 -1.05,-2.94 -1.015,-1.015 -2.555,-1.015 -1.575,0 -2.275,0.175 -0.455,3.29 -1.4,7.805 0.42,0.49 1.295,0.875 0.875,0.385 1.68,0.385 z m -6.895,0.105 q 0.98,-3.885 1.96,-11.585 0.84,-6.475 0.84,-9.555 2.59,-0.455 5.46,-0.455 2.135,0 3.745,0.42 1.61,0.42 2.695,1.61 1.12,1.155 1.12,2.975 0,4.305 -3.745,5.88 1.75,0.84 2.45,1.925 0.7,1.05 0.7,2.8 0,3.745 -2.38,6.02 -2.38,2.275 -5.74,2.275 -4.9,0 -7.105,-2.31 z"
         style="font-style:italic;font-variant:normal;font-weight:bold;font-stretch:normal;font-size:35px;font-family:Overlock;-inkscape-font-specification:'Overlock Bold Italic';fill:#3e033d;fill-opacity:1"
         id="path4854"
         inkscape:connector-curvature="0" />
      <path
         d="m 128.67953,-30.868607 q -2.065,0 -3.99,2.975 -0.91,6.16 -0.91,8.47 0,1.015 0.105,1.89 -1.365,0.315 -2.31,0.315 -1.925,0 -1.925,-1.225 0,-0.455 0.77,-5.53 0.805,-5.11 0.805,-6.09 0,-1.47 -0.98,-1.89 0.14,-1.085 0.945,-1.715 0.805,-0.63 1.785,-0.63 0.91,0 1.54,0.56 0.63,0.56 0.63,1.61 0,0.595 -0.105,1.225 0.84,-1.365 2.065,-2.38 1.26,-1.015 2.555,-1.015 1.575,0 1.575,1.68 0,1.365 -0.98,2.415 -0.665,-0.665 -1.575,-0.665 z"
         style="font-style:italic;font-variant:normal;font-weight:bold;font-stretch:normal;font-size:35px;font-family:Overlock;-inkscape-font-specification:'Overlock Bold Italic';fill:#3e033d;fill-opacity:1"
         id="path4856"
         inkscape:connector-curvature="0" />
      <path
         d="m 135.11898,-23.623607 q 0.035,2.17 0.84,3.255 0.84,1.05 2.03,1.05 0.98,0 1.925,-0.665 0.945,-0.665 1.54,-1.785 1.68,0.665 1.68,2.065 0,1.085 -1.645,1.89 -1.645,0.805 -3.78,0.805 -1.33,0 -2.52,-0.35 -1.155,-0.385 -2.205,-1.12 -1.015,-0.77 -1.61,-2.1 -0.595,-1.365 -0.595,-3.185 0,-2.555 0.84,-4.62 0.84,-2.1 2.17,-3.325 1.365,-1.26 2.905,-1.925 1.575,-0.665 3.115,-0.665 2.345,0 3.535,1.225 1.19,1.19 1.19,3.01 0,1.75 -1.015,3.395 -1.015,1.61 -2.73,2.31 -1.89,0.805 -4.515,0.805 -0.525,0 -1.155,-0.07 z m 5.075,-6.265 q 0,-0.91 -0.455,-1.505 -0.42,-0.63 -1.12,-0.63 -1.295,0 -2.275,1.855 -0.98,1.82 -1.19,4.55 0.665,0 1.12,-0.035 0.49,-0.07 1.295,-0.315 0.805,-0.245 1.295,-0.665 0.525,-0.42 0.91,-1.26 0.42,-0.84 0.42,-1.995 z"
         style="font-style:italic;font-variant:normal;font-weight:bold;font-stretch:normal;font-size:35px;font-family:Overlock;-inkscape-font-specification:'Overlock Bold Italic';fill:#3e033d;fill-opacity:1"
         id="path4858"
         inkscape:connector-curvature="0" />
      <path
         d="m 156.26828,-20.648607 q -2.415,3.64 -5.355,3.64 -1.995,0 -3.255,-1.61 -1.225,-1.61 -1.225,-4.69 0,-4.515 2.415,-7.735 2.45,-3.255 5.985,-3.255 3.85,0 6.825,1.995 -1.715,7.84 -1.715,10.885 0,1.645 1.33,2.24 -0.14,0.805 -0.805,1.505 -0.63,0.665 -1.75,0.665 -1.155,0 -1.82,-0.84 -0.665,-0.84 -0.665,-2.135 0,-0.455 0.035,-0.665 z m 0.385,-3.92 0.945,-5.95 q -1.365,-1.47 -2.8,-1.47 -1.75,0 -2.905,2.24 -1.155,2.205 -1.155,5.705 0,1.89 0.56,3.15 0.595,1.225 1.54,1.225 0.84,0 1.925,-1.365 1.085,-1.4 1.89,-3.535 z"
         style="font-style:italic;font-variant:normal;font-weight:bold;font-stretch:normal;font-size:35px;font-family:Overlock;-inkscape-font-specification:'Overlock Bold Italic';fill:#3e033d;fill-opacity:1"
         id="path4860"
         inkscape:connector-curvature="0" />
      <path
         d="m 175.30336,-34.298607 q 1.925,0 2.87,1.05 0.98,1.015 0.98,2.66 0,2.24 -1.61,4.305 -1.575,2.065 -4.025,2.38 1.085,2.205 1.89,3.15 0.77,0.91 2.03,0.91 0.42,0 0.945,-0.105 0.14,0.525 0.14,1.12 0,1.82 -2.555,1.82 -1.89,0 -3.01,-1.575 -1.12,-1.575 -2.485,-5.39 -0.56,-0.35 -0.56,-0.875 0,-0.56 0.455,-1.26 0.735,0.28 1.33,0.28 1.365,0 2.24,-1.05 0.91,-1.085 0.91,-2.555 0,-0.945 -0.385,-1.575 -0.385,-0.63 -1.155,-0.63 -0.84,0 -2.065,1.435 -1.225,1.435 -1.96,3.5 -0.735,5.005 -0.735,7.28 0,1.015 0.105,1.89 -1.365,0.315 -2.31,0.315 -1.925,0 -1.925,-1.225 0,-1.225 1.47,-10.36 1.505,-9.17 1.505,-10.43 0,-1.295 -0.945,-1.785 0.07,-0.945 0.84,-1.645 0.77,-0.7 1.89,-0.7 1.12,0 1.645,0.665 0.525,0.63 0.525,1.575 0,0.84 -0.49,4.445 -0.49,3.605 -0.875,5.74 2.24,-3.36 5.32,-3.36 z"
         style="font-style:italic;font-variant:normal;font-weight:bold;font-stretch:normal;font-size:35px;font-family:Overlock;-inkscape-font-specification:'Overlock Bold Italic';fill:#3e033d;fill-opacity:1"
         id="path4862"
         inkscape:connector-curvature="0" />
      <path
         d="m 192.54305,-37.553607 q -0.63,-2.275 -2.345,-2.275 -1.26,0 -1.995,1.75 -0.7,1.715 -0.875,4.2 2.555,0 4.76,-0.175 0.105,0.455 0.105,0.875 0,1.61 -1.68,1.68 -0.805,0.07 -3.395,0.07 -0.84,8.68 -1.33,12.075 -0.175,1.26 -0.385,2.17 -0.175,0.91 -0.595,2.03 -0.385,1.155 -1.085,1.75 -0.7,0.63 -1.645,0.63 -1.61,0 -2.345,-2.205 2.66,-0.77 3.605,-16.415 -1.05,0.035 -2.17,0.175 -0.07,-0.63 -0.07,-0.805 0,-1.89 2.03,-1.89 l 0.455,0 q 0.805,-8.435 7.525,-8.435 1.715,0 3.01,0.595 1.295,0.56 1.295,1.855 0,0.84 -0.665,1.575 -0.63,0.735 -2.205,0.77 z"
         style="font-style:italic;font-variant:normal;font-weight:bold;font-stretch:normal;font-size:35px;font-family:Overlock;-inkscape-font-specification:'Overlock Bold Italic';fill:#3e033d;fill-opacity:1"
         id="path4864"
         inkscape:connector-curvature="0" />
      <path
         d="m 201.79562,-20.648607 q -2.415,3.64 -5.355,3.64 -1.995,0 -3.255,-1.61 -1.225,-1.61 -1.225,-4.69 0,-4.515 2.41501,-7.735 2.44999,-3.255 5.98499,-3.255 3.85,0 6.82501,1.995 -1.71501,7.84 -1.71501,10.885 0,1.645 1.33,2.24 -0.14,0.805 -0.805,1.505 -0.63,0.665 -1.75,0.665 -1.155,0 -1.82,-0.84 -0.665,-0.84 -0.665,-2.135 0,-0.455 0.035,-0.665 z m 0.385,-3.92 0.94501,-5.95 q -1.36501,-1.47 -2.80001,-1.47 -1.75,0 -2.905,2.24 -1.155,2.205 -1.155,5.705 0,1.89 0.56,3.15 0.595,1.225 1.54,1.225 0.84,0 1.925,-1.365 1.08501,-1.4 1.89,-3.535 z"
         style="font-style:italic;font-variant:normal;font-weight:bold;font-stretch:normal;font-size:35px;font-family:Overlock;-inkscape-font-specification:'Overlock Bold Italic';fill:#3e033d;fill-opacity:1"
         id="path4866"
         inkscape:connector-curvature="0" />
      <path
         d="m 218.7657,-29.433607 q -0.35,-1.225 -1.015,-1.82 -0.63,-0.595 -1.4,-0.595 -0.945,0 -1.75,0.77 -0.805,0.77 -0.805,1.82 0,0.945 0.7,1.47 0.735,0.525 1.75,0.805 1.015,0.28 2.03,0.665 1.015,0.385 1.715,1.365 0.735,0.98 0.735,2.555 0,2.66 -1.925,4.025 -1.89,1.365 -4.935,1.365 -2.065,0 -3.535,-0.77 -1.435,-0.77 -1.435,-2.065 0,-1.785 2.1,-2.205 0.315,1.19 1.19,1.855 0.875,0.665 1.925,0.665 1.47,0 2.345,-0.63 0.91,-0.665 0.91,-1.54 0,-0.91 -0.735,-1.435 -0.7,-0.525 -1.715,-0.84 -1.015,-0.315 -2.065,-0.735 -1.015,-0.42 -1.75,-1.4 -0.7,-0.98 -0.7,-2.52 0,-2.835 1.925,-4.27 1.925,-1.435 4.69,-1.435 1.54,0 2.94,0.77 1.4,0.735 1.4,2.065 0,1.785 -2.59,2.065 z"
         style="font-style:italic;font-variant:normal;font-weight:bold;font-stretch:normal;font-size:35px;font-family:Overlock;-inkscape-font-specification:'Overlock Bold Italic';fill:#3e033d;fill-opacity:1"
         id="path4868"
         inkscape:connector-curvature="0" />
      <path
         d="m 224.8125,-33.913607 1.19,0 q 0.035,-0.21 0.175,-1.61 0.175,-1.4 0.21,-1.89 0.735,-0.245 1.96,-0.245 1.925,0 1.925,1.19 0,0.175 -0.42,2.59 2.975,0 5.25,-0.175 0.105,0.42 0.105,0.84 0,1.645 -1.61,1.75 -1.085,0.035 -4.13,0.035 -1.26,8.12 -1.26,9.415 0,1.54 0.525,2.065 0.525,0.525 1.645,0.525 1.12,0 2.1,-1.05 0.91,0.63 0.91,1.61 0,1.855 -4.095,1.855 -2.03,0 -3.395,-1.085 -1.365,-1.085 -1.365,-3.64 0,-0.77 0.175,-2.31 0.21,-1.54 0.56,-3.885 0.35,-2.345 0.49,-3.5 -0.595,0 -2.905,0.21 -0.07,-0.49 -0.07,-0.735 0,-1.96 2.03,-1.96 z"
         style="font-style:italic;font-variant:normal;font-weight:bold;font-stretch:normal;font-size:35px;font-family:Overlock;-inkscape-font-specification:'Overlock Bold Italic';fill:#3e033d;fill-opacity:1"
         id="path4870"
         inkscape:connector-curvature="0" />
    </g>
  </g>
</svg>
