<?xml version="1.0" encoding="UTF-8" standalone="no"?>
<!-- Created with Inkscape (http://www.inkscape.org/) -->

<svg
   xmlns:dc="http://purl.org/dc/elements/1.1/"
   xmlns:cc="http://creativecommons.org/ns#"
   xmlns:rdf="http://www.w3.org/1999/02/22-rdf-syntax-ns#"
   xmlns:svg="http://www.w3.org/2000/svg"
   xmlns="http://www.w3.org/2000/svg"
   xmlns:sodipodi="http://sodipodi.sourceforge.net/DTD/sodipodi-0.dtd"
   xmlns:inkscape="http://www.inkscape.org/namespaces/inkscape"
   width="2in"
   height="0.69999999in"
   viewBox="0 0 179.99999 62.999999"
   id="svg2"
   version="1.1"
   inkscape:version="0.91 r13725"
   sodipodi:docname="day_os.svg">
  <defs
     id="defs4" />
  <sodipodi:namedview
     id="base"
     pagecolor="#ffffff"
     bordercolor="#666666"
     borderopacity="1.0"
     inkscape:pageopacity="0.0"
     inkscape:pageshadow="2"
     inkscape:zoom="2.8"
     inkscape:cx="122.28985"
     inkscape:cy="47.873717"
     inkscape:document-units="px"
     inkscape:current-layer="layer1"
     showgrid="true"
     borderlayer="true"
     units="in"
     inkscape:window-width="1213"
     inkscape:window-height="754"
     inkscape:window-x="98"
     inkscape:window-y="6"
     inkscape:window-maximized="0"
     showguides="false">
    <inkscape:grid
       type="xygrid"
       id="grid4382" />
  </sodipodi:namedview>
  <metadata
     id="metadata7">
    <rdf:RDF>
      <cc:Work
         rdf:about="">
        <dc:format>image/svg+xml</dc:format>
        <dc:type
           rdf:resource="http://purl.org/dc/dcmitype/StillImage" />
        <dc:title></dc:title>
      </cc:Work>
    </rdf:RDF>
  </metadata>
  <g
     inkscape:label="Layer 1"
     inkscape:groupmode="layer"
     id="layer1"
     transform="translate(0,-989.3622)">
    <rect
       style="opacity:1;fill:#3e033d;fill-opacity:1;stroke:none;stroke-width:10;stroke-miterlimit:4;stroke-dasharray:none;stroke-opacity:1"
       id="rect4602"
       width="169.64465"
       height="1.46319"
       x="5.4048185"
       y="1036.0402"
       ry="7.7560777e-05" />
    <g
       transform="matrix(0.77232927,0,0,0.77232927,16.314006,1047.9944)"
       style="font-style:normal;font-weight:normal;font-size:40px;line-height:125%;font-family:sans-serif;letter-spacing:0px;word-spacing:0px;fill:#3e033d;fill-opacity:1;stroke:none;stroke-width:1px;stroke-linecap:butt;stroke-linejoin:miter;stroke-opacity:1"
       id="flowRoot6253">
      <path
         d="m -5.64,-48.249836 q 0,-2.92 -1.08,-5.16 1.8,-0.96 3.16,-0.96 2.56,0 2.56,3.8 0,2.04 -0.92,7.52 -0.88,5.44 -0.88,8 0,3.88 1.24,5.48 2.4,-0.84 4.56,-4.24 2.2,-3.44 3.4,-7.64 1.24,-4.24 1.24,-7.84 0,-2.48 -0.68,-4.24 1.68,-0.84 3.04,-0.84 2.64,0 2.64,3.2 0,4.88 -2.56,11.48 -0.12,1.56 -0.12,3.08 0,5.24 1.48,7.04 2.4,-0.84 4.56,-4.24 2.2,-3.44 3.4,-7.64 1.24,-4.24 1.24,-7.84 0,-2.48 -0.68,-4.24 1.68,-0.84 3.04,-0.84 2.64,0 2.64,3.2 0,2.2 -0.68,5.28 -0.64,3.04 -1.96,6.36 -1.28,3.28 -3,6.08 -1.68,2.8 -4.08,4.64 -2.36,1.8 -4.84,1.8 -1.32,0 -2.56,-0.44 -1.76,-1.84 -2.28,-4.92 -3.8,5.36 -8.16,5.36 -1.32,0 -2.56,-0.44 -2.48,-2.64 -2.48,-7.6 0,-2.56 0.64,-6.24 0.68,-3.68 0.68,-6.96 z"
         style="font-style:italic;font-variant:normal;font-weight:bold;font-stretch:normal;font-family:Overlock;-inkscape-font-specification:'Overlock Bold Italic';fill:#3e033d;fill-opacity:1"
         id="path6318"
         inkscape:connector-curvature="0" />
      <path
         d="m 31.274375,-34.569836 q 0.04,2.48 0.96,3.72 0.96,1.2 2.32,1.2 1.12,0 2.2,-0.76 1.08,-0.76 1.76,-2.04 1.92,0.76 1.92,2.36 0,1.24 -1.88,2.16 -1.88,0.92 -4.32,0.92 -1.52,0 -2.88,-0.4 -1.32,-0.44 -2.52,-1.28 -1.16,-0.88 -1.84,-2.4 -0.68,-1.56 -0.68,-3.64 0,-2.92 0.96,-5.28 0.96,-2.4 2.48,-3.8 1.56,-1.44 3.32,-2.2 1.8,-0.76 3.56,-0.76 2.68,0 4.04,1.4 1.36,1.36 1.36,3.44 0,2 -1.16,3.88 -1.16,1.84 -3.12,2.64 -2.16,0.92 -5.16,0.92 -0.6,0 -1.32,-0.08 z m 5.8,-7.16 q 0,-1.04 -0.52,-1.72 -0.48,-0.72 -1.28,-0.72 -1.48,0 -2.6,2.12 -1.12,2.08 -1.36,5.2 0.76,0 1.28,-0.04 0.56,-0.08 1.48,-0.36 0.92,-0.28 1.48,-0.76 0.6,-0.48 1.04,-1.44 0.48,-0.96 0.48,-2.28 z"
         style="font-style:italic;font-variant:normal;font-weight:bold;font-stretch:normal;font-family:Overlock;-inkscape-font-specification:'Overlock Bold Italic';fill:#3e033d;fill-opacity:1"
         id="path6320"
         inkscape:connector-curvature="0" />
      <path
         d="m 57.085,-44.809836 q 0.96,-6.52 0.96,-7.64 0,-1.52 -1.08,-2 0.08,-1.04 0.92,-1.84 0.88,-0.84 2.2,-0.84 1.28,0 1.88,0.76 0.6,0.72 0.6,1.8 0,1.56 -1.56,11.84 -1.56,10.24 -1.56,11.04 0,1.56 1.48,2.2 -0.52,2.48 -2.84,2.48 -1.28,0 -2.04,-1 -0.76,-1 -0.76,-2.24 0,-0.52 0.04,-0.92 -2.8,4.16 -6.08,4.16 -2.28,0 -3.72,-1.84 -1.44,-1.88 -1.44,-5.36 0,-4.96 2.64,-8.72 2.68,-3.8 6.16,-3.8 2.4,0 4.2,1.92 z m -1.36,9.2 0.96,-6.6 q -1.12,-1.2 -1.72,-1.56 -0.56,-0.4 -1.24,-0.4 -2.04,0 -3.4,2.56 -1.32,2.52 -1.32,6.56 0,2.2 0.64,3.6 0.64,1.4 1.72,1.4 0.96,0 2.2,-1.56 1.28,-1.6 2.16,-4 z"
         style="font-style:italic;font-variant:normal;font-weight:bold;font-stretch:normal;font-family:Overlock;-inkscape-font-specification:'Overlock Bold Italic';fill:#3e033d;fill-opacity:1"
         id="path6322"
         inkscape:connector-curvature="0" />
      <path
         d="m 76.92875,-44.809836 q 0.96,-6.52 0.96,-7.64 0,-1.52 -1.08,-2 0.08,-1.04 0.92,-1.84 0.88,-0.84 2.2,-0.84 1.28,0 1.88,0.76 0.6,0.72 0.6,1.8 0,1.56 -1.56,11.84 -1.56,10.24 -1.56,11.04 0,1.56 1.48,2.2 -0.52,2.48 -2.84,2.48 -1.28,0 -2.04,-1 -0.76,-1 -0.76,-2.24 0,-0.52 0.04,-0.92 -2.8,4.16 -6.08,4.16 -2.28,0 -3.72,-1.84 -1.44,-1.88 -1.44,-5.36 0,-4.96 2.64,-8.72 2.68,-3.8 6.16,-3.8 2.4,0 4.2,1.92 z m -1.36,9.2 0.96,-6.6 q -1.12,-1.2 -1.72,-1.56 -0.56,-0.4 -1.24,-0.4 -2.04,0 -3.4,2.56 -1.32,2.52 -1.32,6.56 0,2.2 0.64,3.6 0.64,1.4 1.72,1.4 0.96,0 2.2,-1.56 1.28,-1.6 2.16,-4 z"
         style="font-style:italic;font-variant:normal;font-weight:bold;font-stretch:normal;font-family:Overlock;-inkscape-font-specification:'Overlock Bold Italic';fill:#3e033d;fill-opacity:1"
         id="path6324"
         inkscape:connector-curvature="0" />
      <path
         d="m 88.8125,-48.649836 q -1,0 -1.64,-0.64 -0.6,-0.68 -0.6,-1.8 0,-1.28 0.88,-2.2 0.88,-0.92 2.04,-0.92 0.92,0 1.56,0.76 0.68,0.72 0.68,1.8 0,1.24 -0.96,2.12 -0.92,0.88 -1.96,0.88 z m -2.52,6.6 q 0,-1.52 -1.08,-2.04 0.12,-1.2 1.04,-1.92 0.92,-0.76 2.08,-0.76 1.04,0 1.76,0.64 0.72,0.64 0.72,1.88 0,1.52 -1.12,6.8 -1.08,5.24 -1.08,5.72 0,1.6 1.48,2.24 -0.16,1.04 -0.92,1.76 -0.72,0.72 -1.88,0.72 -1.48,0 -2.2,-1.08 -0.68,-1.08 -0.68,-2.56 0,-1.88 0.92,-5.96 0.96,-4.08 0.96,-5.44 z"
         style="font-style:italic;font-variant:normal;font-weight:bold;font-stretch:normal;font-family:Overlock;-inkscape-font-specification:'Overlock Bold Italic';fill:#3e033d;fill-opacity:1"
         id="path6326"
         inkscape:connector-curvature="0" />
      <path
         d="m 99.389375,-37.769836 q -0.8,6 -0.8,8 0,1.16 0.12,2.16 -1.56,0.36 -2.64,0.36 -2.2,0 -2.2,-1.4 0,-0.52 0.88,-6.32 0.92,-5.84 0.92,-6.96 0,-1.68 -1.12,-2.16 0.16,-1.24 1.08,-1.96 0.92,-0.72 2.04,-0.72 1.04,0 1.76,0.64 0.720005,0.64 0.720005,1.84 0,0.72 -0.12,1.44 1.15999,-1.88 2.8,-2.88 1.68,-1.04 3.2,-1.04 1.95999,0 3,1.4 1.08,1.4 1.08,3.64 0,0.72 -0.72,4.8 -0.68001,4.08 -0.76,5.2 0,1.56 1.48,2.24 -0.16,1.12 -1.04,1.8 -0.84,0.68 -1.88001,0.68 -1.2,0 -2.03999,-0.92 -0.84,-0.92 -0.84,-2.68 0,-1.68 0.72,-5.68 0.72,-4.04 0.72,-4.8 0,-2.6 -1.60001,-2.6 -1.19999,0 -2.52,1.68 -1.28,1.64 -2.239995,4.24 z"
         style="font-style:italic;font-variant:normal;font-weight:bold;font-stretch:normal;font-family:Overlock;-inkscape-font-specification:'Overlock Bold Italic';fill:#3e033d;fill-opacity:1"
         id="path6328"
         inkscape:connector-curvature="0" />
      <path
         d="m 118.94563,-31.409836 q 0.72,1.36 1.68,1.36 0.95999,0 2.15999,-1.52 1.24001,-1.52 2.24001,-4.08 0.55999,-3.68 1.08,-6.8 -1.48,-1.68 -3.24001,-1.68 -2.11999,0 -3.36,2.68 -1.23999,2.64 -1.23999,6.4 0,2.28 0.68,3.64 z m 4,-15.4 q 4.47999,0 7.71999,2.28 -0.96,3.92 -1.96,10.64 -0.12,0.88 -0.32,2.6 -0.19999,1.72 -0.36,2.84 -0.11999,1.08 -0.47999,2.68 -0.32,1.64 -0.76001,2.68 -0.44,1.08 -1.23999,2.28 -0.76001,1.2 -1.8,1.88 -1,0.72 -2.52,1.16 -1.48,0.48 -3.36001,0.48 -2.36,0 -3.91999,-0.84 -1.56,-0.84 -1.56,-2 0,-1.6 2.56,-2.6 0.88,2.8 3.24,2.8 5.36,0 5.92,-10.68 -1.16,1.88 -2.72,2.76 -1.52001,0.84 -2.88001,0.84 -2.55999,0 -3.87999,-2.08 -1.28001,-2.12 -1.28001,-5.12 0,-5.08 2.76001,-8.84 2.75999,-3.76 6.84,-3.76 z"
         style="font-style:italic;font-variant:normal;font-weight:bold;font-stretch:normal;font-family:Overlock;-inkscape-font-specification:'Overlock Bold Italic';fill:#3e033d;fill-opacity:1"
         id="path6330"
         inkscape:connector-curvature="0" />
      <path
         d="m 141.13875,-29.529836 q 1.16,-5.32 2.12,-12.24 0.96,-6.92 1.08,-12.08 2.28,-0.48 5.96,-0.48 12.12,0 12.12,10.76 0,4.32 -1.56,8.04 -1.52,3.68 -4.72,6.12 -3.16,2.4 -7.36,2.4 -5.12,0 -7.64,-2.52 z m 7.44,-21.56 q -0.84,10.12 -2.8,19.56 1.44,1.44 3.88,1.44 2.2,0 3.84,-1.2 1.64,-1.24 2.52,-3.2 0.88,-1.96 1.28,-4 0.44,-2.04 0.44,-4.08 0,-4.32 -1.88,-6.48 -1.84,-2.2 -5.28,-2.2 -0.72,0 -2,0.16 z"
         style="font-style:italic;font-variant:normal;font-weight:bold;font-stretch:normal;font-family:Overlock;-inkscape-font-specification:'Overlock Bold Italic';fill:#3e033d;fill-opacity:1"
         id="path6332"
         inkscape:connector-curvature="0" />
      <path
         d="m 175.445,-31.169836 q -2.76,4.16 -6.12,4.16 -2.28,0 -3.72,-1.84 -1.4,-1.84 -1.4,-5.36 0,-5.16 2.76,-8.84 2.8,-3.72 6.84,-3.72 4.4,0 7.8,2.28 -1.96,8.96 -1.96,12.44 0,1.88 1.52,2.56 -0.16,0.92 -0.92,1.72 -0.72,0.76 -2,0.76 -1.32,0 -2.08,-0.96 -0.76,-0.96 -0.76,-2.44 0,-0.52 0.04,-0.76 z m 0.44,-4.48 1.08,-6.8 q -1.56,-1.68 -3.2,-1.68 -2,0 -3.32,2.56 -1.32,2.52 -1.32,6.52 0,2.16 0.64,3.6 0.68,1.4 1.76,1.4 0.96,0 2.2,-1.56 1.24,-1.6 2.16,-4.04 z"
         style="font-style:italic;font-variant:normal;font-weight:bold;font-stretch:normal;font-family:Overlock;-inkscape-font-specification:'Overlock Bold Italic';fill:#3e033d;fill-opacity:1"
         id="path6334"
         inkscape:connector-curvature="0" />
      <path
         d="m 189.35937,-44.809836 q 1.84,5.16 2.64,12.56 3.52,-6.72 3.52,-11.28 0,-1.12 -0.48,-2.48 1.4,-0.76 2.48,-0.76 2.56,0 2.56,2.68 0,3.12 -2.08,7.96 -2.04,4.8 -4.96,9 -2.16,3.08 -3.8,4.84 -1.6,1.76 -3.84,2.92 -2.24,1.16 -4.92,1.16 -1.96,0 -3.32,-0.64 -1.4,-0.64 -1.4,-1.72 0,-1.32 1.88,-2.44 1.16,2.16 3.32,2.16 3.76001,0 7.8,-6.16 -0.16,-5.04 -1.84,-10.8 -1.68,-5.8 -3.28,-7.16 1.52,-1.8 3,-1.8 2.04,0 2.72,1.96 z"
         style="font-style:italic;font-variant:normal;font-weight:bold;font-stretch:normal;font-family:Overlock;-inkscape-font-specification:'Overlock Bold Italic';fill:#3e033d;fill-opacity:1"
         id="path6336"
         inkscape:connector-curvature="0" />
    </g>
  </g>
</svg>
