<?xml version="1.0" encoding="UTF-8" standalone="no"?>
<!-- Created with Inkscape (http://www.inkscape.org/) -->

<svg
   xmlns:dc="http://purl.org/dc/elements/1.1/"
   xmlns:cc="http://creativecommons.org/ns#"
   xmlns:rdf="http://www.w3.org/1999/02/22-rdf-syntax-ns#"
   xmlns:svg="http://www.w3.org/2000/svg"
   xmlns="http://www.w3.org/2000/svg"
   xmlns:sodipodi="http://sodipodi.sourceforge.net/DTD/sodipodi-0.dtd"
   xmlns:inkscape="http://www.inkscape.org/namespaces/inkscape"
   width="7.5in"
   height="3in"
   id="svg2"
   sodipodi:version="0.32"
   inkscape:version="0.91 r13725"
   version="1.0"
   sodipodi:docname="h_Intro.svg"
   inkscape:output_extension="org.inkscape.output.svg.inkscape">
  <metadata
     id="metadata2425">
    <rdf:RDF>
      <cc:Work
         rdf:about="">
        <dc:format>image/svg+xml</dc:format>
        <dc:type
           rdf:resource="http://purl.org/dc/dcmitype/StillImage" />
        <dc:title></dc:title>
      </cc:Work>
    </rdf:RDF>
  </metadata>
  <defs
     id="defs4">
    <clipPath
       clipPathUnits="userSpaceOnUse"
       id="clipPath5012">
      <circle
         style="opacity:1;fill:#f4aca1;fill-opacity:1;stroke:none;stroke-width:10;stroke-miterlimit:4;stroke-dasharray:none;stroke-opacity:1"
         id="circle5014"
         cx="505.8002"
         cy="1547.3759"
         r="146.37384" />
    </clipPath>
  </defs>
  <sodipodi:namedview
     id="base"
     pagecolor="#ffffff"
     bordercolor="#666666"
     borderopacity="1.0"
     gridtolerance="10000"
     guidetolerance="10"
     objecttolerance="10"
     inkscape:pageopacity="0.0"
     inkscape:pageshadow="2"
     inkscape:zoom="1.0490196"
     inkscape:cx="343.24515"
     inkscape:cy="177.79278"
     inkscape:document-units="px"
     inkscape:current-layer="svg2"
     showgrid="true"
     showguides="true"
     inkscape:guide-bbox="true"
     inkscape:window-width="1291"
     inkscape:window-height="822"
     inkscape:window-x="24"
     inkscape:window-y="0"
     inkscape:window-maximized="0"
     borderlayer="true"
     units="in">
    <sodipodi:guide
       position="30,0"
       orientation="1,0"
       id="guide-30" />
    <sodipodi:guide
       position="40,0"
       orientation="1,0"
       id="guide-40" />
    <sodipodi:guide
       position="100,0"
       orientation="1,0"
       id="guide-100" />
    <sodipodi:guide
       position="110,0"
       orientation="1,0"
       id="guide-110" />
    <sodipodi:guide
       position="120,0"
       orientation="1,0"
       id="guide-120" />
    <sodipodi:guide
       position="180,0"
       orientation="1,0"
       id="guide-180" />
    <sodipodi:guide
       position="190,0"
       orientation="1,0"
       id="guide-190" />
    <sodipodi:guide
       position="200,0"
       orientation="1,0"
       id="guide-200" />
    <sodipodi:guide
       position="260,0"
       orientation="1,0"
       id="guide-260" />
    <sodipodi:guide
       position="270,0"
       orientation="1,0"
       id="guide-270" />
    <sodipodi:guide
       position="280,0"
       orientation="1,0"
       id="guide-280" />
    <sodipodi:guide
       position="340,0"
       orientation="1,0"
       id="guide-340" />
    <sodipodi:guide
       position="350,0"
       orientation="1,0"
       id="guide-350" />
    <sodipodi:guide
       position="360,0"
       orientation="1,0"
       id="guide-360" />
    <sodipodi:guide
       position="420,0"
       orientation="1,0"
       id="guide-420" />
    <sodipodi:guide
       position="430,0"
       orientation="1,0"
       id="guide-430" />
    <sodipodi:guide
       position="440,0"
       orientation="1,0"
       id="guide-440" />
    <sodipodi:guide
       position="500,0"
       orientation="1,0"
       id="guide-500" />
    <sodipodi:guide
       position="510,0"
       orientation="1,0"
       id="guide-510" />
    <sodipodi:guide
       position="520,0"
       orientation="1,0"
       id="guide-520" />
    <sodipodi:guide
       position="580,0"
       orientation="1,0"
       id="guide-580" />
    <sodipodi:guide
       position="590,0"
       orientation="1,0"
       id="guide-590" />
    <sodipodi:guide
       position="600,0"
       orientation="1,0"
       id="guide-600" />
    <sodipodi:guide
       position="660,0"
       orientation="1,0"
       id="guide-660" />
    <sodipodi:guide
       position="670,0"
       orientation="1,0"
       id="guide-670" />
    <sodipodi:guide
       position="680,0"
       orientation="1,0"
       id="guide-680" />
    <sodipodi:guide
       position="740,0"
       orientation="1,0"
       id="guide-740" />
    <sodipodi:guide
       position="750,0"
       orientation="1,0"
       id="guide-750" />
    <sodipodi:guide
       position="760,0"
       orientation="1,0"
       id="guide-760" />
    <sodipodi:guide
       position="820,0"
       orientation="1,0"
       id="guide-820" />
    <sodipodi:guide
       position="830,0"
       orientation="1,0"
       id="guide-830" />
    <sodipodi:guide
       position="840,0"
       orientation="1,0"
       id="guide-840" />
    <sodipodi:guide
       position="900,0"
       orientation="1,0"
       id="guide-900" />
    <sodipodi:guide
       position="910,0"
       orientation="1,0"
       id="guide-910" />
    <sodipodi:guide
       position="920,0"
       orientation="1,0"
       id="guide-920" />
    <sodipodi:guide
       position="980,0"
       orientation="1,0"
       id="guide-980" />
    <sodipodi:guide
       position="990,0"
       orientation="1,0"
       id="guide-990" />
    <inkscape:grid
       type="xygrid"
       id="grid2390"
       visible="true"
       enabled="true"
       color="#0000ff"
       opacity="0.0627451"
       empcolor="#0000ff"
       empopacity="0.1254902"
       dotted="false"
       spacingx="1px"
       spacingy="1px"
       originx="2.7755576e-17px"
       originy="0px" />
  </sodipodi:namedview>
  <g
     transform="translate(-173.03716,1750.5676)"
     style="font-style:normal;font-weight:normal;font-size:76.0929718px;line-height:125%;font-family:sans-serif;letter-spacing:0px;word-spacing:0px;fill:#eddcc0;fill-opacity:1;stroke:none;stroke-width:1px;stroke-linecap:butt;stroke-linejoin:miter;stroke-opacity:1"
     id="flowRoot4506">
    <path
       d="m 400.01523,-1697.2447 q -1.3,0.05 -6.05,0.05 -0.85,4.85 -1.4,9.25 l -1.3,10.05 q -0.6,4.4 -0.6,6.85 0,1.7 0.2,3.05 -1.2,0.4 -3.1,0.4 -2.9,0 -2.9,-2.1 0,-0.35 0.25,-2.15 0.25,-1.85 0.9,-6.8 0.7,-5 1.4,-10.65 0.6,-4.75 0.85,-7.9 -5.15,0 -7.95,0.2 -0.05,-0.35 -0.05,-0.9 0,-1.5 0.55,-2.15 0.55,-0.65 1.85,-0.7 1.25,-0.05 5.2,-0.05 l 5.3,0 q 7.45,0 9.15,-0.15 0.1,0.6 0.1,1.2 0,1.25 -0.55,1.85 -0.55,0.55 -1.85,0.65 z"
       style="font-style:italic;font-variant:normal;font-weight:bold;font-stretch:normal;font-size:50px;font-family:Overlock;-inkscape-font-specification:'Overlock Bold Italic';text-align:center;text-anchor:middle;fill:#eddcc0;fill-opacity:1"
       id="path7486"
       inkscape:connector-curvature="0" />
    <path
       d="m 407.95664,-1680.6947 q -1,7.5 -1,10 0,1.45 0.15,2.7 -1.95,0.45 -3.3,0.45 -2.75,0 -2.75,-1.75 0,-1.75 2.1,-14.8 2.15,-13.1 2.15,-14.9 0,-1.85 -1.35,-2.55 0.1,-1.35 1.2,-2.35 1.1,-1 2.7,-1 1.6,0 2.35,0.95 0.75,0.9 0.75,2.25 0,1.2 -0.7,6.3 -0.7,5.1 -1.2,7.9 1.5,-2.15 3.45,-3.3 1.95,-1.15 3.75,-1.15 2.45,0 3.75,1.75 1.35,1.75 1.35,4.55 0,0.9 -0.9,6 -0.85,5.1 -0.95,6.5 0,1.95 1.85,2.8 -0.2,1.4 -1.3,2.25 -1.05,0.85 -2.35,0.85 -1.5,0 -2.55,-1.15 -1.05,-1.15 -1.05,-3.35 0,-2.1 0.9,-7.1 0.9,-5.05 0.9,-6 0,-3.25 -2,-3.25 -1.5,0 -3.15,2.1 -1.6,2.05 -2.8,5.3 z"
       style="font-style:italic;font-variant:normal;font-weight:bold;font-stretch:normal;font-size:50px;font-family:Overlock;-inkscape-font-specification:'Overlock Bold Italic';text-align:center;text-anchor:middle;fill:#eddcc0;fill-opacity:1"
       id="path7488"
       inkscape:connector-curvature="0" />
    <path
       d="m 431.07539,-1676.6947 q 0.05,3.1 1.2,4.65 1.2,1.5 2.9,1.5 1.4,0 2.75,-0.95 1.35,-0.95 2.2,-2.55 2.4,0.95 2.4,2.95 0,1.55 -2.35,2.7 -2.35,1.15 -5.4,1.15 -1.9,0 -3.6,-0.5 -1.65,-0.55 -3.15,-1.6 -1.45,-1.1 -2.3,-3 -0.85,-1.95 -0.85,-4.55 0,-3.65 1.2,-6.6 1.2,-3 3.1,-4.75 1.95,-1.8 4.15,-2.75 2.25,-0.95 4.45,-0.95 3.35,0 5.05,1.75 1.7,1.7 1.7,4.3 0,2.5 -1.45,4.85 -1.45,2.3 -3.9,3.3 -2.7,1.15 -6.45,1.15 -0.75,0 -1.65,-0.1 z m 7.25,-8.95 q 0,-1.3 -0.65,-2.15 -0.6,-0.9 -1.6,-0.9 -1.85,0 -3.25,2.65 -1.4,2.6 -1.7,6.5 0.95,0 1.6,-0.05 0.7,-0.1 1.85,-0.45 1.15,-0.35 1.85,-0.95 0.75,-0.6 1.3,-1.8 0.6,-1.2 0.6,-2.85 z"
       style="font-style:italic;font-variant:normal;font-weight:bold;font-stretch:normal;font-size:50px;font-family:Overlock;-inkscape-font-specification:'Overlock Bold Italic';text-align:center;text-anchor:middle;fill:#eddcc0;fill-opacity:1"
       id="path7490"
       inkscape:connector-curvature="0" />
    <path
       d="m 460.81133,-1693.7947 q 0,-3.65 -1.35,-6.45 2.25,-1.2 3.95,-1.2 3.2,0 3.2,4.75 0,2.55 -1.15,9.4 -1.1,6.8 -1.1,10 0,4.85 1.55,6.85 3,-1.05 5.7,-5.3 2.75,-4.3 4.25,-9.55 1.55,-5.3 1.55,-9.8 0,-3.1 -0.85,-5.3 2.1,-1.05 3.8,-1.05 3.3,0 3.3,4 0,6.1 -3.2,14.35 -0.15,1.95 -0.15,3.85 0,6.55 1.85,8.8 3,-1.05 5.7,-5.3 2.75,-4.3 4.25,-9.55 1.55,-5.3 1.55,-9.8 0,-3.1 -0.85,-5.3 2.1,-1.05 3.8,-1.05 3.3,0 3.3,4 0,2.75 -0.85,6.6 -0.8,3.8 -2.45,7.95 -1.6,4.1 -3.75,7.6 -2.1,3.5 -5.1,5.8 -2.95,2.25 -6.05,2.25 -1.65,0 -3.2,-0.55 -2.2,-2.3 -2.85,-6.15 -4.75,6.7 -10.2,6.7 -1.65,0 -3.2,-0.55 -3.1,-3.3 -3.1,-9.5 0,-3.2 0.8,-7.8 0.85,-4.6 0.85,-8.7 z"
       style="font-style:italic;font-variant:normal;font-weight:bold;font-stretch:normal;font-size:50px;font-family:Overlock;-inkscape-font-specification:'Overlock Bold Italic';text-align:center;text-anchor:middle;fill:#eddcc0;fill-opacity:1"
       id="path7492"
       inkscape:connector-curvature="0" />
    <path
       d="m 506.9543,-1676.6947 q 0.05,3.1 1.2,4.65 1.2,1.5 2.9,1.5 1.4,0 2.75,-0.95 1.35,-0.95 2.2,-2.55 2.4,0.95 2.4,2.95 0,1.55 -2.35,2.7 -2.35,1.15 -5.4,1.15 -1.9,0 -3.6,-0.5 -1.65,-0.55 -3.15,-1.6 -1.45,-1.1 -2.3,-3 -0.85,-1.95 -0.85,-4.55 0,-3.65 1.2,-6.6 1.2,-3 3.1,-4.75 1.95,-1.8 4.15,-2.75 2.25,-0.95 4.45,-0.95 3.35,0 5.05,1.75 1.7,1.7 1.7,4.3 0,2.5 -1.45,4.85 -1.45,2.3 -3.9,3.3 -2.7,1.15 -6.45,1.15 -0.75,0 -1.65,-0.1 z m 7.25,-8.95 q 0,-1.3 -0.65,-2.15 -0.6,-0.9 -1.6,-0.9 -1.85,0 -3.25,2.65 -1.4,2.6 -1.7,6.5 0.95,0 1.6,-0.05 0.7,-0.1 1.85,-0.45 1.15,-0.35 1.85,-0.95 0.75,-0.6 1.3,-1.8 0.6,-1.2 0.6,-2.85 z"
       style="font-style:italic;font-variant:normal;font-weight:bold;font-stretch:normal;font-size:50px;font-family:Overlock;-inkscape-font-specification:'Overlock Bold Italic';text-align:center;text-anchor:middle;fill:#eddcc0;fill-opacity:1"
       id="path7494"
       inkscape:connector-curvature="0" />
    <path
       d="m 539.21758,-1689.4947 q 1.2,-8.15 1.2,-9.55 0,-1.9 -1.35,-2.5 0.1,-1.3 1.15,-2.3 1.1,-1.05 2.75,-1.05 1.6,0 2.35,0.95 0.75,0.9 0.75,2.25 0,1.95 -1.95,14.8 -1.95,12.8 -1.95,13.8 0,1.95 1.85,2.75 -0.65,3.1 -3.55,3.1 -1.6,0 -2.55,-1.25 -0.95,-1.25 -0.95,-2.8 0,-0.65 0.05,-1.15 -3.5,5.2 -7.6,5.2 -2.85,0 -4.65,-2.3 -1.8,-2.35 -1.8,-6.7 0,-6.2 3.3,-10.9 3.35,-4.75 7.7,-4.75 3,0 5.25,2.4 z m -1.7,11.5 1.2,-8.25 q -1.4,-1.5 -2.15,-1.95 -0.7,-0.5 -1.55,-0.5 -2.55,0 -4.25,3.2 -1.65,3.15 -1.65,8.2 0,2.75 0.8,4.5 0.8,1.75 2.15,1.75 1.2,0 2.75,-1.95 1.6,-2 2.7,-5 z"
       style="font-style:italic;font-variant:normal;font-weight:bold;font-stretch:normal;font-size:50px;font-family:Overlock;-inkscape-font-specification:'Overlock Bold Italic';text-align:center;text-anchor:middle;fill:#eddcc0;fill-opacity:1"
       id="path7496"
       inkscape:connector-curvature="0" />
    <path
       d="m 564.02227,-1689.4947 q 1.2,-8.15 1.2,-9.55 0,-1.9 -1.35,-2.5 0.1,-1.3 1.15,-2.3 1.1,-1.05 2.75,-1.05 1.6,0 2.35,0.95 0.75,0.9 0.75,2.25 0,1.95 -1.95,14.8 -1.95,12.8 -1.95,13.8 0,1.95 1.85,2.75 -0.65,3.1 -3.55,3.1 -1.6,0 -2.55,-1.25 -0.95,-1.25 -0.95,-2.8 0,-0.65 0.05,-1.15 -3.5,5.2 -7.6,5.2 -2.85,0 -4.65,-2.3 -1.8,-2.35 -1.8,-6.7 0,-6.2 3.3,-10.9 3.35,-4.75 7.7,-4.75 3,0 5.25,2.4 z m -1.7,11.5 1.2,-8.25 q -1.4,-1.5 -2.15,-1.95 -0.7,-0.5 -1.55,-0.5 -2.55,0 -4.25,3.2 -1.65,3.15 -1.65,8.2 0,2.75 0.8,4.5 0.8,1.75 2.15,1.75 1.2,0 2.75,-1.95 1.6,-2 2.7,-5 z"
       style="font-style:italic;font-variant:normal;font-weight:bold;font-stretch:normal;font-size:50px;font-family:Overlock;-inkscape-font-specification:'Overlock Bold Italic';text-align:center;text-anchor:middle;fill:#eddcc0;fill-opacity:1"
       id="path7498"
       inkscape:connector-curvature="0" />
    <path
       d="m 578.87695,-1694.2947 q -1.25,0 -2.05,-0.8 -0.75,-0.85 -0.75,-2.25 0,-1.6 1.1,-2.75 1.1,-1.15 2.55,-1.15 1.15,0 1.95,0.95 0.85,0.9 0.85,2.25 0,1.55 -1.2,2.65 -1.15,1.1 -2.45,1.1 z m -3.15,8.25 q 0,-1.9 -1.35,-2.55 0.15,-1.5 1.3,-2.4 1.15,-0.95 2.6,-0.95 1.3,0 2.2,0.8 0.9,0.8 0.9,2.35 0,1.9 -1.4,8.5 -1.35,6.55 -1.35,7.15 0,2 1.85,2.8 -0.2,1.3 -1.15,2.2 -0.9,0.9 -2.35,0.9 -1.85,0 -2.75,-1.35 -0.85,-1.35 -0.85,-3.2 0,-2.35 1.15,-7.45 1.2,-5.1 1.2,-6.8 z"
       style="font-style:italic;font-variant:normal;font-weight:bold;font-stretch:normal;font-size:50px;font-family:Overlock;-inkscape-font-specification:'Overlock Bold Italic';text-align:center;text-anchor:middle;fill:#eddcc0;fill-opacity:1"
       id="path7500"
       inkscape:connector-curvature="0" />
    <path
       d="m 592.09805,-1680.6947 q -1,7.5 -1,10 0,1.45 0.15,2.7 -1.95,0.45 -3.3,0.45 -2.75,0 -2.75,-1.75 0,-0.65 1.1,-7.9 1.15,-7.3 1.15,-8.7 0,-2.1 -1.4,-2.7 0.2,-1.55 1.35,-2.45 1.15,-0.9 2.55,-0.9 1.3,0 2.2,0.8 0.9,0.8 0.9,2.3 0,0.9 -0.15,1.8 1.45,-2.35 3.5,-3.6 2.1,-1.3 4,-1.3 2.45,0 3.75,1.75 1.35,1.75 1.35,4.55 0,0.9 -0.9,6 -0.85,5.1 -0.95,6.5 0,1.95 1.85,2.8 -0.2,1.4 -1.3,2.25 -1.05,0.85 -2.35,0.85 -1.5,0 -2.55,-1.15 -1.05,-1.15 -1.05,-3.35 0,-2.1 0.9,-7.1 0.9,-5.05 0.9,-6 0,-3.25 -2,-3.25 -1.5,0 -3.15,2.1 -1.6,2.05 -2.8,5.3 z"
       style="font-style:italic;font-variant:normal;font-weight:bold;font-stretch:normal;font-size:50px;font-family:Overlock;-inkscape-font-specification:'Overlock Bold Italic';text-align:center;text-anchor:middle;fill:#eddcc0;fill-opacity:1"
       id="path7502"
       inkscape:connector-curvature="0" />
    <path
       d="m 616.54336,-1672.7447 q 0.9,1.7 2.1,1.7 1.2,0 2.7,-1.9 1.55,-1.9 2.8,-5.1 0.7,-4.6 1.35,-8.5 -1.85,-2.1 -4.05,-2.1 -2.65,0 -4.2,3.35 -1.55,3.3 -1.55,8 0,2.85 0.85,4.55 z m 5,-19.25 q 5.6,0 9.65,2.85 -1.2,4.9 -2.45,13.3 -0.15,1.1 -0.4,3.25 -0.25,2.15 -0.45,3.55 -0.15,1.35 -0.6,3.35 -0.4,2.05 -0.95,3.35 -0.55,1.35 -1.55,2.85 -0.95,1.5 -2.25,2.35 -1.25,0.9 -3.15,1.45 -1.85,0.6 -4.2,0.6 -2.95,0 -4.9,-1.05 -1.95,-1.05 -1.95,-2.5 0,-2 3.2,-3.25 1.1,3.5 4.05,3.5 6.7,0 7.4,-13.35 -1.45,2.35 -3.4,3.45 -1.9,1.05 -3.6,1.05 -3.2,0 -4.85,-2.6 -1.6,-2.65 -1.6,-6.4 0,-6.35 3.45,-11.05 3.45,-4.7 8.55,-4.7 z"
       style="font-style:italic;font-variant:normal;font-weight:bold;font-stretch:normal;font-size:50px;font-family:Overlock;-inkscape-font-specification:'Overlock Bold Italic';text-align:center;text-anchor:middle;fill:#eddcc0;fill-opacity:1"
       id="path7504"
       inkscape:connector-curvature="0" />
    <path
       d="m 499.50742,-1604.7447 q -4.4,0 -6.85,-2.55 -2.45,-2.6 -2.45,-7.2 0,-6.3 3.6,-10.6 3.6,-4.35 9.2,-4.35 4.5,0 7,2.65 2.55,2.6 2.55,7.2 0,6.25 -3.75,10.55 -3.7,4.3 -9.3,4.3 z m 2.8,-21.4 q -2.75,0 -4.35,3.3 -1.6,3.25 -1.6,7.55 0,3.15 1.05,5.2 1.1,2.05 3.05,2.05 2.7,0 4.3,-3.2 1.6,-3.2 1.6,-7.45 0,-3.25 -1.1,-5.35 -1.05,-2.1 -2.95,-2.1 z"
       style="font-style:italic;font-variant:normal;font-weight:bold;font-stretch:normal;font-size:50px;font-family:Overlock;-inkscape-font-specification:'Overlock Bold Italic';text-align:center;text-anchor:middle;fill:#eddcc0;fill-opacity:1"
       id="path7506"
       inkscape:connector-curvature="0" />
    <path
       d="m 532.05508,-1634.0947 q -0.9,-3.25 -3.35,-3.25 -1.8,0 -2.85,2.5 -1,2.45 -1.25,6 3.65,0 6.8,-0.25 0.15,0.65 0.15,1.25 0,2.3 -2.4,2.4 -1.15,0.1 -4.85,0.1 -1.2,12.4 -1.9,17.25 -0.25,1.8 -0.55,3.1 -0.25,1.3 -0.85,2.9 -0.55,1.65 -1.55,2.5 -1,0.9 -2.35,0.9 -2.3,0 -3.35,-3.15 3.8,-1.1 5.15,-23.45 -1.5,0.05 -3.1,0.25 -0.1,-0.9 -0.1,-1.15 0,-2.7 2.9,-2.7 l 0.65,0 q 1.15,-12.05 10.75,-12.05 2.45,0 4.3,0.85 1.85,0.8 1.85,2.65 0,1.2 -0.95,2.25 -0.9,1.05 -3.15,1.1 z"
       style="font-style:italic;font-variant:normal;font-weight:bold;font-stretch:normal;font-size:50px;font-family:Overlock;-inkscape-font-specification:'Overlock Bold Italic';text-align:center;text-anchor:middle;fill:#eddcc0;fill-opacity:1"
       id="path7508"
       inkscape:connector-curvature="0" />
    <path
       d="m 198.6793,-1550.2447 q 3.25,1.2 3.25,3.15 0,1.9 -2.95,3.4 -2.9,1.45 -6.9,1.45 -5.7,0 -9,-3.7 -3.25,-3.75 -3.25,-10 0,-9.05 4.8,-14.75 4.8,-5.7 12.4,-5.7 3.45,0 5.7,1.45 2.3,1.4 2.3,3.5 0,1.55 -1.2,2.55 -1.2,1 -3.1,1.25 -0.45,-2.45 -1.95,-3.65 -1.5,-1.25 -3.35,-1.25 -4.3,0 -7.05,4.65 -2.75,4.6 -2.75,10.65 0,4.95 1.75,8.05 1.8,3.1 5.2,3.1 3.75,0 6.1,-4.15 z"
       style="font-style:italic;font-variant:normal;font-weight:bold;font-stretch:normal;font-size:50px;font-family:Overlock;-inkscape-font-specification:'Overlock Bold Italic';text-align:center;text-anchor:middle;fill:#eddcc0;fill-opacity:1"
       id="path7510"
       inkscape:connector-curvature="0" />
    <path
       d="m 212.93711,-1555.6947 q -1,7.5 -1,10 0,1.45 0.15,2.7 -1.95,0.45 -3.3,0.45 -2.75,0 -2.75,-1.75 0,-1.75 2.1,-14.8 2.15,-13.1 2.15,-14.9 0,-1.85 -1.35,-2.55 0.1,-1.35 1.2,-2.35 1.1,-1 2.7,-1 1.6,0 2.35,0.95 0.75,0.9 0.75,2.25 0,1.2 -0.7,6.3 -0.7,5.1 -1.2,7.9 1.5,-2.15 3.45,-3.3 1.95,-1.15 3.75,-1.15 2.45,0 3.75,1.75 1.35,1.75 1.35,4.55 0,0.9 -0.9,6 -0.85,5.1 -0.95,6.5 0,1.95 1.85,2.8 -0.2,1.4 -1.3,2.25 -1.05,0.85 -2.35,0.85 -1.5,0 -2.55,-1.15 -1.05,-1.15 -1.05,-3.35 0,-2.1 0.9,-7.1 0.9,-5.05 0.9,-6 0,-3.25 -2,-3.25 -1.5,0 -3.15,2.1 -1.6,2.05 -2.8,5.3 z"
       style="font-style:italic;font-variant:normal;font-weight:bold;font-stretch:normal;font-size:50px;font-family:Overlock;-inkscape-font-specification:'Overlock Bold Italic';text-align:center;text-anchor:middle;fill:#eddcc0;fill-opacity:1"
       id="path7512"
       inkscape:connector-curvature="0" />
    <path
       d="m 243.41758,-1547.4447 q -3.45,5.2 -7.65,5.2 -2.85,0 -4.65,-2.3 -1.75,-2.3 -1.75,-6.7 0,-6.45 3.45,-11.05 3.5,-4.65 8.55,-4.65 5.5,0 9.75,2.85 -2.45,11.2 -2.45,15.55 0,2.35 1.9,3.2 -0.2,1.15 -1.15,2.15 -0.9,0.95 -2.5,0.95 -1.65,0 -2.6,-1.2 -0.95,-1.2 -0.95,-3.05 0,-0.65 0.05,-0.95 z m 0.55,-5.6 1.35,-8.5 q -1.95,-2.1 -4,-2.1 -2.5,0 -4.15,3.2 -1.65,3.15 -1.65,8.15 0,2.7 0.8,4.5 0.85,1.75 2.2,1.75 1.2,0 2.75,-1.95 1.55,-2 2.7,-5.05 z"
       style="font-style:italic;font-variant:normal;font-weight:bold;font-stretch:normal;font-size:50px;font-family:Overlock;-inkscape-font-specification:'Overlock Bold Italic';text-align:center;text-anchor:middle;fill:#eddcc0;fill-opacity:1"
       id="path7514"
       inkscape:connector-curvature="0" />
    <path
       d="m 268.36055,-1562.0447 q -2.95,0 -5.7,4.25 -1.3,8.8 -1.3,12.1 0,1.45 0.15,2.7 -1.95,0.45 -3.3,0.45 -2.75,0 -2.75,-1.75 0,-0.65 1.1,-7.9 1.15,-7.3 1.15,-8.7 0,-2.1 -1.4,-2.7 0.2,-1.55 1.35,-2.45 1.15,-0.9 2.55,-0.9 1.3,0 2.2,0.8 0.9,0.8 0.9,2.3 0,0.85 -0.15,1.75 1.2,-1.95 2.95,-3.4 1.8,-1.45 3.65,-1.45 2.25,0 2.25,2.4 0,1.95 -1.4,3.45 -0.95,-0.95 -2.25,-0.95 z"
       style="font-style:italic;font-variant:normal;font-weight:bold;font-stretch:normal;font-size:50px;font-family:Overlock;-inkscape-font-specification:'Overlock Bold Italic';text-align:center;text-anchor:middle;fill:#eddcc0;fill-opacity:1"
       id="path7516"
       inkscape:connector-curvature="0" />
    <path
       d="m 276.3793,-1578.8947 q 1.1,-1 2.7,-1 1.6,0 2.35,0.95 0.75,0.9 0.75,2.25 0,1.85 -1.9,14.4 -1.85,12.5 -2,14.1 0,2.1 1.85,2.85 -0.6,3.1 -3.55,3.1 -1.8,0 -2.7,-1.35 -0.85,-1.35 -0.85,-3.2 0,-2.35 1.65,-13.6 1.7,-11.25 1.85,-13.6 0,-1.85 -1.35,-2.55 0.1,-1.35 1.2,-2.35 z"
       style="font-style:italic;font-variant:normal;font-weight:bold;font-stretch:normal;font-size:50px;font-family:Overlock;-inkscape-font-specification:'Overlock Bold Italic';text-align:center;text-anchor:middle;fill:#eddcc0;fill-opacity:1"
       id="path7518"
       inkscape:connector-curvature="0" />
    <path
       d="m 290.20508,-1564.4947 q 2.3,6.45 3.3,15.7 4.4,-8.4 4.4,-14.1 0,-1.4 -0.6,-3.1 1.75,-0.95 3.1,-0.95 3.2,0 3.2,3.35 0,3.9 -2.6,9.95 -2.55,6 -6.2,11.25 -2.7,3.85 -4.75,6.05 -2,2.2 -4.8,3.65 -2.8,1.45 -6.15,1.45 -2.45,0 -4.15,-0.8 -1.75,-0.8 -1.75,-2.15 0,-1.65 2.35,-3.05 1.45,2.7 4.15,2.7 4.7,0 9.75,-7.7 -0.2,-6.3 -2.3,-13.5 -2.1,-7.25 -4.1,-8.95 1.9,-2.25 3.75,-2.25 2.55,0 3.4,2.45 z"
       style="font-style:italic;font-variant:normal;font-weight:bold;font-stretch:normal;font-size:50px;font-family:Overlock;-inkscape-font-specification:'Overlock Bold Italic';text-align:center;text-anchor:middle;fill:#eddcc0;fill-opacity:1"
       id="path7520"
       inkscape:connector-curvature="0" />
    <path
       d="m 313.48477,-1555.6947 q -1,7.5 -1,10 0,1.45 0.15,2.7 -1.95,0.45 -3.3,0.45 -2.75,0 -2.75,-1.75 0,-0.65 1.1,-7.9 1.15,-7.3 1.15,-8.7 0,-2.1 -1.4,-2.7 0.2,-1.55 1.35,-2.45 1.15,-0.9 2.55,-0.9 1.3,0 2.2,0.8 0.9,0.8 0.9,2.3 0,0.9 -0.15,1.8 1.45,-2.35 3.5,-3.6 2.1,-1.3 4,-1.3 2.45,0 3.75,1.75 1.35,1.75 1.35,4.55 0,0.9 -0.9,6 -0.85,5.1 -0.95,6.5 0,1.95 1.85,2.8 -0.2,1.4 -1.3,2.25 -1.05,0.85 -2.35,0.85 -1.5,0 -2.55,-1.15 -1.05,-1.15 -1.05,-3.35 0,-2.1 0.9,-7.1 0.9,-5.05 0.9,-6 0,-3.25 -2,-3.25 -1.5,0 -3.15,2.1 -1.6,2.05 -2.8,5.3 z"
       style="font-style:italic;font-variant:normal;font-weight:bold;font-stretch:normal;font-size:50px;font-family:Overlock;-inkscape-font-specification:'Overlock Bold Italic';text-align:center;text-anchor:middle;fill:#eddcc0;fill-opacity:1"
       id="path7522"
       inkscape:connector-curvature="0" />
    <path
       d="m 352.40273,-1558.3447 q 3,0 4.55,-2.45 1.55,-2.45 1.55,-6.3 0,-3.1 -1.4,-4.25 -1.35,-1.2 -3.9,-1.2 -1.4,0 -2.55,0.2 -0.35,4.55 -1.5,12.75 1.5,1.25 3.25,1.25 z m -9.2,4.05 1.25,-10 q 0.9,-7.75 0.9,-11.5 3.5,-0.6 7.35,-0.6 11.55,0 11.55,9 0,5.95 -3.25,9.45 -3.25,3.45 -7.4,3.45 -3,0 -4.9,-1.6 -1,7.45 -1,10.3 0,1.6 0.2,2.8 -1.2,0.4 -3.2,0.4 -2.8,0 -2.8,-2.1 0,-0.45 0.2,-2 0.25,-1.6 0.6,-3.9 0.35,-2.35 0.5,-3.7 z"
       style="font-style:italic;font-variant:normal;font-weight:bold;font-stretch:normal;font-size:50px;font-family:Overlock;-inkscape-font-specification:'Overlock Bold Italic';text-align:center;text-anchor:middle;fill:#eddcc0;fill-opacity:1"
       id="path7524"
       inkscape:connector-curvature="0" />
    <path
       d="m 372.23633,-1569.2947 q -1.25,0 -2.05,-0.8 -0.75,-0.85 -0.75,-2.25 0,-1.6 1.1,-2.75 1.1,-1.15 2.55,-1.15 1.15,0 1.95,0.95 0.85,0.9 0.85,2.25 0,1.55 -1.2,2.65 -1.15,1.1 -2.45,1.1 z m -3.15,8.25 q 0,-1.9 -1.35,-2.55 0.15,-1.5 1.3,-2.4 1.15,-0.95 2.6,-0.95 1.3,0 2.2,0.8 0.9,0.8 0.9,2.35 0,1.9 -1.4,8.5 -1.35,6.55 -1.35,7.15 0,2 1.85,2.8 -0.2,1.3 -1.15,2.2 -0.9,0.9 -2.35,0.9 -1.85,0 -2.75,-1.35 -0.85,-1.35 -0.85,-3.2 0,-2.35 1.15,-7.45 1.2,-5.1 1.2,-6.8 z"
       style="font-style:italic;font-variant:normal;font-weight:bold;font-stretch:normal;font-size:50px;font-family:Overlock;-inkscape-font-specification:'Overlock Bold Italic';text-align:center;text-anchor:middle;fill:#eddcc0;fill-opacity:1"
       id="path7526"
       inkscape:connector-curvature="0" />
    <path
       d="m 380.10742,-1566.3947 1.7,0 q 0.05,-0.3 0.25,-2.3 0.25,-2 0.3,-2.7 1.05,-0.35 2.8,-0.35 2.75,0 2.75,1.7 0,0.25 -0.6,3.7 4.25,0 7.5,-0.25 0.15,0.6 0.15,1.2 0,2.35 -2.3,2.5 -1.55,0.05 -5.9,0.05 -1.8,11.6 -1.8,13.45 0,2.2 0.75,2.95 0.75,0.75 2.35,0.75 1.6,0 3,-1.5 1.3,0.9 1.3,2.3 0,2.65 -5.85,2.65 -2.9,0 -4.85,-1.55 -1.95,-1.55 -1.95,-5.2 0,-1.1 0.25,-3.3 0.3,-2.2 0.8,-5.55 0.5,-3.35 0.7,-5 -0.85,0 -4.15,0.3 -0.1,-0.7 -0.1,-1.05 0,-2.8 2.9,-2.8 z"
       style="font-style:italic;font-variant:normal;font-weight:bold;font-stretch:normal;font-size:50px;font-family:Overlock;-inkscape-font-specification:'Overlock Bold Italic';text-align:center;text-anchor:middle;fill:#eddcc0;fill-opacity:1"
       id="path7528"
       inkscape:connector-curvature="0" />
    <path
       d="m 397.29492,-1566.3947 1.7,0 q 0.05,-0.3 0.25,-2.3 0.25,-2 0.3,-2.7 1.05,-0.35 2.8,-0.35 2.75,0 2.75,1.7 0,0.25 -0.6,3.7 4.25,0 7.5,-0.25 0.15,0.6 0.15,1.2 0,2.35 -2.3,2.5 -1.55,0.05 -5.9,0.05 -1.8,11.6 -1.8,13.45 0,2.2 0.75,2.95 0.75,0.75 2.35,0.75 1.6,0 3,-1.5 1.3,0.9 1.3,2.3 0,2.65 -5.85,2.65 -2.9,0 -4.85,-1.55 -1.95,-1.55 -1.95,-5.2 0,-1.1 0.25,-3.3 0.3,-2.2 0.8,-5.55 0.5,-3.35 0.7,-5 -0.85,0 -4.15,0.3 -0.1,-0.7 -0.1,-1.05 0,-2.8 2.9,-2.8 z"
       style="font-style:italic;font-variant:normal;font-weight:bold;font-stretch:normal;font-size:50px;font-family:Overlock;-inkscape-font-specification:'Overlock Bold Italic';text-align:center;text-anchor:middle;fill:#eddcc0;fill-opacity:1"
       id="path7530"
       inkscape:connector-curvature="0" />
    <path
       d="m 425.08242,-1559.9947 q -0.5,-1.75 -1.45,-2.6 -0.9,-0.85 -2,-0.85 -1.35,0 -2.5,1.1 -1.15,1.1 -1.15,2.6 0,1.35 1,2.1 1.05,0.75 2.5,1.15 1.45,0.4 2.9,0.95 1.45,0.55 2.45,1.95 1.05,1.4 1.05,3.65 0,3.8 -2.75,5.75 -2.7,1.95 -7.05,1.95 -2.95,0 -5.05,-1.1 -2.05,-1.1 -2.05,-2.95 0,-2.55 3,-3.15 0.45,1.7 1.7,2.65 1.25,0.95 2.75,0.95 2.1,0 3.35,-0.9 1.3,-0.95 1.3,-2.2 0,-1.3 -1.05,-2.05 -1,-0.75 -2.45,-1.2 -1.45,-0.45 -2.95,-1.05 -1.45,-0.6 -2.5,-2 -1,-1.4 -1,-3.6 0,-4.05 2.75,-6.1 2.75,-2.05 6.7,-2.05 2.2,0 4.2,1.1 2,1.05 2,2.95 0,2.55 -3.7,2.95 z"
       style="font-style:italic;font-variant:normal;font-weight:bold;font-stretch:normal;font-size:50px;font-family:Overlock;-inkscape-font-specification:'Overlock Bold Italic';text-align:center;text-anchor:middle;fill:#eddcc0;fill-opacity:1"
       id="path7532"
       inkscape:connector-curvature="0" />
    <path
       d="m 454.84336,-1547.4447 q -3.45,5.2 -7.65,5.2 -2.85,0 -4.65,-2.3 -1.75,-2.3 -1.75,-6.7 0,-6.45 3.45,-11.05 3.5,-4.65 8.55,-4.65 5.5,0 9.75,2.85 -2.45,11.2 -2.45,15.55 0,2.35 1.9,3.2 -0.2,1.15 -1.15,2.15 -0.9,0.95 -2.5,0.95 -1.65,0 -2.6,-1.2 -0.95,-1.2 -0.95,-3.05 0,-0.65 0.05,-0.95 z m 0.55,-5.6 1.35,-8.5 q -1.95,-2.1 -4,-2.1 -2.5,0 -4.15,3.2 -1.65,3.15 -1.65,8.15 0,2.7 0.8,4.5 0.85,1.75 2.2,1.75 1.2,0 2.75,-1.95 1.55,-2 2.7,-5.05 z"
       style="font-style:italic;font-variant:normal;font-weight:bold;font-stretch:normal;font-size:50px;font-family:Overlock;-inkscape-font-specification:'Overlock Bold Italic';text-align:center;text-anchor:middle;fill:#eddcc0;fill-opacity:1"
       id="path7534"
       inkscape:connector-curvature="0" />
    <path
       d="m 473.83633,-1555.6947 q -1,7.5 -1,10 0,1.45 0.15,2.7 -1.95,0.45 -3.3,0.45 -2.75,0 -2.75,-1.75 0,-0.65 1.1,-7.9 1.15,-7.3 1.15,-8.7 0,-2.1 -1.4,-2.7 0.2,-1.55 1.35,-2.45 1.15,-0.9 2.55,-0.9 1.3,0 2.2,0.8 0.9,0.8 0.9,2.3 0,0.9 -0.15,1.8 1.45,-2.35 3.5,-3.6 2.1,-1.3 4,-1.3 2.45,0 3.75,1.75 1.35,1.75 1.35,4.55 0,0.9 -0.9,6 -0.85,5.1 -0.95,6.5 0,1.95 1.85,2.8 -0.2,1.4 -1.3,2.25 -1.05,0.85 -2.35,0.85 -1.5,0 -2.55,-1.15 -1.05,-1.15 -1.05,-3.35 0,-2.1 0.9,-7.1 0.9,-5.05 0.9,-6 0,-3.25 -2,-3.25 -1.5,0 -3.15,2.1 -1.6,2.05 -2.8,5.3 z"
       style="font-style:italic;font-variant:normal;font-weight:bold;font-stretch:normal;font-size:50px;font-family:Overlock;-inkscape-font-specification:'Overlock Bold Italic';text-align:center;text-anchor:middle;fill:#eddcc0;fill-opacity:1"
       id="path7536"
       inkscape:connector-curvature="0" />
    <path
       d="m 507.38164,-1564.4947 q 1.2,-8.15 1.2,-9.55 0,-1.9 -1.35,-2.5 0.1,-1.3 1.15,-2.3 1.1,-1.05 2.75,-1.05 1.6,0 2.35,0.95 0.75,0.9 0.75,2.25 0,1.95 -1.95,14.8 -1.95,12.8 -1.95,13.8 0,1.95 1.85,2.75 -0.65,3.1 -3.55,3.1 -1.6,0 -2.55,-1.25 -0.95,-1.25 -0.95,-2.8 0,-0.65 0.05,-1.15 -3.5,5.2 -7.6,5.2 -2.85,0 -4.65,-2.3 -1.8,-2.35 -1.8,-6.7 0,-6.2 3.3,-10.9 3.35,-4.75 7.7,-4.75 3,0 5.25,2.4 z m -1.7,11.5 1.2,-8.25 q -1.4,-1.5 -2.15,-1.95 -0.7,-0.5 -1.55,-0.5 -2.55,0 -4.25,3.2 -1.65,3.15 -1.65,8.2 0,2.75 0.8,4.5 0.8,1.75 2.15,1.75 1.2,0 2.75,-1.95 1.6,-2 2.7,-5 z"
       style="font-style:italic;font-variant:normal;font-weight:bold;font-stretch:normal;font-size:50px;font-family:Overlock;-inkscape-font-specification:'Overlock Bold Italic';text-align:center;text-anchor:middle;fill:#eddcc0;fill-opacity:1"
       id="path7538"
       inkscape:connector-curvature="0" />
    <path
       d="m 527.62383,-1536.7947 q -1.95,0 -1.95,-2.35 0,-1 0.15,-1.6 1.5,-0.15 2.55,-0.65 1.05,-0.45 1.7,-1.1 0.65,-0.6 1.05,-1.9 0.45,-1.3 0.65,-2.4 0.25,-1.15 0.55,-3.35 l 2,-14.4 q 0.95,-6.75 1.25,-11.35 1.35,-0.15 2.6,-0.15 3.05,0 3.05,2.05 0,0.5 -0.3,1.9 -0.25,1.35 -0.7,3.75 -0.45,2.35 -0.75,4.55 l -2.15,15.35 q -0.45,3.35 -1.8,5.85 -1.35,2.5 -2.95,3.65 -1.6,1.15 -2.85,1.65 -1.25,0.5 -2.1,0.5 z"
       style="font-style:italic;font-variant:normal;font-weight:bold;font-stretch:normal;font-size:50px;font-family:Overlock;-inkscape-font-specification:'Overlock Bold Italic';text-align:center;text-anchor:middle;fill:#eddcc0;fill-opacity:1"
       id="path7540"
       inkscape:connector-curvature="0" />
    <path
       d="m 549.53242,-1551.6947 q 0.05,3.1 1.2,4.65 1.2,1.5 2.9,1.5 1.4,0 2.75,-0.95 1.35,-0.95 2.2,-2.55 2.4,0.95 2.4,2.95 0,1.55 -2.35,2.7 -2.35,1.15 -5.4,1.15 -1.9,0 -3.6,-0.5 -1.65,-0.55 -3.15,-1.6 -1.45,-1.1 -2.3,-3 -0.85,-1.95 -0.85,-4.55 0,-3.65 1.2,-6.6 1.2,-3 3.1,-4.75 1.95,-1.8 4.15,-2.75 2.25,-0.95 4.45,-0.95 3.35,0 5.05,1.75 1.7,1.7 1.7,4.3 0,2.5 -1.45,4.85 -1.45,2.3 -3.9,3.3 -2.7,1.15 -6.45,1.15 -0.75,0 -1.65,-0.1 z m 7.25,-8.95 q 0,-1.3 -0.65,-2.15 -0.6,-0.9 -1.6,-0.9 -1.85,0 -3.25,2.65 -1.4,2.6 -1.7,6.5 0.95,0 1.6,-0.05 0.7,-0.1 1.85,-0.45 1.15,-0.35 1.85,-0.95 0.75,-0.6 1.3,-1.8 0.6,-1.2 0.6,-2.85 z"
       style="font-style:italic;font-variant:normal;font-weight:bold;font-stretch:normal;font-size:50px;font-family:Overlock;-inkscape-font-specification:'Overlock Bold Italic';text-align:center;text-anchor:middle;fill:#eddcc0;fill-opacity:1"
       id="path7542"
       inkscape:connector-curvature="0" />
    <path
       d="m 582.93398,-1571.5947 q -0.9,-3.25 -3.35,-3.25 -1.8,0 -2.85,2.5 -1,2.45 -1.25,6 3.65,0 6.8,-0.25 0.15,0.65 0.15,1.25 0,2.3 -2.4,2.4 -1.15,0.1 -4.85,0.1 -1.2,12.4 -1.9,17.25 -0.25,1.8 -0.55,3.1 -0.25,1.3 -0.85,2.9 -0.55,1.65 -1.55,2.5 -1,0.9 -2.35,0.9 -2.3,0 -3.35,-3.15 3.8,-1.1 5.15,-23.45 -1.5,0.05 -3.1,0.25 -0.1,-0.9 -0.1,-1.15 0,-2.7 2.9,-2.7 l 0.65,0 q 1.15,-12.05 10.75,-12.05 2.45,0 4.3,0.85 1.85,0.8 1.85,2.65 0,1.2 -0.95,2.25 -0.9,1.05 -3.15,1.1 z"
       style="font-style:italic;font-variant:normal;font-weight:bold;font-stretch:normal;font-size:50px;font-family:Overlock;-inkscape-font-specification:'Overlock Bold Italic';text-align:center;text-anchor:middle;fill:#eddcc0;fill-opacity:1"
       id="path7544"
       inkscape:connector-curvature="0" />
    <path
       d="m 601.09805,-1571.5947 q -0.9,-3.25 -3.35,-3.25 -1.8,0 -2.85,2.5 -1,2.45 -1.25,6 3.65,0 6.8,-0.25 0.15,0.65 0.15,1.25 0,2.3 -2.4,2.4 -1.15,0.1 -4.85,0.1 -1.2,12.4 -1.9,17.25 -0.25,1.8 -0.55,3.1 -0.25,1.3 -0.85,2.9 -0.55,1.65 -1.55,2.5 -1,0.9 -2.35,0.9 -2.3,0 -3.35,-3.15 3.8,-1.1 5.15,-23.45 -1.5,0.05 -3.1,0.25 -0.1,-0.9 -0.1,-1.15 0,-2.7 2.9,-2.7 l 0.65,0 q 1.15,-12.05 10.75,-12.05 2.45,0 4.3,0.85 1.85,0.8 1.85,2.65 0,1.2 -0.95,2.25 -0.9,1.05 -3.15,1.1 z"
       style="font-style:italic;font-variant:normal;font-weight:bold;font-stretch:normal;font-size:50px;font-family:Overlock;-inkscape-font-specification:'Overlock Bold Italic';text-align:center;text-anchor:middle;fill:#eddcc0;fill-opacity:1"
       id="path7546"
       inkscape:connector-curvature="0" />
    <path
       d="m 615.23555,-1562.0447 q -2.95,0 -5.7,4.25 -1.3,8.8 -1.3,12.1 0,1.45 0.15,2.7 -1.95,0.45 -3.3,0.45 -2.75,0 -2.75,-1.75 0,-0.65 1.1,-7.9 1.15,-7.3 1.15,-8.7 0,-2.1 -1.4,-2.7 0.2,-1.55 1.35,-2.45 1.15,-0.9 2.55,-0.9 1.3,0 2.2,0.8 0.9,0.8 0.9,2.3 0,0.85 -0.15,1.75 1.2,-1.95 2.95,-3.4 1.8,-1.45 3.65,-1.45 2.25,0 2.25,2.4 0,1.95 -1.4,3.45 -0.95,-0.95 -2.25,-0.95 z"
       style="font-style:italic;font-variant:normal;font-weight:bold;font-stretch:normal;font-size:50px;font-family:Overlock;-inkscape-font-specification:'Overlock Bold Italic';text-align:center;text-anchor:middle;fill:#eddcc0;fill-opacity:1"
       id="path7548"
       inkscape:connector-curvature="0" />
    <path
       d="m 624.43477,-1551.6947 q 0.05,3.1 1.2,4.65 1.2,1.5 2.9,1.5 1.4,0 2.75,-0.95 1.35,-0.95 2.2,-2.55 2.4,0.95 2.4,2.95 0,1.55 -2.35,2.7 -2.35,1.15 -5.4,1.15 -1.9,0 -3.6,-0.5 -1.65,-0.55 -3.15,-1.6 -1.45,-1.1 -2.3,-3 -0.85,-1.95 -0.85,-4.55 0,-3.65 1.2,-6.6 1.2,-3 3.1,-4.75 1.95,-1.8 4.15,-2.75 2.25,-0.95 4.45,-0.95 3.35,0 5.05,1.75 1.7,1.7 1.7,4.3 0,2.5 -1.45,4.85 -1.45,2.3 -3.9,3.3 -2.7,1.15 -6.45,1.15 -0.75,0 -1.65,-0.1 z m 7.25,-8.95 q 0,-1.3 -0.65,-2.15 -0.6,-0.9 -1.6,-0.9 -1.85,0 -3.25,2.65 -1.4,2.6 -1.7,6.5 0.95,0 1.6,-0.05 0.7,-0.1 1.85,-0.45 1.15,-0.35 1.85,-0.95 0.75,-0.6 1.3,-1.8 0.6,-1.2 0.6,-2.85 z"
       style="font-style:italic;font-variant:normal;font-weight:bold;font-stretch:normal;font-size:50px;font-family:Overlock;-inkscape-font-specification:'Overlock Bold Italic';text-align:center;text-anchor:middle;fill:#eddcc0;fill-opacity:1"
       id="path7550"
       inkscape:connector-curvature="0" />
    <path
       d="m 646.74805,-1564.4947 q 2.3,6.45 3.3,15.7 4.4,-8.4 4.4,-14.1 0,-1.4 -0.6,-3.1 1.75,-0.95 3.1,-0.95 3.2,0 3.2,3.35 0,3.9 -2.6,9.95 -2.55,6 -6.2,11.25 -2.7,3.85 -4.75,6.05 -2,2.2 -4.8,3.65 -2.8,1.45 -6.15,1.45 -2.45,0 -4.15,-0.8 -1.75,-0.8 -1.75,-2.15 0,-1.65 2.35,-3.05 1.45,2.7 4.15,2.7 4.7,0 9.75,-7.7 -0.2,-6.3 -2.3,-13.5 -2.1,-7.25 -4.1,-8.95 1.9,-2.25 3.75,-2.25 2.55,0 3.4,2.45 z"
       style="font-style:italic;font-variant:normal;font-weight:bold;font-stretch:normal;font-size:50px;font-family:Overlock;-inkscape-font-specification:'Overlock Bold Italic';text-align:center;text-anchor:middle;fill:#eddcc0;fill-opacity:1"
       id="path7552"
       inkscape:connector-curvature="0" />
    <path
       d="m 694.60039,-1575.8947 q 1.4,-0.15 2.65,-0.15 3,0 3,2.15 0,0.25 -0.25,1.5 -0.2,1.25 -0.65,3.9 -0.4,2.65 -0.75,5.55 l -1.3,10.05 q -0.6,4.4 -0.6,6.85 0,1.7 0.2,3.05 -1.75,0.4 -3,0.4 -2.95,0 -2.95,-2.6 0,-0.3 0.15,-1.55 0.2,-1.3 0.65,-4.75 0.5,-3.5 1,-7.4 -1.9,0.1 -5.45,0.1 -3.35,0 -6.95,-0.1 l -0.75,6 q -0.6,4.4 -0.6,6.85 0,1.7 0.2,3.05 -1.75,0.4 -3,0.4 -2.95,0 -2.95,-2.6 0,-0.35 0.2,-2.05 0.25,-1.7 0.9,-6.5 0.7,-4.85 1.4,-10.55 0.95,-7.5 1.15,-11.6 1.45,-0.15 2.65,-0.15 3,0 3,2.15 0,0.25 -0.25,1.55 -0.2,1.25 -0.65,4 -0.4,2.7 -0.8,5.7 5,0.1 6.8,0.1 2.2,0 5.6,-0.1 1.2,-9.25 1.35,-13.25 z"
       style="font-style:italic;font-variant:normal;font-weight:bold;font-stretch:normal;font-size:50px;font-family:Overlock;-inkscape-font-specification:'Overlock Bold Italic';text-align:center;text-anchor:middle;fill:#eddcc0;fill-opacity:1"
       id="path7554"
       inkscape:connector-curvature="0" />
    <path
       d="m 708.56445,-1569.2947 q -1.25,0 -2.05,-0.8 -0.75,-0.85 -0.75,-2.25 0,-1.6 1.1,-2.75 1.1,-1.15 2.55,-1.15 1.15,0 1.95,0.95 0.85,0.9 0.85,2.25 0,1.55 -1.2,2.65 -1.15,1.1 -2.45,1.1 z m -3.15,8.25 q 0,-1.9 -1.35,-2.55 0.15,-1.5 1.3,-2.4 1.15,-0.95 2.6,-0.95 1.3,0 2.2,0.8 0.9,0.8 0.9,2.35 0,1.9 -1.4,8.5 -1.35,6.55 -1.35,7.15 0,2 1.85,2.8 -0.2,1.3 -1.15,2.2 -0.9,0.9 -2.35,0.9 -1.85,0 -2.75,-1.35 -0.85,-1.35 -0.85,-3.2 0,-2.35 1.15,-7.45 1.2,-5.1 1.2,-6.8 z"
       style="font-style:italic;font-variant:normal;font-weight:bold;font-stretch:normal;font-size:50px;font-family:Overlock;-inkscape-font-specification:'Overlock Bold Italic';text-align:center;text-anchor:middle;fill:#eddcc0;fill-opacity:1"
       id="path7556"
       inkscape:connector-curvature="0" />
    <path
       d="m 716.43555,-1566.3947 1.7,0 q 0.05,-0.3 0.25,-2.3 0.25,-2 0.3,-2.7 1.05,-0.35 2.8,-0.35 2.75,0 2.75,1.7 0,0.25 -0.6,3.7 4.25,0 7.5,-0.25 0.15,0.6 0.15,1.2 0,2.35 -2.3,2.5 -1.55,0.05 -5.9,0.05 -1.8,11.6 -1.8,13.45 0,2.2 0.75,2.95 0.75,0.75 2.35,0.75 1.6,0 3,-1.5 1.3,0.9 1.3,2.3 0,2.65 -5.85,2.65 -2.9,0 -4.85,-1.55 -1.95,-1.55 -1.95,-5.2 0,-1.1 0.25,-3.3 0.3,-2.2 0.8,-5.55 0.5,-3.35 0.7,-5 -0.85,0 -4.15,0.3 -0.1,-0.7 -0.1,-1.05 0,-2.8 2.9,-2.8 z"
       style="font-style:italic;font-variant:normal;font-weight:bold;font-stretch:normal;font-size:50px;font-family:Overlock;-inkscape-font-specification:'Overlock Bold Italic';text-align:center;text-anchor:middle;fill:#eddcc0;fill-opacity:1"
       id="path7558"
       inkscape:connector-curvature="0" />
    <path
       d="m 746.82305,-1559.5947 q -1.05,-3.8 -3.65,-3.8 -2.6,0 -4.2,3.25 -1.6,3.2 -1.6,7.65 0,3.5 1.15,5.25 1.15,1.7 3,1.7 3,0 4.95,-3.5 2.4,0.95 2.4,2.95 0,1.55 -2.4,2.7 -2.4,1.15 -5.35,1.15 -4.55,0 -7.25,-2.55 -2.65,-2.55 -2.65,-6.95 0,-3.7 1.15,-6.7 1.15,-3 3.05,-4.8 1.9,-1.8 4.1,-2.75 2.2,-0.95 4.5,-0.95 2.5,0 4.7,1.05 2.2,1 2.2,3 0,1.2 -0.95,2.25 -0.95,1 -3.15,1.05 z"
       style="font-style:italic;font-variant:normal;font-weight:bold;font-stretch:normal;font-size:50px;font-family:Overlock;-inkscape-font-specification:'Overlock Bold Italic';text-align:center;text-anchor:middle;fill:#eddcc0;fill-opacity:1"
       id="path7560"
       inkscape:connector-curvature="0" />
    <path
       d="m 760.10508,-1555.6947 q -1,7.5 -1,10 0,1.45 0.15,2.7 -1.95,0.45 -3.3,0.45 -2.75,0 -2.75,-1.75 0,-1.75 2.1,-14.8 2.15,-13.1 2.15,-14.9 0,-1.85 -1.35,-2.55 0.1,-1.35 1.2,-2.35 1.1,-1 2.7,-1 1.6,0 2.35,0.95 0.75,0.9 0.75,2.25 0,1.2 -0.7,6.3 -0.7,5.1 -1.2,7.9 1.5,-2.15 3.45,-3.3 1.95,-1.15 3.75,-1.15 2.45,0 3.75,1.75 1.35,1.75 1.35,4.55 0,0.9 -0.9,6 -0.85,5.1 -0.95,6.5 0,1.95 1.85,2.8 -0.2,1.4 -1.3,2.25 -1.05,0.85 -2.35,0.85 -1.5,0 -2.55,-1.15 -1.05,-1.15 -1.05,-3.35 0,-2.1 0.9,-7.1 0.9,-5.05 0.9,-6 0,-3.25 -2,-3.25 -1.5,0 -3.15,2.1 -1.6,2.05 -2.8,5.3 z"
       style="font-style:italic;font-variant:normal;font-weight:bold;font-stretch:normal;font-size:50px;font-family:Overlock;-inkscape-font-specification:'Overlock Bold Italic';text-align:center;text-anchor:middle;fill:#eddcc0;fill-opacity:1"
       id="path7562"
       inkscape:connector-curvature="0" />
    <path
       d="m 783.22383,-1551.6947 q 0.05,3.1 1.2,4.65 1.2,1.5 2.9,1.5 1.4,0 2.75,-0.95 1.35,-0.95 2.2,-2.55 2.4,0.95 2.4,2.95 0,1.55 -2.35,2.7 -2.35,1.15 -5.4,1.15 -1.9,0 -3.6,-0.5 -1.65,-0.55 -3.15,-1.6 -1.45,-1.1 -2.3,-3 -0.85,-1.95 -0.85,-4.55 0,-3.65 1.2,-6.6 1.2,-3 3.1,-4.75 1.95,-1.8 4.15,-2.75 2.25,-0.95 4.45,-0.95 3.35,0 5.05,1.75 1.7,1.7 1.7,4.3 0,2.5 -1.45,4.85 -1.45,2.3 -3.9,3.3 -2.7,1.15 -6.45,1.15 -0.75,0 -1.65,-0.1 z m 7.25,-8.95 q 0,-1.3 -0.65,-2.15 -0.6,-0.9 -1.6,-0.9 -1.85,0 -3.25,2.65 -1.4,2.6 -1.7,6.5 0.95,0 1.6,-0.05 0.7,-0.1 1.85,-0.45 1.15,-0.35 1.85,-0.95 0.75,-0.6 1.3,-1.8 0.6,-1.2 0.6,-2.85 z"
       style="font-style:italic;font-variant:normal;font-weight:bold;font-stretch:normal;font-size:50px;font-family:Overlock;-inkscape-font-specification:'Overlock Bold Italic';text-align:center;text-anchor:middle;fill:#eddcc0;fill-opacity:1"
       id="path7564"
       inkscape:connector-curvature="0" />
    <path
       d="m 807.13711,-1555.6947 q -1,7.5 -1,10 0,1.45 0.15,2.7 -1.95,0.45 -3.3,0.45 -2.75,0 -2.75,-1.75 0,-0.65 1.1,-7.9 1.15,-7.3 1.15,-8.7 0,-2.1 -1.4,-2.7 0.2,-1.55 1.35,-2.45 1.15,-0.9 2.55,-0.9 1.3,0 2.2,0.8 0.9,0.8 0.9,2.3 0,0.9 -0.15,1.8 1.45,-2.35 3.5,-3.6 2.1,-1.3 4,-1.3 2.45,0 3.75,1.75 1.35,1.75 1.35,4.55 0,0.9 -0.9,6 -0.85,5.1 -0.95,6.5 0,1.95 1.85,2.8 -0.2,1.4 -1.3,2.25 -1.05,0.85 -2.35,0.85 -1.5,0 -2.55,-1.15 -1.05,-1.15 -1.05,-3.35 0,-2.1 0.9,-7.1 0.9,-5.05 0.9,-6 0,-3.25 -2,-3.25 -1.5,0 -3.15,2.1 -1.6,2.05 -2.8,5.3 z"
       style="font-style:italic;font-variant:normal;font-weight:bold;font-stretch:normal;font-size:50px;font-family:Overlock;-inkscape-font-specification:'Overlock Bold Italic';text-align:center;text-anchor:middle;fill:#eddcc0;fill-opacity:1"
       id="path7566"
       inkscape:connector-curvature="0" />
    <path
       d="m 837.58242,-1559.9947 q -0.5,-1.75 -1.45,-2.6 -0.9,-0.85 -2,-0.85 -1.35,0 -2.5,1.1 -1.15,1.1 -1.15,2.6 0,1.35 1,2.1 1.05,0.75 2.5,1.15 1.45,0.4 2.9,0.95 1.45,0.55 2.45,1.95 1.05,1.4 1.05,3.65 0,3.8 -2.75,5.75 -2.7,1.95 -7.05,1.95 -2.95,0 -5.05,-1.1 -2.05,-1.1 -2.05,-2.95 0,-2.55 3,-3.15 0.45,1.7 1.7,2.65 1.25,0.95 2.75,0.95 2.1,0 3.35,-0.9 1.3,-0.95 1.3,-2.2 0,-1.3 -1.05,-2.05 -1,-0.75 -2.45,-1.2 -1.45,-0.45 -2.95,-1.05 -1.45,-0.6 -2.5,-2 -1,-1.4 -1,-3.6 0,-4.05 2.75,-6.1 2.75,-2.05 6.7,-2.05 2.2,0 4.2,1.1 2,1.05 2,2.95 0,2.55 -3.7,2.95 z"
       style="font-style:italic;font-variant:normal;font-weight:bold;font-stretch:normal;font-size:50px;font-family:Overlock;-inkscape-font-specification:'Overlock Bold Italic';text-align:center;text-anchor:middle;fill:#eddcc0;fill-opacity:1"
       id="path7568"
       inkscape:connector-curvature="0" />
  </g>
</svg>
