<?xml version="1.0" encoding="UTF-8" standalone="no"?>
<!-- Created with Inkscape (http://www.inkscape.org/) -->

<svg
   xmlns:dc="http://purl.org/dc/elements/1.1/"
   xmlns:cc="http://creativecommons.org/ns#"
   xmlns:rdf="http://www.w3.org/1999/02/22-rdf-syntax-ns#"
   xmlns:svg="http://www.w3.org/2000/svg"
   xmlns="http://www.w3.org/2000/svg"
   xmlns:sodipodi="http://sodipodi.sourceforge.net/DTD/sodipodi-0.dtd"
   xmlns:inkscape="http://www.inkscape.org/namespaces/inkscape"
   width="2in"
   height="0.69999999in"
   viewBox="0 0 179.99999 62.999999"
   id="svg2"
   version="1.1"
   inkscape:version="0.91 r13725"
   sodipodi:docname="Lod.svg">
  <defs
     id="defs4" />
  <sodipodi:namedview
     id="base"
     pagecolor="#ffffff"
     bordercolor="#666666"
     borderopacity="1.0"
     inkscape:pageopacity="0.0"
     inkscape:pageshadow="2"
     inkscape:zoom="2.8"
     inkscape:cx="103.53985"
     inkscape:cy="47.873717"
     inkscape:document-units="px"
     inkscape:current-layer="layer1"
     showgrid="true"
     borderlayer="true"
     units="in"
     inkscape:window-width="1213"
     inkscape:window-height="754"
     inkscape:window-x="98"
     inkscape:window-y="6"
     inkscape:window-maximized="0"
     showguides="false">
    <inkscape:grid
       type="xygrid"
       id="grid4382" />
  </sodipodi:namedview>
  <metadata
     id="metadata7">
    <rdf:RDF>
      <cc:Work
         rdf:about="">
        <dc:format>image/svg+xml</dc:format>
        <dc:type
           rdf:resource="http://purl.org/dc/dcmitype/StillImage" />
        <dc:title></dc:title>
      </cc:Work>
    </rdf:RDF>
  </metadata>
  <g
     inkscape:label="Layer 1"
     inkscape:groupmode="layer"
     id="layer1"
     transform="translate(0,-989.3622)">
    <rect
       style="opacity:1;fill:#3e033d;fill-opacity:1;stroke:none;stroke-width:10;stroke-miterlimit:4;stroke-dasharray:none;stroke-opacity:1"
       id="rect4602"
       width="115.35894"
       height="1.46319"
       x="30.047676"
       y="1036.0402"
       ry="7.7560777e-05" />
    <g
       transform="translate(23.428564,1042.7908)"
       style="font-style:normal;font-weight:normal;font-size:40px;line-height:125%;font-family:sans-serif;letter-spacing:0px;word-spacing:0px;fill:#3e033d;fill-opacity:1;stroke:none;stroke-width:1px;stroke-linecap:butt;stroke-linejoin:miter;stroke-opacity:1"
       id="flowRoot4170">
      <path
         d="m 23.65,-20.823607 q 0.455,1.26 0.455,2.065 0,1.015 -1.19,1.26 -1.155,0.245 -4.445,0.245 -4.165,0 -5.145,-0.07 -0.735,-0.035 -1.05,-0.315 -0.28,-0.315 -0.28,-0.91 0,-1.19 1.26,-10.395 1.295,-9.24 1.295,-11.62 0.77,-0.105 1.995,-0.105 2.03,0 2.03,1.155 0,0.455 -0.56,3.92 -0.56,3.465 -1.225,8.05 -0.63,4.585 -0.77,7.49 0.91,0.07 1.75,0.07 1.75,0 3.535,-0.245 1.785,-0.245 2.345,-0.595 z"
         style="font-style:italic;font-variant:normal;font-weight:bold;font-stretch:normal;font-size:35px;font-family:Overlock;-inkscape-font-specification:'Overlock Bold Italic';fill:#3e033d;fill-opacity:1"
         id="path4250" />
      <path
         d="m 31.537031,-17.008607 q -3.08,0 -4.795,-1.785 -1.715,-1.82 -1.715,-5.04 0,-4.41 2.52,-7.42 2.52,-3.045 6.44,-3.045 3.15,0 4.9,1.855 1.785,1.82 1.785,5.04 0,4.375 -2.625,7.385 -2.59,3.01 -6.51,3.01 z m 1.96,-14.98 q -1.925,0 -3.045,2.31 -1.12,2.275 -1.12,5.285 0,2.205 0.735,3.64 0.77,1.435 2.135,1.435 1.89,0 3.01,-2.24 1.12,-2.24 1.12,-5.215 0,-2.275 -0.77,-3.745 -0.735,-1.47 -2.065,-1.47 z"
         style="font-style:italic;font-variant:normal;font-weight:bold;font-stretch:normal;font-size:35px;font-family:Overlock;-inkscape-font-specification:'Overlock Bold Italic';fill:#3e033d;fill-opacity:1"
         id="path4252" />
      <path
         d="m 53.865391,-32.583607 q 0.84,-5.705 0.84,-6.685 0,-1.33 -0.945,-1.75 0.07,-0.91 0.805,-1.61 0.77,-0.735 1.925,-0.735 1.12,0 1.645,0.665 0.525,0.63 0.525,1.575 0,1.365 -1.365,10.36 -1.365,8.96 -1.365,9.66 0,1.365 1.295,1.925 -0.455,2.17 -2.485,2.17 -1.12,0 -1.785,-0.875 -0.665,-0.875 -0.665,-1.96 0,-0.455 0.035,-0.805 -2.45,3.64 -5.32,3.64 -1.995,0 -3.255,-1.61 -1.26,-1.645 -1.26,-4.69 0,-4.34 2.31,-7.63 2.345,-3.325 5.39,-3.325 2.1,0 3.675,1.68 z m -1.19,8.05 0.84,-5.775 q -0.98,-1.05 -1.505,-1.365 -0.49,-0.35 -1.085,-0.35 -1.785,0 -2.975,2.24 -1.155,2.205 -1.155,5.74 0,1.925 0.56,3.15 0.56,1.225 1.505,1.225 0.84,0 1.925,-1.365 1.12,-1.4 1.89,-3.5 z"
         style="font-style:italic;font-variant:normal;font-weight:bold;font-stretch:normal;font-size:35px;font-family:Overlock;-inkscape-font-specification:'Overlock Bold Italic';fill:#3e033d;fill-opacity:1"
         id="path4254" />
      <path
         d="m 64.858672,-20.858607 q 0.63,1.19 1.47,1.19 0.84,0 1.89,-1.33 1.085,-1.33 1.96,-3.57 0.49,-3.22 0.945,-5.95 -1.295,-1.47 -2.835,-1.47 -1.855,0 -2.94,2.345 -1.085,2.31 -1.085,5.6 0,1.995 0.595,3.185 z m 3.5,-13.475 q 3.92,0 6.755,1.995 -0.84,3.43 -1.715,9.31 -0.105,0.77 -0.28,2.275 -0.175,1.505 -0.315,2.485 -0.105,0.945 -0.42,2.345 -0.28,1.435 -0.665,2.345 -0.385,0.945 -1.085,1.995 -0.665,1.05 -1.575,1.6450004 -0.875,0.63 -2.205,1.015 -1.295,0.42 -2.94,0.42 -2.065,0 -3.43,-0.735 -1.365,-0.735 -1.365,-1.7500004 0,-1.4 2.24,-2.275 0.77,2.45 2.835,2.45 4.69,0 5.18,-9.345 -1.015,1.645 -2.38,2.415 -1.33,0.735 -2.52,0.735 -2.24,0 -3.395,-1.82 -1.12,-1.855 -1.12,-4.48 0,-4.445 2.415,-7.735 2.415,-3.29 5.985,-3.29 z"
         style="font-style:italic;font-variant:normal;font-weight:bold;font-stretch:normal;font-size:35px;font-family:Overlock;-inkscape-font-specification:'Overlock Bold Italic';fill:#3e033d;fill-opacity:1"
         id="path4256" />
      <path
         d="m 81.216797,-35.943607 q -0.875,0 -1.435,-0.56 -0.525,-0.595 -0.525,-1.575 0,-1.12 0.77,-1.925 0.77,-0.805 1.785,-0.805 0.805,0 1.365,0.665 0.595,0.63 0.595,1.575 0,1.085 -0.84,1.855 -0.805,0.77 -1.715,0.77 z m -2.205,5.775 q 0,-1.33 -0.945,-1.785 0.105,-1.05 0.91,-1.68 0.805,-0.665 1.82,-0.665 0.91,0 1.54,0.56 0.63,0.56 0.63,1.645 0,1.33 -0.98,5.95 -0.945,4.585 -0.945,5.005 0,1.4 1.295,1.96 -0.14,0.91 -0.805,1.54 -0.63,0.63 -1.645,0.63 -1.295,0 -1.925,-0.945 -0.595,-0.945 -0.595,-2.24 0,-1.645 0.805,-5.215 0.84,-3.57 0.84,-4.76 z"
         style="font-style:italic;font-variant:normal;font-weight:bold;font-stretch:normal;font-size:35px;font-family:Overlock;-inkscape-font-specification:'Overlock Bold Italic';fill:#3e033d;fill-opacity:1"
         id="path4258" />
      <path
         d="m 90.471563,-26.423607 q -0.7,5.25 -0.7,7 0,1.015 0.105,1.89 -1.365001,0.315 -2.31,0.315 -1.925,0 -1.925,-1.225 0,-0.455 0.77,-5.53 0.804999,-5.11 0.804999,-6.09 0,-1.47 -0.979999,-1.89 0.14,-1.085 0.944999,-1.715 0.805001,-0.63 1.785,-0.63 0.910001,0 1.54,0.56 0.63,0.56 0.63,1.61 0,0.63 -0.104999,1.26 1.014999,-1.645 2.449999,-2.52 1.47,-0.91 2.800001,-0.91 1.714999,0 2.625,1.225 0.944999,1.225 0.944999,3.185 0,0.63 -0.629999,4.2 -0.595,3.57 -0.665001,4.55 0,1.365 1.295,1.96 -0.14,0.98 -0.909999,1.575 -0.735,0.595 -1.645001,0.595 -1.05,0 -1.785,-0.805 -0.735,-0.805 -0.735,-2.345 0,-1.47 0.630001,-4.97 0.63,-3.535 0.63,-4.2 0,-2.275 -1.400001,-2.275 -1.05,0 -2.205,1.47 -1.119999,1.435 -1.959999,3.71 z"
         style="font-style:italic;font-variant:normal;font-weight:bold;font-stretch:normal;font-size:35px;font-family:Overlock;-inkscape-font-specification:'Overlock Bold Italic';fill:#3e033d;fill-opacity:1"
         id="path4260" />
      <path
         d="m 107.58328,-20.858607 q 0.63,1.19 1.47,1.19 0.84,0 1.89,-1.33 1.085,-1.33 1.96,-3.57 0.49,-3.22 0.945,-5.95 -1.295,-1.47 -2.835,-1.47 -1.855,0 -2.94,2.345 -1.085,2.31 -1.085,5.6 0,1.995 0.595,3.185 z m 3.5,-13.475 q 3.92,0 6.755,1.995 -0.84,3.43 -1.715,9.31 -0.105,0.77 -0.28,2.275 -0.175,1.505 -0.315,2.485 -0.105,0.945 -0.42,2.345 -0.28,1.435 -0.665,2.345 -0.385,0.945 -1.085,1.995 -0.665,1.05 -1.575,1.6450004 -0.875,0.63 -2.205,1.015 -1.295,0.42 -2.94,0.42 -2.065,0 -3.43,-0.735 -1.365,-0.735 -1.365,-1.7500004 0,-1.4 2.24,-2.275 0.77,2.45 2.835,2.45 4.69,0 5.18,-9.345 -1.015,1.645 -2.38,2.415 -1.33,0.735 -2.52,0.735 -2.24,0 -3.395,-1.82 -1.12,-1.855 -1.12,-4.48 0,-4.445 2.415,-7.735 2.415,-3.29 5.985,-3.29 z"
         style="font-style:italic;font-variant:normal;font-weight:bold;font-stretch:normal;font-size:35px;font-family:Overlock;-inkscape-font-specification:'Overlock Bold Italic';fill:#3e033d;fill-opacity:1"
         id="path4262" />
    </g>
  </g>
</svg>
