<?xml version="1.0" encoding="UTF-8" standalone="no"?>
<!-- Created with Inkscape (http://www.inkscape.org/) -->

<svg
   xmlns:dc="http://purl.org/dc/elements/1.1/"
   xmlns:cc="http://creativecommons.org/ns#"
   xmlns:rdf="http://www.w3.org/1999/02/22-rdf-syntax-ns#"
   xmlns:svg="http://www.w3.org/2000/svg"
   xmlns="http://www.w3.org/2000/svg"
   xmlns:sodipodi="http://sodipodi.sourceforge.net/DTD/sodipodi-0.dtd"
   xmlns:inkscape="http://www.inkscape.org/namespaces/inkscape"
   width="1.8in"
   height="1.8in"
   viewBox="0 0 162 162"
   id="svg2"
   version="1.1"
   inkscape:version="0.91 r13725"
   sodipodi:docname="Logo_SS.svg">
  <defs
     id="defs4" />
  <sodipodi:namedview
     id="base"
     pagecolor="#ffffff"
     bordercolor="#666666"
     borderopacity="1.0"
     inkscape:pageopacity="0.0"
     inkscape:pageshadow="2"
     inkscape:zoom="1.4"
     inkscape:cx="171.65351"
     inkscape:cy="110.93391"
     inkscape:document-units="px"
     inkscape:current-layer="layer1"
     showgrid="false"
     borderlayer="true"
     units="in"
     inkscape:window-width="1121"
     inkscape:window-height="677"
     inkscape:window-x="377"
     inkscape:window-y="61"
     inkscape:window-maximized="0">
    <inkscape:grid
       type="xygrid"
       id="grid4382" />
  </sodipodi:namedview>
  <metadata
     id="metadata7">
    <rdf:RDF>
      <cc:Work
         rdf:about="">
        <dc:format>image/svg+xml</dc:format>
        <dc:type
           rdf:resource="http://purl.org/dc/dcmitype/StillImage" />
        <dc:title></dc:title>
      </cc:Work>
    </rdf:RDF>
  </metadata>
  <g
     inkscape:label="Layer 1"
     inkscape:groupmode="layer"
     id="layer1"
     transform="translate(0,-890.3622)">
    <circle
       r="65.202003"
       cy="977.37335"
       cx="74.792992"
       id="circle4380"
       style="opacity:1;fill:#eddcc0;fill-opacity:1;stroke:none;stroke-width:10;stroke-miterlimit:4;stroke-dasharray:none;stroke-opacity:1" />
    <circle
       style="opacity:1;fill:#3e033d;fill-opacity:1;stroke:none;stroke-width:10;stroke-miterlimit:4;stroke-dasharray:none;stroke-opacity:1"
       id="path4272"
       cx="74.792992"
       cy="977.07324"
       r="59.949303" />
    <text
       xml:space="preserve"
       style="font-style:normal;font-weight:normal;font-size:40px;line-height:125%;font-family:sans-serif;letter-spacing:0px;word-spacing:0px;fill:#eddcc0;fill-opacity:1;stroke:none;stroke-width:1px;stroke-linecap:butt;stroke-linejoin:miter;stroke-opacity:1"
       id="text4324"
       sodipodi:linespacing="125%"
       transform="matrix(0.99999903,-0.00139232,0.00139232,0.99999903,0.21057226,-5.6930849)"
       x="473.16989"
       y="755.56519"><tspan
         id="tspan4326"><tspan
           x="501.6022"
           y="-889.65881"
           style="font-style:normal;font-variant:normal;font-weight:normal;font-stretch:normal;font-family:Lilly;-inkscape-font-specification:Lilly;fill:#eddcc0;fill-opacity:1"
           id="tspan4328">J e f f r e y</tspan></tspan></text>
    <g
       transform="matrix(1.1541045,0,0,1.1541045,-60.797228,0.549778)"
       style="font-style:normal;font-weight:normal;font-size:40px;line-height:125%;font-family:sans-serif;letter-spacing:0px;word-spacing:0px;fill:#eddcc0;fill-opacity:1;stroke:none;stroke-width:1px;stroke-linecap:butt;stroke-linejoin:miter;stroke-opacity:1"
       id="flowRoot4170">
      <path
         d="m 108.07,847.0056 q 5.85,2.16 5.85,5.67 0,3.42 -5.31,6.12 -5.22,2.61 -12.42,2.61 -10.26,0 -16.2,-6.66 -5.85,-6.75 -5.85,-18 0,-16.29 8.64,-26.55 8.64,-10.26 22.32,-10.26 6.21,0 10.26,2.61 4.14,2.52 4.14,6.3 0,2.79 -2.16,4.59 -2.16,1.8 -5.58,2.25 -0.81,-4.41 -3.51,-6.57 -2.7,-2.25 -6.03,-2.25 -7.74,0 -12.69,8.37 -4.95,8.28 -4.95,19.17 0,8.91 3.15,14.49 3.24,5.58 9.36,5.58 6.75,0 10.98,-7.47 z"
         style="font-style:italic;font-variant:normal;font-weight:bold;font-stretch:normal;font-size:90px;font-family:Overlock;-inkscape-font-specification:'Overlock Bold Italic';fill:#eddcc0;fill-opacity:1"
         id="path4905"
         inkscape:connector-curvature="0" />
    </g>
    <g
       transform="matrix(1.2810199,0,0,1.2810199,-8.933828,-82.075133)"
       style="font-style:normal;font-weight:normal;font-size:40px;line-height:125%;font-family:sans-serif;letter-spacing:0px;word-spacing:0px;fill:#eddcc0;fill-opacity:1;stroke:none;stroke-width:1px;stroke-linecap:butt;stroke-linejoin:miter;stroke-opacity:1"
       id="flowRoot4178">
      <path
         d="m 73.51,871.2156 q -3.51,0 -3.51,-4.23 0,-1.8 0.27,-2.88 2.7,-0.27 4.59,-1.17 1.89,-0.81 3.06,-1.98 1.17,-1.08 1.89,-3.42 0.81,-2.34 1.17,-4.32 0.45,-2.07 0.99,-6.03 l 3.6,-25.92 q 1.71,-12.15 2.25,-20.43 2.43,-0.27 4.68,-0.27 5.49,0 5.49,3.69 0,0.9 -0.54,3.42 -0.45,2.43 -1.26,6.75 -0.81,4.23 -1.35,8.19 l -3.87,27.63 q -0.81,6.03 -3.24,10.53 -2.43,4.5 -5.31,6.57 -2.88,2.07 -5.13,2.97 -2.25,0.9 -3.78,0.9 z"
         style="font-style:italic;font-variant:normal;font-weight:bold;font-stretch:normal;font-size:90px;font-family:Overlock;-inkscape-font-specification:'Overlock Bold Italic';fill:#eddcc0;fill-opacity:1"
         id="path4902"
         inkscape:connector-curvature="0" />
    </g>
    <g
       transform="matrix(0.88634008,0,0,0.88634008,3.4948724,277.0069)"
       style="font-style:normal;font-weight:normal;font-size:40px;line-height:125%;font-family:sans-serif;letter-spacing:0px;word-spacing:0px;fill:#eddcc0;fill-opacity:1;stroke:none;stroke-width:1px;stroke-linecap:butt;stroke-linejoin:miter;stroke-opacity:1"
       id="flowRoot4186">
      <path
         d="m 93.6,801.51544 q 1.35,0 4,0.75 2.7,0.75 3.6,0.75 2.05,0 2.05,-2.2 0,-1.15 -0.65,-2.15 0.7,-1.5 2.85,-1.5 1,0 1.45,0.6 0.5,0.6 0.5,1.4 0,2.35 -1.9,5 -1.9,2.6 -4.45,2.6 -0.85,0 -2,-0.25 -0.4,4 -1.9,7 -1.45,2.95 -3.7,4.65 -2.2,1.7 -4.8,2.5 -2.55,0.8 -5.5,0.8 -5.15,0 -8.25,-2.8 -3.05,-2.8 -3.05,-6.7 0,-2.95 2,-5.6 2.05,-2.65 5.95,-4.2 -4.5,-2 -4.5,-5.85 0,-3.7 3.15,-6.4 3.15,-2.75 7.75,-2.75 3,0 5.15,1.35 2.15,1.3 2.15,2.9 0,1.2 -1.05,2 -1.05,0.75 -2.9,0.95 -1.1,-3.45 -4,-3.45 -2.05,0 -3.4,1.35 -1.35,1.3 -1.35,3.45 0,1.4 1.2,2.65 1.25,1.25 3.25,1.25 0.6,0 0.95,-0.05 0.1,0.9 0.1,1.15 0,0.45 -0.05,0.8 -0.05,0.3 -0.2,0.55 -0.15,0.25 -0.25,0.4 -0.1,0.1 -0.4,0.25 -0.25,0.1 -0.35,0.15 -0.1,0.05 -0.45,0.15 -0.35,0.1 -0.45,0.1 -2.95,0.75 -4.75,3 -1.8,2.25 -1.8,4.85 0,2.75 1.8,4.75 1.85,2 5.05,2 4.4,0 7.2,-2.9 2.8,-2.9 2.8,-9.45 -0.7,-0.15 -1.3,-0.15 -0.9,0 -1.4,0.65 -0.5,0.6 -0.5,1.55 0,1.35 0.7,2.15 -0.75,1.55 -2.75,1.55 -1.05,0 -1.55,-0.6 -0.45,-0.6 -0.45,-1.4 0,-2.45 1.85,-5 1.9,-2.6 4.55,-2.6 z"
         style="font-style:italic;font-variant:normal;font-weight:bold;font-stretch:normal;font-size:50px;font-family:Overlock;-inkscape-font-specification:'Overlock Bold Italic';fill:#eddcc0;fill-opacity:1"
         id="path4908"
         inkscape:connector-curvature="0" />
    </g>
    <flowRoot
       xml:space="preserve"
       id="flowRoot4261"
       style="font-style:normal;font-weight:normal;font-size:40px;line-height:125%;font-family:sans-serif;letter-spacing:0px;word-spacing:0px;fill:#000000;fill-opacity:1;stroke:none;stroke-width:1px;stroke-linecap:butt;stroke-linejoin:miter;stroke-opacity:1"><flowRegion
         id="flowRegion4263"><rect
           id="rect4265"
           width="138.57143"
           height="57.142857"
           x="257.14285"
           y="-55" /></flowRegion><flowPara
         id="flowPara4267" /></flowRoot>    <flowRoot
       xml:space="preserve"
       id="flowRoot4269"
       style="font-style:normal;font-weight:normal;font-size:40px;line-height:125%;font-family:sans-serif;letter-spacing:0px;word-spacing:0px;fill:#000000;fill-opacity:1;stroke:none;stroke-width:1px;stroke-linecap:butt;stroke-linejoin:miter;stroke-opacity:1"><flowRegion
         id="flowRegion4271"><rect
           id="rect4273"
           width="105"
           height="95.714287"
           x="337.85715"
           y="-37.857143" /></flowRegion><flowPara
         id="flowPara4275" /></flowRoot>  </g>
</svg>
