<?xml version="1.0" encoding="UTF-8" standalone="no"?>
<!-- Created with Inkscape (http://www.inkscape.org/) -->

<svg
   xmlns:dc="http://purl.org/dc/elements/1.1/"
   xmlns:cc="http://creativecommons.org/ns#"
   xmlns:rdf="http://www.w3.org/1999/02/22-rdf-syntax-ns#"
   xmlns:svg="http://www.w3.org/2000/svg"
   xmlns="http://www.w3.org/2000/svg"
   xmlns:sodipodi="http://sodipodi.sourceforge.net/DTD/sodipodi-0.dtd"
   xmlns:inkscape="http://www.inkscape.org/namespaces/inkscape"
   width="17in"
   height="18in"
   viewBox="0 0 1530 1620"
   id="svg2"
   version="1.1"
   inkscape:version="0.91 r13725"
   sodipodi:docname="Logo4.svg">
  <defs
     id="defs4" />
  <sodipodi:namedview
     id="base"
     pagecolor="#ffffff"
     bordercolor="#666666"
     borderopacity="1.0"
     inkscape:pageopacity="0.0"
     inkscape:pageshadow="2"
     inkscape:zoom="0.24748737"
     inkscape:cx="-11.002645"
     inkscape:cy="2268.9477"
     inkscape:document-units="px"
     inkscape:current-layer="layer1"
     showgrid="true"
     borderlayer="true"
     units="in"
     inkscape:window-width="1121"
     inkscape:window-height="677"
     inkscape:window-x="302"
     inkscape:window-y="63"
     inkscape:window-maximized="0"
     showguides="false">
    <inkscape:grid
       type="xygrid"
       id="grid4382" />
  </sodipodi:namedview>
  <metadata
     id="metadata7">
    <rdf:RDF>
      <cc:Work
         rdf:about="">
        <dc:format>image/svg+xml</dc:format>
        <dc:type
           rdf:resource="http://purl.org/dc/dcmitype/StillImage" />
        <dc:title />
      </cc:Work>
    </rdf:RDF>
  </metadata>
  <g
     inkscape:label="Layer 1"
     inkscape:groupmode="layer"
     id="layer1"
     transform="translate(0,567.6378)">
    <circle
       r="555.33838"
       cy="45.522659"
       cx="779.08234"
       id="circle4380"
       style="opacity:1;fill:#eddcc0;fill-opacity:1;stroke:none;stroke-width:10;stroke-miterlimit:4;stroke-dasharray:none;stroke-opacity:1" />
    <circle
       style="opacity:1;fill:#3e033d;fill-opacity:1;stroke:none;stroke-width:10;stroke-miterlimit:4;stroke-dasharray:none;stroke-opacity:1"
       id="path4272"
       cx="779.08234"
       cy="42.966537"
       r="510.60007" />
    <g
       transform="matrix(9.8297364,0,0,9.8297364,-375.7664,-8274.2768)"
       style="font-style:normal;font-weight:normal;font-size:40px;line-height:125%;font-family:sans-serif;letter-spacing:0px;word-spacing:0px;fill:#eddcc0;fill-opacity:1;stroke:none;stroke-width:1px;stroke-linecap:butt;stroke-linejoin:miter;stroke-opacity:1"
       id="flowRoot4170">
      <path
         d="m 108.07,847.0056 q 5.85,2.16 5.85,5.67 0,3.42 -5.31,6.12 -5.22,2.61 -12.42,2.61 -10.26,0 -16.2,-6.66 -5.85,-6.75 -5.85,-18 0,-16.29 8.64,-26.55 8.64,-10.26 22.32,-10.26 6.21,0 10.26,2.61 4.14,2.52 4.14,6.3 0,2.79 -2.16,4.59 -2.16,1.8 -5.58,2.25 -0.81,-4.41 -3.51,-6.57 -2.7,-2.25 -6.03,-2.25 -7.74,0 -12.69,8.37 -4.95,8.28 -4.95,19.17 0,8.91 3.15,14.49 3.24,5.58 9.36,5.58 6.75,0 10.98,-7.47 z"
         style="font-style:italic;font-variant:normal;font-weight:bold;font-stretch:normal;font-size:90px;font-family:Overlock;-inkscape-font-specification:'Overlock Bold Italic';fill:#eddcc0;fill-opacity:1"
         id="path4905"
         inkscape:connector-curvature="0" />
    </g>
    <g
       transform="matrix(10.9107,0,0,10.9107,65.964434,-8978.0095)"
       style="font-style:normal;font-weight:normal;font-size:40px;line-height:125%;font-family:sans-serif;letter-spacing:0px;word-spacing:0px;fill:#eddcc0;fill-opacity:1;stroke:none;stroke-width:1px;stroke-linecap:butt;stroke-linejoin:miter;stroke-opacity:1"
       id="flowRoot4178">
      <path
         d="m 73.51,871.2156 q -3.51,0 -3.51,-4.23 0,-1.8 0.27,-2.88 2.7,-0.27 4.59,-1.17 1.89,-0.81 3.06,-1.98 1.17,-1.08 1.89,-3.42 0.81,-2.34 1.17,-4.32 0.45,-2.07 0.99,-6.03 l 3.6,-25.92 q 1.71,-12.15 2.25,-20.43 2.43,-0.27 4.68,-0.27 5.49,0 5.49,3.69 0,0.9 -0.54,3.42 -0.45,2.43 -1.26,6.75 -0.81,4.23 -1.35,8.19 l -3.87,27.63 q -0.81,6.03 -3.24,10.53 -2.43,4.5 -5.31,6.57 -2.88,2.07 -5.13,2.97 -2.25,0.9 -3.78,0.9 z"
         style="font-style:italic;font-variant:normal;font-weight:bold;font-stretch:normal;font-size:90px;font-family:Overlock;-inkscape-font-specification:'Overlock Bold Italic';fill:#eddcc0;fill-opacity:1"
         id="path4902"
         inkscape:connector-curvature="0" />
    </g>
    <g
       transform="matrix(7.5491339,0,0,7.5491339,171.82213,-5919.6367)"
       style="font-style:normal;font-weight:normal;font-size:40px;line-height:125%;font-family:sans-serif;letter-spacing:0px;word-spacing:0px;fill:#eddcc0;fill-opacity:1;stroke:none;stroke-width:1px;stroke-linecap:butt;stroke-linejoin:miter;stroke-opacity:1"
       id="flowRoot4186">
      <path
         d="m 93.6,801.51544 q 1.35,0 4,0.75 2.7,0.75 3.6,0.75 2.05,0 2.05,-2.2 0,-1.15 -0.65,-2.15 0.7,-1.5 2.85,-1.5 1,0 1.45,0.6 0.5,0.6 0.5,1.4 0,2.35 -1.9,5 -1.9,2.6 -4.45,2.6 -0.85,0 -2,-0.25 -0.4,4 -1.9,7 -1.45,2.95 -3.7,4.65 -2.2,1.7 -4.8,2.5 -2.55,0.8 -5.5,0.8 -5.15,0 -8.25,-2.8 -3.05,-2.8 -3.05,-6.7 0,-2.95 2,-5.6 2.05,-2.65 5.95,-4.2 -4.5,-2 -4.5,-5.85 0,-3.7 3.15,-6.4 3.15,-2.75 7.75,-2.75 3,0 5.15,1.35 2.15,1.3 2.15,2.9 0,1.2 -1.05,2 -1.05,0.75 -2.9,0.95 -1.1,-3.45 -4,-3.45 -2.05,0 -3.4,1.35 -1.35,1.3 -1.35,3.45 0,1.4 1.2,2.65 1.25,1.25 3.25,1.25 0.6,0 0.95,-0.05 0.1,0.9 0.1,1.15 0,0.45 -0.05,0.8 -0.05,0.3 -0.2,0.55 -0.15,0.25 -0.25,0.4 -0.1,0.1 -0.4,0.25 -0.25,0.1 -0.35,0.15 -0.1,0.05 -0.45,0.15 -0.35,0.1 -0.45,0.1 -2.95,0.75 -4.75,3 -1.8,2.25 -1.8,4.85 0,2.75 1.8,4.75 1.85,2 5.05,2 4.4,0 7.2,-2.9 2.8,-2.9 2.8,-9.45 -0.7,-0.15 -1.3,-0.15 -0.9,0 -1.4,0.65 -0.5,0.6 -0.5,1.55 0,1.35 0.7,2.15 -0.75,1.55 -2.75,1.55 -1.05,0 -1.55,-0.6 -0.45,-0.6 -0.45,-1.4 0,-2.45 1.85,-5 1.9,-2.6 4.55,-2.6 z"
         style="font-style:italic;font-variant:normal;font-weight:bold;font-stretch:normal;font-size:50px;font-family:Overlock;-inkscape-font-specification:'Overlock Bold Italic';fill:#eddcc0;fill-opacity:1"
         id="path4908"
         inkscape:connector-curvature="0" />
    </g>
    <flowRoot
       xml:space="preserve"
       id="flowRoot4261"
       style="font-style:normal;font-weight:normal;font-size:40px;line-height:125%;font-family:sans-serif;letter-spacing:0px;word-spacing:0px;fill:#000000;fill-opacity:1;stroke:none;stroke-width:1px;stroke-linecap:butt;stroke-linejoin:miter;stroke-opacity:1"><flowRegion
         id="flowRegion4263"><rect
           id="rect4265"
           width="138.57143"
           height="57.142857"
           x="257.14285"
           y="-55" /></flowRegion><flowPara
         id="flowPara4267" /></flowRoot>    <flowRoot
       xml:space="preserve"
       id="flowRoot4269"
       style="font-style:normal;font-weight:normal;font-size:40px;line-height:125%;font-family:sans-serif;letter-spacing:0px;word-spacing:0px;fill:#000000;fill-opacity:1;stroke:none;stroke-width:1px;stroke-linecap:butt;stroke-linejoin:miter;stroke-opacity:1"><flowRegion
         id="flowRegion4271"><rect
           id="rect4273"
           width="105"
           height="95.714287"
           x="337.85715"
           y="-37.857143" /></flowRegion><flowPara
         id="flowPara4275" /></flowRoot>    <g
       transform="translate(-180.69037,-215.6378)"
       style="font-style:normal;font-weight:normal;font-size:40px;line-height:125%;font-family:sans-serif;letter-spacing:0px;word-spacing:0px;fill:#eddcc0;fill-opacity:1;stroke:none;stroke-width:1px;stroke-linecap:butt;stroke-linejoin:miter;stroke-opacity:1"
       id="flowRoot7627">
      <path
         d="m 758.07625,893.02279 q -2.34,0.09 -10.89,0.09 -1.53,8.73 -2.52,16.65 l -2.34,18.09 q -1.08,7.92 -1.08,12.33 0,3.06 0.36,5.49 -2.16,0.72 -5.58,0.72 -5.22,0 -5.22,-3.78 0,-0.63 0.45,-3.87 0.45,-3.33 1.62,-12.24 1.26,-9 2.52,-19.17 1.08,-8.55 1.53,-14.22 -9.27,0 -14.31,0.36 -0.09,-0.63 -0.09,-1.62 0,-2.7 0.99,-3.87 0.99,-1.17 3.33,-1.26 2.25,-0.09 9.36,-0.09 l 9.54,0 q 13.41,0 16.47,-0.27 0.18,1.08 0.18,2.16 0,2.25 -0.99,3.33 -0.99,0.99 -3.33,1.17 z"
         style="font-style:italic;font-variant:normal;font-weight:bold;font-stretch:normal;font-size:90px;font-family:Overlock;-inkscape-font-specification:'Overlock Bold Italic';text-align:center;text-anchor:middle;fill:#eddcc0;fill-opacity:1"
         id="path7640" />
      <path
         d="m 772.37078,922.81279 q -1.8,13.5 -1.8,18 0,2.61 0.27,4.86 -3.51,0.81 -5.94,0.81 -4.95,0 -4.95,-3.15 0,-3.15 3.78,-26.64 3.87,-23.58 3.87,-26.82 0,-3.33 -2.43,-4.59 0.18,-2.43 2.16,-4.23 1.98,-1.8 4.86,-1.8 2.88,0 4.23,1.71 1.35,1.62 1.35,4.05 0,2.16 -1.26,11.34 -1.26,9.18 -2.16,14.22 2.7,-3.87 6.21,-5.94 3.51,-2.07 6.75,-2.07 4.41,0 6.75,3.15 2.43,3.15 2.43,8.19 0,1.62 -1.62,10.8 -1.53,9.18 -1.71,11.7 0,3.51 3.33,5.04 -0.36,2.52 -2.34,4.05 -1.89,1.53 -4.23,1.53 -2.7,0 -4.59,-2.07 -1.89,-2.07 -1.89,-6.03 0,-3.78 1.62,-12.78 1.62,-9.09 1.62,-10.8 0,-5.85 -3.6,-5.85 -2.7,0 -5.67,3.78 -2.88,3.69 -5.04,9.54 z"
         style="font-style:italic;font-variant:normal;font-weight:bold;font-stretch:normal;font-size:90px;font-family:Overlock;-inkscape-font-specification:'Overlock Bold Italic';text-align:center;text-anchor:middle;fill:#eddcc0;fill-opacity:1"
         id="path7642" />
      <path
         d="m 813.98453,930.01279 q 0.09,5.58 2.16,8.37 2.16,2.7 5.22,2.7 2.52,0 4.95,-1.71 2.43,-1.71 3.96,-4.59 4.32,1.71 4.32,5.31 0,2.79 -4.23,4.86 -4.23,2.07 -9.72,2.07 -3.42,0 -6.48,-0.9 -2.97,-0.99 -5.67,-2.88 -2.61,-1.98 -4.14,-5.4 -1.53,-3.51 -1.53,-8.19 0,-6.57 2.16,-11.88 2.16,-5.4 5.58,-8.55 3.51,-3.24 7.47,-4.95 4.05,-1.71 8.01,-1.71 6.03,0 9.09,3.15 3.06,3.06 3.06,7.74 0,4.5 -2.61,8.73 -2.61,4.14 -7.02,5.94 -4.86,2.07 -11.61,2.07 -1.35,0 -2.97,-0.18 z m 13.05,-16.11 q 0,-2.34 -1.17,-3.87 -1.08,-1.62 -2.88,-1.62 -3.33,0 -5.85,4.77 -2.52,4.68 -3.06,11.7 1.71,0 2.88,-0.09 1.26,-0.18 3.33,-0.81 2.07,-0.63 3.33,-1.71 1.35,-1.08 2.34,-3.24 1.08,-2.16 1.08,-5.13 z"
         style="font-style:italic;font-variant:normal;font-weight:bold;font-stretch:normal;font-size:90px;font-family:Overlock;-inkscape-font-specification:'Overlock Bold Italic';text-align:center;text-anchor:middle;fill:#eddcc0;fill-opacity:1"
         id="path7644" />
      <path
         d="m 867.50922,899.23279 q 0,-6.57 -2.43,-11.61 4.05,-2.16 7.11,-2.16 5.76,0 5.76,8.55 0,4.59 -2.07,16.92 -1.98,12.24 -1.98,18 0,8.73 2.79,12.33 5.4,-1.89 10.26,-9.54 4.95,-7.74 7.65,-17.19 2.79,-9.54 2.79,-17.64 0,-5.58 -1.53,-9.54 3.78,-1.89 6.84,-1.89 5.94,0 5.94,7.2 0,10.98 -5.76,25.83 -0.27,3.51 -0.27,6.93 0,11.79 3.33,15.84 5.4,-1.89 10.26,-9.54 4.95,-7.74 7.65,-17.19 2.79,-9.54 2.79,-17.64 0,-5.58 -1.53,-9.54 3.78,-1.89 6.84,-1.89 5.94,0 5.94,7.2 0,4.95 -1.53,11.88 -1.44,6.84 -4.41,14.31 -2.88,7.38 -6.75,13.68 -3.78,6.3 -9.18,10.44 -5.31,4.05 -10.89,4.05 -2.97,0 -5.76,-0.99 -3.96,-4.14 -5.13,-11.07 -8.55,12.06 -18.36,12.06 -2.97,0 -5.76,-0.99 -5.58,-5.94 -5.58,-17.1 0,-5.76 1.44,-14.04 1.53,-8.28 1.53,-15.66 z"
         style="font-style:italic;font-variant:normal;font-weight:bold;font-stretch:normal;font-size:90px;font-family:Overlock;-inkscape-font-specification:'Overlock Bold Italic';text-align:center;text-anchor:middle;fill:#eddcc0;fill-opacity:1"
         id="path7646" />
      <path
         d="m 950.56656,930.01279 q 0.09,5.58 2.16,8.37 2.16,2.7 5.22,2.7 2.52,0 4.95,-1.71 2.43,-1.71 3.96,-4.59 4.32,1.71 4.32,5.31 0,2.79 -4.23,4.86 -4.23,2.07 -9.72,2.07 -3.42,0 -6.48,-0.9 -2.97,-0.99 -5.67,-2.88 -2.61,-1.98 -4.14,-5.4 -1.53,-3.51 -1.53,-8.19 0,-6.57 2.16,-11.88 2.16,-5.4 5.58,-8.55 3.51,-3.24 7.47,-4.95 4.05,-1.71 8.01,-1.71 6.03,0 9.09,3.15 3.06,3.06 3.06,7.74 0,4.5 -2.61,8.73 -2.61,4.14 -7.02,5.94 -4.86,2.07 -11.61,2.07 -1.35,0 -2.97,-0.18 z m 13.05,-16.11 q 0,-2.34 -1.17,-3.87 -1.08,-1.62 -2.88,-1.62 -3.33,0 -5.85,4.77 -2.52,4.68 -3.06,11.7 1.71,0 2.88,-0.09 1.26,-0.18 3.33,-0.81 2.07,-0.63 3.33,-1.71 1.35,-1.08 2.34,-3.24 1.08,-2.16 1.08,-5.13 z"
         style="font-style:italic;font-variant:normal;font-weight:bold;font-stretch:normal;font-size:90px;font-family:Overlock;-inkscape-font-specification:'Overlock Bold Italic';text-align:center;text-anchor:middle;fill:#eddcc0;fill-opacity:1"
         id="path7648" />
      <path
         d="m 1008.6405,906.97279 q 2.16,-14.67 2.16,-17.19 0,-3.42 -2.43,-4.5 0.18,-2.34 2.07,-4.14 1.98,-1.89 4.95,-1.89 2.88,0 4.23,1.71 1.35,1.62 1.35,4.05 0,3.51 -3.51,26.64 -3.51,23.04 -3.51,24.84 0,3.51 3.33,4.95 -1.17,5.58 -6.39,5.58 -2.88,0 -4.59,-2.25 -1.71,-2.25 -1.71,-5.04 0,-1.17 0.09,-2.07 -6.30003,9.36 -13.68003,9.36 -5.13,0 -8.37,-4.14 -3.24,-4.23 -3.24,-12.06 0,-11.16 5.94,-19.62 6.03,-8.55 13.86,-8.55 5.40003,0 9.45003,4.32 z m -3.06,20.7 2.16,-14.85 q -2.52,-2.7 -3.87,-3.51 -1.26,-0.9 -2.79,-0.9 -4.59003,0 -7.65003,5.76 -2.97,5.67 -2.97,14.76 0,4.95 1.44,8.1 1.44,3.15 3.87,3.15 2.16,0 4.95003,-3.51 2.88,-3.6 4.86,-9 z"
         style="font-style:italic;font-variant:normal;font-weight:bold;font-stretch:normal;font-size:90px;font-family:Overlock;-inkscape-font-specification:'Overlock Bold Italic';text-align:center;text-anchor:middle;fill:#eddcc0;fill-opacity:1"
         id="path7650" />
      <path
         d="m 1053.2889,906.97279 q 2.16,-14.67 2.16,-17.19 0,-3.42 -2.43,-4.5 0.18,-2.34 2.07,-4.14 1.98,-1.89 4.95,-1.89 2.88,0 4.23,1.71 1.35,1.62 1.35,4.05 0,3.51 -3.51,26.64 -3.51,23.04 -3.51,24.84 0,3.51 3.33,4.95 -1.17,5.58 -6.39,5.58 -2.88,0 -4.59,-2.25 -1.71,-2.25 -1.71,-5.04 0,-1.17 0.09,-2.07 -6.3,9.36 -13.68,9.36 -5.13,0 -8.37,-4.14 -3.24,-4.23 -3.24,-12.06 0,-11.16 5.94,-19.62 6.03,-8.55 13.86,-8.55 5.4,0 9.45,4.32 z m -3.06,20.7 2.16,-14.85 q -2.52,-2.7 -3.87,-3.51 -1.26,-0.9 -2.79,-0.9 -4.59,0 -7.65,5.76 -2.97,5.67 -2.97,14.76 0,4.95 1.44,8.1 1.44,3.15 3.87,3.15 2.16,0 4.95,-3.51 2.88,-3.6 4.86,-9 z"
         style="font-style:italic;font-variant:normal;font-weight:bold;font-stretch:normal;font-size:90px;font-family:Overlock;-inkscape-font-specification:'Overlock Bold Italic';text-align:center;text-anchor:middle;fill:#eddcc0;fill-opacity:1"
         id="path7652" />
      <path
         d="m 1080.0273,898.33279 q -2.25,0 -3.69,-1.44 -1.35,-1.53 -1.35,-4.05 0,-2.88 1.98,-4.95 1.98,-2.07 4.59,-2.07 2.07,0 3.51,1.71 1.53,1.62 1.53,4.05 0,2.79 -2.16,4.77 -2.07,1.98 -4.41,1.98 z m -5.67,14.85 q 0,-3.42 -2.43,-4.59 0.27,-2.7 2.34,-4.32 2.07,-1.71 4.68,-1.71 2.34,0 3.96,1.44 1.62,1.44 1.62,4.23 0,3.42 -2.52,15.3 -2.43,11.79 -2.43,12.87 0,3.6 3.33,5.04 -0.36,2.34 -2.07,3.96 -1.62,1.62 -4.23,1.62 -3.33,0 -4.95,-2.43 -1.53,-2.43 -1.53,-5.76 0,-4.23 2.07,-13.41 2.16,-9.18 2.16,-12.24 z"
         style="font-style:italic;font-variant:normal;font-weight:bold;font-stretch:normal;font-size:90px;font-family:Overlock;-inkscape-font-specification:'Overlock Bold Italic';text-align:center;text-anchor:middle;fill:#eddcc0;fill-opacity:1"
         id="path7654" />
      <path
         d="m 1103.8253,922.81279 q -1.8,13.5 -1.8,18 0,2.61 0.27,4.86 -3.51,0.81 -5.94,0.81 -4.95,0 -4.95,-3.15 0,-1.17 1.98,-14.22 2.07,-13.14 2.07,-15.66 0,-3.78 -2.52,-4.86 0.36,-2.79 2.43,-4.41 2.07,-1.62 4.59,-1.62 2.34,0 3.96,1.44 1.62,1.44 1.62,4.14 0,1.62 -0.27,3.24 2.61,-4.23 6.3,-6.48 3.78,-2.34 7.2,-2.34 4.41,0 6.75,3.15 2.43,3.15 2.43,8.19 0,1.62 -1.62,10.8 -1.53,9.18 -1.71,11.7 0,3.51 3.33,5.04 -0.36,2.52 -2.34,4.05 -1.89,1.53 -4.23,1.53 -2.7,0 -4.59,-2.07 -1.89,-2.07 -1.89,-6.03 0,-3.78 1.62,-12.78 1.62,-9.09 1.62,-10.8 0,-5.85 -3.6,-5.85 -2.7,0 -5.67,3.78 -2.88,3.69 -5.04,9.54 z"
         style="font-style:italic;font-variant:normal;font-weight:bold;font-stretch:normal;font-size:90px;font-family:Overlock;-inkscape-font-specification:'Overlock Bold Italic';text-align:center;text-anchor:middle;fill:#eddcc0;fill-opacity:1"
         id="path7656" />
      <path
         d="m 1147.8269,937.12279 q 1.62,3.06 3.78,3.06 2.16,0 4.86,-3.42 2.79,-3.42 5.04,-9.18 1.26,-8.28 2.43,-15.3 -3.33,-3.78 -7.29,-3.78 -4.77,0 -7.56,6.03 -2.79,5.94 -2.79,14.4 0,5.13 1.53,8.19 z m 9,-34.65 q 10.08,0 17.37,5.13 -2.16,8.82 -4.41,23.94 -0.27,1.98 -0.72,5.85 -0.45,3.87 -0.81,6.39 -0.27,2.43 -1.08,6.03 -0.72,3.69 -1.71,6.03 -0.99,2.43 -2.79,5.13 -1.71,2.7 -4.05,4.23 -2.25,1.62 -5.67,2.61 -3.33,1.08 -7.56,1.08 -5.31,0 -8.82,-1.89 -3.51,-1.89 -3.51,-4.5 0,-3.6 5.76,-5.85 1.98,6.3 7.29,6.3 12.06,0 13.32,-24.03 -2.61,4.23 -6.12,6.21 -3.42,1.89 -6.48,1.89 -5.76,0 -8.73,-4.68 -2.88,-4.77 -2.88,-11.52 0,-11.43 6.21,-19.89 6.21,-8.46 15.39,-8.46 z"
         style="font-style:italic;font-variant:normal;font-weight:bold;font-stretch:normal;font-size:90px;font-family:Overlock;-inkscape-font-specification:'Overlock Bold Italic';text-align:center;text-anchor:middle;fill:#eddcc0;fill-opacity:1"
         id="path7658" />
      <path
         d="m 928.6368,1059.5228 q -7.92,0 -12.33,-4.59 -4.41,-4.68 -4.41,-12.96 0,-11.34 6.48,-19.08 6.48,-7.83 16.56,-7.83 8.1,0 12.6,4.77 4.59,4.68 4.59,12.96 0,11.25 -6.75,18.99 -6.66,7.74 -16.74,7.74 z m 5.04,-38.52 q -4.95,0 -7.83,5.94 -2.88,5.85 -2.88,13.59 0,5.67 1.89,9.36 1.98,3.69 5.49,3.69 4.86,0 7.74,-5.76 2.88,-5.76 2.88,-13.41 0,-5.85 -1.98,-9.63 -1.89,-3.78 -5.31,-3.78 z"
         style="font-style:italic;font-variant:normal;font-weight:bold;font-stretch:normal;font-size:90px;font-family:Overlock;-inkscape-font-specification:'Overlock Bold Italic';text-align:center;text-anchor:middle;fill:#eddcc0;fill-opacity:1"
         id="path7660" />
      <path
         d="m 987.22258,1006.6928 q -1.62,-5.85 -6.03,-5.85 -3.24,0 -5.13,4.5 -1.8,4.41 -2.25,10.8 6.57,0 12.24,-0.45 0.27,1.17 0.27,2.25 0,4.14 -4.32,4.32 -2.07,0.18 -8.73,0.18 -2.16,22.32 -3.42,31.05 -0.45,3.24 -0.99,5.58 -0.45,2.34 -1.53,5.22 -0.99,2.97 -2.79,4.5 -1.8,1.62 -4.23,1.62 -4.14,0 -6.03,-5.67 6.84,-1.98 9.27,-42.21 -2.7,0.09 -5.58,0.45 -0.18,-1.62 -0.18,-2.07 0,-4.86 5.22,-4.86 l 1.17,0 q 2.07,-21.69001 19.35,-21.69001 4.41,0 7.74,1.53 3.33,1.44 3.33,4.77001 0,2.16 -1.71,4.05 -1.62,1.89 -5.67,1.98 z"
         style="font-style:italic;font-variant:normal;font-weight:bold;font-stretch:normal;font-size:90px;font-family:Overlock;-inkscape-font-specification:'Overlock Bold Italic';text-align:center;text-anchor:middle;fill:#eddcc0;fill-opacity:1"
         id="path7662" />
      <path
         d="m 387.14617,1157.6228 q 5.85,2.16 5.85,5.67 0,3.42 -5.31,6.12 -5.22,2.61 -12.42,2.61 -10.26,0 -16.2,-6.66 -5.85,-6.75 -5.85,-18 0,-16.29 8.64,-26.55 8.64,-10.26 22.32,-10.26 6.21,0 10.26,2.61 4.14,2.52 4.14,6.3 0,2.79 -2.16,4.59 -2.16,1.8 -5.58,2.25 -0.81,-4.41 -3.51,-6.57 -2.7,-2.25 -6.03,-2.25 -7.74,0 -12.69,8.37 -4.95,8.28 -4.95,19.17 0,8.91 3.15,14.49 3.24,5.58 9.36,5.58 6.75,0 10.98,-7.47 z"
         style="font-style:italic;font-variant:normal;font-weight:bold;font-stretch:normal;font-size:90px;font-family:Overlock;-inkscape-font-specification:'Overlock Bold Italic';text-align:center;text-anchor:middle;fill:#eddcc0;fill-opacity:1"
         id="path7664" />
      <path
         d="m 412.81023,1147.8128 q -1.8,13.5 -1.8,18 0,2.61 0.27,4.86 -3.51,0.81 -5.94,0.81 -4.95,0 -4.95,-3.15 0,-3.15 3.78,-26.64 3.87,-23.58 3.87,-26.82 0,-3.33 -2.43,-4.59 0.18,-2.43 2.16,-4.23 1.98,-1.8 4.86,-1.8 2.88,0 4.23,1.71 1.35,1.62 1.35,4.05 0,2.16 -1.26,11.34 -1.26,9.18 -2.16,14.22 2.7,-3.87 6.21,-5.94 3.51,-2.07 6.75,-2.07 4.41,0 6.75,3.15 2.43,3.15 2.43,8.19 0,1.62 -1.62,10.8 -1.53,9.18 -1.71,11.7 0,3.51 3.33,5.04 -0.36,2.52 -2.34,4.05 -1.89,1.53 -4.23,1.53 -2.7,0 -4.59,-2.07 -1.89,-2.07 -1.89,-6.03 0,-3.78 1.62,-12.78 1.62,-9.09 1.62,-10.8 0,-5.85 -3.6,-5.85 -2.7,0 -5.67,3.78 -2.88,3.69 -5.04,9.54 z"
         style="font-style:italic;font-variant:normal;font-weight:bold;font-stretch:normal;font-size:90px;font-family:Overlock;-inkscape-font-specification:'Overlock Bold Italic';text-align:center;text-anchor:middle;fill:#eddcc0;fill-opacity:1"
         id="path7666" />
      <path
         d="m 467.67508,1162.6628 q -6.21,9.36 -13.77,9.36 -5.13,0 -8.37,-4.14 -3.15,-4.14 -3.15,-12.06 0,-11.61 6.21,-19.89 6.3,-8.37 15.39,-8.37 9.9,0 17.55,5.13 -4.41,20.16 -4.41,27.99 0,4.23 3.42,5.76 -0.36,2.07 -2.07,3.87 -1.62,1.71 -4.5,1.71 -2.97,0 -4.68,-2.16 -1.71,-2.16 -1.71,-5.49 0,-1.17 0.09,-1.71 z m 0.99,-10.08 2.43,-15.3 q -3.51,-3.78 -7.2,-3.78 -4.5,0 -7.47,5.76 -2.97,5.67 -2.97,14.67 0,4.86 1.44,8.1 1.53,3.15 3.96,3.15 2.16,0 4.95,-3.51 2.79,-3.6 4.86,-9.09 z"
         style="font-style:italic;font-variant:normal;font-weight:bold;font-stretch:normal;font-size:90px;font-family:Overlock;-inkscape-font-specification:'Overlock Bold Italic';text-align:center;text-anchor:middle;fill:#eddcc0;fill-opacity:1"
         id="path7668" />
      <path
         d="m 512.57242,1136.3828 q -5.31,0 -10.26,7.65 -2.34,15.84 -2.34,21.78 0,2.61 0.27,4.86 -3.51,0.81 -5.94,0.81 -4.95,0 -4.95,-3.15 0,-1.17 1.98,-14.22 2.07,-13.14 2.07,-15.66 0,-3.78 -2.52,-4.86 0.36,-2.79 2.43,-4.41 2.07,-1.62 4.59,-1.62 2.34,0 3.96,1.44 1.62,1.44 1.62,4.14 0,1.53 -0.27,3.15 2.16,-3.51 5.31,-6.12 3.24,-2.61 6.57,-2.61 4.05,0 4.05,4.32 0,3.51 -2.52,6.21 -1.71,-1.71 -4.05,-1.71 z"
         style="font-style:italic;font-variant:normal;font-weight:bold;font-stretch:normal;font-size:90px;font-family:Overlock;-inkscape-font-specification:'Overlock Bold Italic';text-align:center;text-anchor:middle;fill:#eddcc0;fill-opacity:1"
         id="path7670" />
      <path
         d="m 527.00617,1106.0528 q 1.98,-1.8 4.86,-1.8 2.88,0 4.23,1.71 1.35,1.62 1.35,4.05 0,3.33 -3.42,25.92 -3.33,22.5 -3.6,25.38 0,3.78 3.33,5.13 -1.08,5.58 -6.39,5.58 -3.24,0 -4.86,-2.43 -1.53,-2.43 -1.53,-5.76 0,-4.23 2.97,-24.48 3.06,-20.25 3.33,-24.48 0,-3.33 -2.43,-4.59 0.18,-2.43 2.16,-4.23 z"
         style="font-style:italic;font-variant:normal;font-weight:bold;font-stretch:normal;font-size:90px;font-family:Overlock;-inkscape-font-specification:'Overlock Bold Italic';text-align:center;text-anchor:middle;fill:#eddcc0;fill-opacity:1"
         id="path7672" />
      <path
         d="m 551.89258,1131.9728 q 4.14,11.61 5.94,28.26 7.92,-15.12 7.92,-25.38 0,-2.52 -1.08,-5.58 3.15,-1.71 5.58,-1.71 5.76,0 5.76,6.03 0,7.02 -4.68,17.91 -4.59,10.8 -11.16,20.25 -4.86,6.93 -8.55,10.89 -3.6,3.96 -8.64,6.57 -5.04,2.61 -11.07,2.61 -4.41,0 -7.47,-1.44 -3.15,-1.44 -3.15,-3.87 0,-2.97 4.23,-5.49 2.61,4.86 7.47,4.86 8.46,0 17.55,-13.86 -0.36,-11.34 -4.14,-24.3 -3.78,-13.05 -7.38,-16.11 3.42,-4.05 6.75,-4.05 4.59,0 6.12,4.41 z"
         style="font-style:italic;font-variant:normal;font-weight:bold;font-stretch:normal;font-size:90px;font-family:Overlock;-inkscape-font-specification:'Overlock Bold Italic';text-align:center;text-anchor:middle;fill:#eddcc0;fill-opacity:1"
         id="path7674" />
      <path
         d="m 593.79602,1147.8128 q -1.8,13.5 -1.8,18 0,2.61 0.27,4.86 -3.51,0.81 -5.94,0.81 -4.95,0 -4.95,-3.15 0,-1.17 1.98,-14.22 2.07,-13.14 2.07,-15.66 0,-3.78 -2.52,-4.86 0.36,-2.79 2.43,-4.41 2.07,-1.62 4.59,-1.62 2.34,0 3.96,1.44 1.62,1.44 1.62,4.14 0,1.62 -0.27,3.24 2.61,-4.23 6.3,-6.48 3.78,-2.34 7.2,-2.34 4.41,0 6.75,3.15 2.43,3.15 2.43,8.19 0,1.62 -1.62,10.8 -1.53,9.18 -1.71,11.7 0,3.51 3.33,5.04 -0.36,2.52 -2.34,4.05 -1.89,1.53 -4.23,1.53 -2.7,0 -4.59,-2.07 -1.89,-2.07 -1.89,-6.03 0,-3.78 1.62,-12.78 1.62,-9.09 1.62,-10.8 0,-5.85 -3.6,-5.85 -2.7,0 -5.67,3.78 -2.88,3.69 -5.04,9.54 z"
         style="font-style:italic;font-variant:normal;font-weight:bold;font-stretch:normal;font-size:90px;font-family:Overlock;-inkscape-font-specification:'Overlock Bold Italic';text-align:center;text-anchor:middle;fill:#eddcc0;fill-opacity:1"
         id="path7676" />
      <path
         d="m 663.84836,1143.0428 q 5.4,0 8.19,-4.41 2.79,-4.41 2.79,-11.34 0,-5.58 -2.52,-7.65 -2.43,-2.16 -7.02,-2.16 -2.52,0 -4.59,0.36 -0.63,8.19 -2.7,22.95 2.7,2.25 5.85,2.25 z m -16.56,7.29 2.25,-18 q 1.62,-13.95 1.62,-20.7 6.3,-1.08 13.23,-1.08 20.79,0 20.79,16.2 0,10.71 -5.85,17.01 -5.85,6.21 -13.32,6.21 -5.4,0 -8.82,-2.88 -1.8,13.41 -1.8,18.54 0,2.88 0.36,5.04 -2.16,0.72 -5.76,0.72 -5.04,0 -5.04,-3.78 0,-0.81 0.36,-3.6 0.45,-2.88 1.08,-7.02 0.63,-4.23 0.9,-6.66 z"
         style="font-style:italic;font-variant:normal;font-weight:bold;font-stretch:normal;font-size:90px;font-family:Overlock;-inkscape-font-specification:'Overlock Bold Italic';text-align:center;text-anchor:middle;fill:#eddcc0;fill-opacity:1"
         id="path7678" />
      <path
         d="m 699.54883,1123.3328 q -2.25,0 -3.69,-1.44 -1.35,-1.53 -1.35,-4.05 0,-2.88 1.98,-4.95 1.98,-2.07 4.59,-2.07 2.07,0 3.51,1.71 1.53,1.62 1.53,4.05 0,2.79 -2.16,4.77 -2.07,1.98 -4.41,1.98 z m -5.67,14.85 q 0,-3.42 -2.43,-4.59 0.27,-2.7 2.34,-4.32 2.07,-1.71 4.68,-1.71 2.34,0 3.96,1.44 1.62,1.44 1.62,4.23 0,3.42 -2.52,15.3 -2.43,11.79 -2.43,12.87 0,3.6 3.33,5.04 -0.36,2.34 -2.07,3.96 -1.62,1.62 -4.23,1.62 -3.33,0 -4.95,-2.43 -1.53,-2.43 -1.53,-5.76 0,-4.23 2.07,-13.41 2.16,-9.18 2.16,-12.24 z"
         style="font-style:italic;font-variant:normal;font-weight:bold;font-stretch:normal;font-size:90px;font-family:Overlock;-inkscape-font-specification:'Overlock Bold Italic';text-align:center;text-anchor:middle;fill:#eddcc0;fill-opacity:1"
         id="path7680" />
      <path
         d="m 713.7168,1128.5528 3.06,0 q 0.09,-0.54 0.45,-4.14 0.45,-3.6 0.54,-4.86 1.89,-0.63 5.04,-0.63 4.95,0 4.95,3.06 0,0.45 -1.08,6.66 7.65,0 13.5,-0.45 0.27,1.08 0.27,2.16 0,4.23 -4.14,4.5 -2.79,0.09 -10.62,0.09 -3.24,20.88 -3.24,24.21 0,3.96 1.35,5.31 1.35,1.35 4.23,1.35 2.88,0 5.4,-2.7 2.34,1.62 2.34,4.14 0,4.77 -10.53,4.77 -5.22,0 -8.73,-2.79 -3.51,-2.79 -3.51,-9.36 0,-1.98 0.45,-5.94 0.54,-3.96 1.44,-9.99 0.9,-6.03 1.26,-9 -1.53,0 -7.47,0.54 -0.18,-1.26 -0.18,-1.89 0,-5.04 5.22,-5.04 z"
         style="font-style:italic;font-variant:normal;font-weight:bold;font-stretch:normal;font-size:90px;font-family:Overlock;-inkscape-font-specification:'Overlock Bold Italic';text-align:center;text-anchor:middle;fill:#eddcc0;fill-opacity:1"
         id="path7682" />
      <path
         d="m 744.6543,1128.5528 3.06,0 q 0.09,-0.54 0.45,-4.14 0.45,-3.6 0.54,-4.86 1.89,-0.63 5.04,-0.63 4.95,0 4.95,3.06 0,0.45 -1.08,6.66 7.65,0 13.5,-0.45 0.27,1.08 0.27,2.16 0,4.23 -4.14,4.5 -2.79,0.09 -10.62,0.09 -3.24,20.88 -3.24,24.21 0,3.96 1.35,5.31 1.35,1.35 4.23,1.35 2.88,0 5.4,-2.7 2.34,1.62 2.34,4.14 0,4.77 -10.53,4.77 -5.22,0 -8.73,-2.79 -3.51,-2.79 -3.51,-9.36 0,-1.98 0.45,-5.94 0.54,-3.96 1.44,-9.99 0.9,-6.03 1.26,-9 -1.53,0 -7.47,0.54 -0.18,-1.26 -0.18,-1.89 0,-5.04 5.22,-5.04 z"
         style="font-style:italic;font-variant:normal;font-weight:bold;font-stretch:normal;font-size:90px;font-family:Overlock;-inkscape-font-specification:'Overlock Bold Italic';text-align:center;text-anchor:middle;fill:#eddcc0;fill-opacity:1"
         id="path7684" />
      <path
         d="m 794.6718,1140.0728 q -0.9,-3.15 -2.61,-4.68 -1.62,-1.53 -3.6,-1.53 -2.43,0 -4.5,1.98 -2.07,1.98 -2.07,4.68 0,2.43 1.8,3.78 1.89,1.35 4.5,2.07 2.61,0.72 5.22,1.71 2.61,0.99 4.41,3.51 1.89,2.52 1.89,6.57 0,6.84 -4.95,10.35 -4.86,3.51 -12.69,3.51 -5.31,0 -9.09,-1.98 -3.69,-1.98 -3.69,-5.31 0,-4.59 5.4,-5.67 0.81,3.06 3.06,4.77 2.25,1.71 4.95,1.71 3.78,0 6.03,-1.62 2.34,-1.71 2.34,-3.96 0,-2.34 -1.89,-3.69 -1.8,-1.35 -4.41,-2.16 -2.61,-0.81 -5.31,-1.89 -2.61,-1.08 -4.5,-3.6 -1.8,-2.52 -1.8,-6.48 0,-7.29 4.95,-10.98 4.95,-3.69 12.06,-3.69 3.96,0 7.56,1.98 3.6,1.89 3.6,5.31 0,4.59 -6.66,5.31 z"
         style="font-style:italic;font-variant:normal;font-weight:bold;font-stretch:normal;font-size:90px;font-family:Overlock;-inkscape-font-specification:'Overlock Bold Italic';text-align:center;text-anchor:middle;fill:#eddcc0;fill-opacity:1"
         id="path7686" />
      <path
         d="m 848.24148,1162.6628 q -6.21,9.36 -13.77,9.36 -5.13,0 -8.37,-4.14 -3.15,-4.14 -3.15,-12.06 0,-11.61 6.21,-19.89 6.3,-8.37 15.39,-8.37 9.9,0 17.55,5.13 -4.41,20.16 -4.41,27.99 0,4.23 3.42,5.76 -0.36,2.07 -2.07,3.87 -1.62,1.71 -4.5,1.71 -2.97,0 -4.68,-2.16 -1.71,-2.16 -1.71,-5.49 0,-1.17 0.09,-1.71 z m 0.99,-10.08 2.43,-15.3 q -3.51,-3.78 -7.2,-3.78 -4.5,0 -7.47,5.76 -2.97,5.67 -2.97,14.67 0,4.86 1.44,8.1 1.53,3.15 3.96,3.15 2.16,0 4.95,-3.51 2.79,-3.6 4.86,-9.09 z"
         style="font-style:italic;font-variant:normal;font-weight:bold;font-stretch:normal;font-size:90px;font-family:Overlock;-inkscape-font-specification:'Overlock Bold Italic';text-align:center;text-anchor:middle;fill:#eddcc0;fill-opacity:1"
         id="path7688" />
      <path
         d="m 882.42883,1147.8128 q -1.8,13.5 -1.8,18 0,2.61 0.27,4.86 -3.51,0.81 -5.94,0.81 -4.95,0 -4.95,-3.15 0,-1.17 1.98,-14.22 2.07,-13.14 2.07,-15.66 0,-3.78 -2.52,-4.86 0.36,-2.79 2.43,-4.41 2.07,-1.62 4.59,-1.62 2.34,0 3.96,1.44 1.62,1.44 1.62,4.14 0,1.62 -0.27,3.24 2.61,-4.23 6.3,-6.48 3.78,-2.34 7.2,-2.34 4.41,0 6.75,3.15 2.43,3.15 2.43,8.19 0,1.62 -1.62,10.8 -1.53,9.18 -1.71,11.7 0,3.51 3.33,5.04 -0.36,2.52 -2.34,4.05 -1.89,1.53 -4.23,1.53 -2.7,0 -4.59,-2.07 -1.89,-2.07 -1.89,-6.03 0,-3.78 1.62,-12.78 1.62,-9.09 1.62,-10.8 0,-5.85 -3.6,-5.85 -2.7,0 -5.67,3.78 -2.88,3.69 -5.04,9.54 z"
         style="font-style:italic;font-variant:normal;font-weight:bold;font-stretch:normal;font-size:90px;font-family:Overlock;-inkscape-font-specification:'Overlock Bold Italic';text-align:center;text-anchor:middle;fill:#eddcc0;fill-opacity:1"
         id="path7690" />
      <path
         d="m 942.81039,1131.9728 q 2.16,-14.67 2.16,-17.19 0,-3.42 -2.43,-4.5 0.18,-2.34 2.07,-4.14 1.98,-1.89 4.95,-1.89 2.88,0 4.23,1.71 1.35,1.62 1.35,4.05 0,3.51 -3.51,26.64 -3.51,23.04 -3.51,24.84 0,3.51 3.33,4.95 -1.17,5.58 -6.39,5.58 -2.88,0 -4.59,-2.25 -1.71,-2.25 -1.71,-5.04 0,-1.17 0.09,-2.07 -6.3,9.36 -13.68,9.36 -5.13,0 -8.37,-4.14 -3.24,-4.23 -3.24,-12.06 0,-11.16 5.94,-19.62 6.03,-8.55 13.86,-8.55 5.4,0 9.45,4.32 z m -3.06,20.7 2.16,-14.85 q -2.52,-2.7 -3.87,-3.51 -1.26,-0.9 -2.79,-0.9 -4.59,0 -7.65,5.76 -2.97,5.67 -2.97,14.76 0,4.95 1.44,8.1 1.44,3.15 3.87,3.15 2.16,0 4.95,-3.51 2.88,-3.6 4.86,-9 z"
         style="font-style:italic;font-variant:normal;font-weight:bold;font-stretch:normal;font-size:90px;font-family:Overlock;-inkscape-font-specification:'Overlock Bold Italic';text-align:center;text-anchor:middle;fill:#eddcc0;fill-opacity:1"
         id="path7692" />
      <path
         d="m 979.24633,1181.8328 q -3.51,0 -3.51,-4.23 0,-1.8 0.27,-2.88 2.7,-0.27 4.59,-1.17 1.89,-0.81 3.06,-1.98 1.17,-1.08 1.89,-3.42 0.81,-2.34 1.17,-4.32 0.45,-2.07 0.99,-6.03 l 3.6,-25.92 q 1.71,-12.15 2.25,-20.43 2.43,-0.27 4.68,-0.27 5.48997,0 5.48997,3.69 0,0.9 -0.54,3.42 -0.45,2.43 -1.26,6.75 -0.81,4.23 -1.35,8.19 l -3.86997,27.63 q -0.81,6.03 -3.24,10.53 -2.43,4.5 -5.31,6.57 -2.88,2.07 -5.13,2.97 -2.25,0.9 -3.78,0.9 z"
         style="font-style:italic;font-variant:normal;font-weight:bold;font-stretch:normal;font-size:90px;font-family:Overlock;-inkscape-font-specification:'Overlock Bold Italic';text-align:center;text-anchor:middle;fill:#eddcc0;fill-opacity:1"
         id="path7694" />
      <path
         d="m 1018.6818,1155.0128 q 0.09,5.58 2.16,8.37 2.16,2.7 5.22,2.7 2.52,0 4.95,-1.71 2.43,-1.71 3.96,-4.59 4.32,1.71 4.32,5.31 0,2.79 -4.23,4.86 -4.23,2.07 -9.72,2.07 -3.42,0 -6.48,-0.9 -2.97,-0.99 -5.67,-2.88 -2.61,-1.98 -4.14,-5.4 -1.53,-3.51 -1.53,-8.19 0,-6.57 2.16,-11.88 2.16,-5.4 5.58,-8.55 3.51,-3.24 7.47,-4.95 4.05,-1.71 8.01,-1.71 6.03,0 9.09,3.15 3.06,3.06 3.06,7.74 0,4.5 -2.61,8.73 -2.61,4.14 -7.02,5.94 -4.86,2.07 -11.61,2.07 -1.35,0 -2.97,-0.18 z m 13.05,-16.11 q 0,-2.34 -1.17,-3.87 -1.08,-1.62 -2.88,-1.62 -3.33,0 -5.85,4.77 -2.52,4.68 -3.06,11.7 1.71,0 2.88,-0.09 1.26,-0.18 3.33,-0.81 2.07,-0.63 3.33,-1.71 1.35,-1.08 2.34,-3.24 1.08,-2.16 1.08,-5.13 z"
         style="font-style:italic;font-variant:normal;font-weight:bold;font-stretch:normal;font-size:90px;font-family:Overlock;-inkscape-font-specification:'Overlock Bold Italic';text-align:center;text-anchor:middle;fill:#eddcc0;fill-opacity:1"
         id="path7696" />
      <path
         d="m 1078.8046,1119.1928 q -1.62,-5.85 -6.03,-5.85 -3.24,0 -5.13,4.5 -1.8,4.41 -2.25,10.8 6.57,0 12.24,-0.45 0.27,1.17 0.27,2.25 0,4.14 -4.32,4.32 -2.07,0.18 -8.73,0.18 -2.16,22.32 -3.42,31.05 -0.45,3.24 -0.99,5.58 -0.45,2.34 -1.53,5.22 -0.99,2.97 -2.79,4.5 -1.8,1.62 -4.23,1.62 -4.14,0 -6.03,-5.67 6.84,-1.98 9.27,-42.21 -2.7,0.09 -5.58,0.45 -0.18,-1.62 -0.18,-2.07 0,-4.86 5.22,-4.86 l 1.17,0 q 2.07,-21.69 19.35,-21.69 4.41,0 7.74,1.53 3.33,1.44 3.33,4.77 0,2.16 -1.71,4.05 -1.62,1.89 -5.67,1.98 z"
         style="font-style:italic;font-variant:normal;font-weight:bold;font-stretch:normal;font-size:90px;font-family:Overlock;-inkscape-font-specification:'Overlock Bold Italic';text-align:center;text-anchor:middle;fill:#eddcc0;fill-opacity:1"
         id="path7698" />
      <path
         d="m 1111.4999,1119.1928 q -1.62,-5.85 -6.03,-5.85 -3.24,0 -5.13,4.5 -1.8,4.41 -2.25,10.8 6.57,0 12.24,-0.45 0.27,1.17 0.27,2.25 0,4.14 -4.32,4.32 -2.07,0.18 -8.73,0.18 -2.16,22.32 -3.42,31.05 -0.45,3.24 -0.99,5.58 -0.45,2.34 -1.53,5.22 -0.99,2.97 -2.79,4.5 -1.8,1.62 -4.23,1.62 -4.14,0 -6.03,-5.67 6.84,-1.98 9.27,-42.21 -2.7,0.09 -5.58,0.45 -0.18,-1.62 -0.18,-2.07 0,-4.86 5.22,-4.86 l 1.17,0 q 2.07,-21.69 19.35,-21.69 4.41,0 7.74,1.53 3.33,1.44 3.33,4.77 0,2.16 -1.71,4.05 -1.62,1.89 -5.67,1.98 z"
         style="font-style:italic;font-variant:normal;font-weight:bold;font-stretch:normal;font-size:90px;font-family:Overlock;-inkscape-font-specification:'Overlock Bold Italic';text-align:center;text-anchor:middle;fill:#eddcc0;fill-opacity:1"
         id="path7700" />
      <path
         d="m 1136.9474,1136.3828 q -5.31,0 -10.26,7.65 -2.34,15.84 -2.34,21.78 0,2.61 0.27,4.86 -3.51,0.81 -5.94,0.81 -4.95,0 -4.95,-3.15 0,-1.17 1.98,-14.22 2.07,-13.14 2.07,-15.66 0,-3.78 -2.52,-4.86 0.36,-2.79 2.43,-4.41 2.07,-1.62 4.59,-1.62 2.34,0 3.96,1.44 1.62,1.44 1.62,4.14 0,1.53 -0.27,3.15 2.16,-3.51 5.31,-6.12 3.24,-2.61 6.57,-2.61 4.05,0 4.05,4.32 0,3.51 -2.52,6.21 -1.71,-1.71 -4.05,-1.71 z"
         style="font-style:italic;font-variant:normal;font-weight:bold;font-stretch:normal;font-size:90px;font-family:Overlock;-inkscape-font-specification:'Overlock Bold Italic';text-align:center;text-anchor:middle;fill:#eddcc0;fill-opacity:1"
         id="path7702" />
      <path
         d="m 1153.506,1155.0128 q 0.09,5.58 2.16,8.37 2.16,2.7 5.22,2.7 2.52,0 4.95,-1.71 2.43,-1.71 3.96,-4.59 4.32,1.71 4.32,5.31 0,2.79 -4.23,4.86 -4.23,2.07 -9.72,2.07 -3.42,0 -6.48,-0.9 -2.97,-0.99 -5.67,-2.88 -2.61,-1.98 -4.14,-5.4 -1.53,-3.51 -1.53,-8.19 0,-6.57 2.16,-11.88 2.16,-5.4 5.58,-8.55 3.51,-3.24 7.47,-4.95 4.05,-1.71 8.01,-1.71 6.03,0 9.09,3.15 3.06,3.06 3.06,7.74 0,4.5 -2.61,8.73 -2.61,4.14 -7.02,5.94 -4.86,2.07 -11.61,2.07 -1.35,0 -2.97,-0.18 z m 13.05,-16.11 q 0,-2.34 -1.17,-3.87 -1.08,-1.62 -2.88,-1.62 -3.33,0 -5.85,4.77 -2.52,4.68 -3.06,11.7 1.71,0 2.88,-0.09 1.26,-0.18 3.33,-0.81 2.07,-0.63 3.33,-1.71 1.35,-1.08 2.34,-3.24 1.08,-2.16 1.08,-5.13 z"
         style="font-style:italic;font-variant:normal;font-weight:bold;font-stretch:normal;font-size:90px;font-family:Overlock;-inkscape-font-specification:'Overlock Bold Italic';text-align:center;text-anchor:middle;fill:#eddcc0;fill-opacity:1"
         id="path7704" />
      <path
         d="m 1193.6699,1131.9728 q 4.14,11.61 5.94,28.26 7.92,-15.12 7.92,-25.38 0,-2.52 -1.08,-5.58 3.15,-1.71 5.58,-1.71 5.76,0 5.76,6.03 0,7.02 -4.68,17.91 -4.59,10.8 -11.16,20.25 -4.86,6.93 -8.55,10.89 -3.6,3.96 -8.64,6.57 -5.04,2.61 -11.07,2.61 -4.41,0 -7.47,-1.44 -3.15,-1.44 -3.15,-3.87 0,-2.97 4.23,-5.49 2.61,4.86 7.47,4.86 8.46,0 17.55,-13.86 -0.36,-11.34 -4.14,-24.3 -3.78,-13.05 -7.38,-16.11 3.42,-4.05 6.75,-4.05 4.59,0 6.12,4.41 z"
         style="font-style:italic;font-variant:normal;font-weight:bold;font-stretch:normal;font-size:90px;font-family:Overlock;-inkscape-font-specification:'Overlock Bold Italic';text-align:center;text-anchor:middle;fill:#eddcc0;fill-opacity:1"
         id="path7706" />
      <path
         d="m 1279.8041,1111.4528 q 2.52,-0.27 4.77,-0.27 5.4,0 5.4,3.87 0,0.45 -0.45,2.7 -0.36,2.25 -1.17,7.02 -0.72,4.77 -1.35,9.99 l -2.34,18.09 q -1.08,7.92 -1.08,12.33 0,3.06 0.36,5.49 -3.15,0.72 -5.4,0.72 -5.31,0 -5.31,-4.68 0,-0.54 0.27,-2.79 0.36,-2.34 1.17,-8.55 0.9,-6.3 1.8,-13.32 -3.42,0.18 -9.81,0.18 -6.03,0 -12.51,-0.18 l -1.35,10.8 q -1.08,7.92 -1.08,12.33 0,3.06 0.36,5.49 -3.15,0.72 -5.4,0.72 -5.31,0 -5.31,-4.68 0,-0.63 0.36,-3.69 0.45,-3.06 1.62,-11.7 1.26,-8.73 2.52,-18.99 1.71,-13.5 2.07,-20.88 2.61,-0.27 4.77,-0.27 5.4,0 5.4,3.87 0,0.45 -0.45,2.79 -0.36,2.25 -1.17,7.2 -0.72,4.86 -1.44,10.26 9,0.18 12.24,0.18 3.96,0 10.08,-0.18 2.16,-16.65 2.43,-23.85 z"
         style="font-style:italic;font-variant:normal;font-weight:bold;font-stretch:normal;font-size:90px;font-family:Overlock;-inkscape-font-specification:'Overlock Bold Italic';text-align:center;text-anchor:middle;fill:#eddcc0;fill-opacity:1"
         id="path7708" />
      <path
         d="m 1304.9395,1123.3328 q -2.25,0 -3.69,-1.44 -1.35,-1.53 -1.35,-4.05 0,-2.88 1.98,-4.95 1.98,-2.07 4.59,-2.07 2.07,0 3.51,1.71 1.53,1.62 1.53,4.05 0,2.79 -2.16,4.77 -2.07,1.98 -4.41,1.98 z m -5.67,14.85 q 0,-3.42 -2.43,-4.59 0.27,-2.7 2.34,-4.32 2.07,-1.71 4.68,-1.71 2.34,0 3.96,1.44 1.62,1.44 1.62,4.23 0,3.42 -2.52,15.3 -2.43,11.79 -2.43,12.87 0,3.6 3.33,5.04 -0.36,2.34 -2.07,3.96 -1.62,1.62 -4.23,1.62 -3.33,0 -4.95,-2.43 -1.53,-2.43 -1.53,-5.76 0,-4.23 2.07,-13.41 2.16,-9.18 2.16,-12.24 z"
         style="font-style:italic;font-variant:normal;font-weight:bold;font-stretch:normal;font-size:90px;font-family:Overlock;-inkscape-font-specification:'Overlock Bold Italic';text-align:center;text-anchor:middle;fill:#eddcc0;fill-opacity:1"
         id="path7710" />
      <path
         d="m 1319.1074,1128.5528 3.06,0 q 0.09,-0.54 0.45,-4.14 0.45,-3.6 0.54,-4.86 1.89,-0.63 5.04,-0.63 4.95,0 4.95,3.06 0,0.45 -1.08,6.66 7.65,0 13.5,-0.45 0.27,1.08 0.27,2.16 0,4.23 -4.14,4.5 -2.79,0.09 -10.62,0.09 -3.24,20.88 -3.24,24.21 0,3.96 1.35,5.31 1.35,1.35 4.23,1.35 2.88,0 5.4,-2.7 2.34,1.62 2.34,4.14 0,4.77 -10.53,4.77 -5.22,0 -8.73,-2.79 -3.51,-2.79 -3.51,-9.36 0,-1.98 0.45,-5.94 0.54,-3.96 1.44,-9.99 0.9,-6.03 1.26,-9 -1.53,0 -7.47,0.54 -0.18,-1.26 -0.18,-1.89 0,-5.04 5.22,-5.04 z"
         style="font-style:italic;font-variant:normal;font-weight:bold;font-stretch:normal;font-size:90px;font-family:Overlock;-inkscape-font-specification:'Overlock Bold Italic';text-align:center;text-anchor:middle;fill:#eddcc0;fill-opacity:1"
         id="path7712" />
      <path
         d="m 1373.8049,1140.7928 q -1.89,-6.84 -6.57,-6.84 -4.68,0 -7.56,5.85 -2.88,5.76 -2.88,13.77 0,6.3 2.07,9.45 2.07,3.06 5.4,3.06 5.4,0 8.91,-6.3 4.32,1.71 4.32,5.31 0,2.79 -4.32,4.86 -4.32,2.07 -9.63,2.07 -8.19,0 -13.05,-4.59 -4.77,-4.59 -4.77,-12.51 0,-6.66 2.07,-12.06 2.07,-5.4 5.49,-8.64 3.42,-3.24 7.38,-4.95 3.96,-1.71 8.1,-1.71 4.5,0 8.46,1.89 3.96,1.8 3.96,5.4 0,2.16 -1.71,4.05 -1.71,1.8 -5.67,1.89 z"
         style="font-style:italic;font-variant:normal;font-weight:bold;font-stretch:normal;font-size:90px;font-family:Overlock;-inkscape-font-specification:'Overlock Bold Italic';text-align:center;text-anchor:middle;fill:#eddcc0;fill-opacity:1"
         id="path7714" />
      <path
         d="m 1397.7126,1147.8128 q -1.8,13.5 -1.8,18 0,2.61 0.27,4.86 -3.51,0.81 -5.94,0.81 -4.95,0 -4.95,-3.15 0,-3.15 3.78,-26.64 3.87,-23.58 3.87,-26.82 0,-3.33 -2.43,-4.59 0.18,-2.43 2.16,-4.23 1.98,-1.8 4.86,-1.8 2.88,0 4.23,1.71 1.35,1.62 1.35,4.05 0,2.16 -1.26,11.34 -1.26,9.18 -2.16,14.22 2.7,-3.87 6.21,-5.94 3.51,-2.07 6.75,-2.07 4.41,0 6.75,3.15 2.43,3.15 2.43,8.19 0,1.62 -1.62,10.8 -1.53,9.18 -1.71,11.7 0,3.51 3.33,5.04 -0.36,2.52 -2.34,4.05 -1.89,1.53 -4.23,1.53 -2.7,0 -4.59,-2.07 -1.89,-2.07 -1.89,-6.03 0,-3.78 1.62,-12.78 1.62,-9.09 1.62,-10.8 0,-5.85 -3.6,-5.85 -2.7,0 -5.67,3.78 -2.88,3.69 -5.04,9.54 z"
         style="font-style:italic;font-variant:normal;font-weight:bold;font-stretch:normal;font-size:90px;font-family:Overlock;-inkscape-font-specification:'Overlock Bold Italic';text-align:center;text-anchor:middle;fill:#eddcc0;fill-opacity:1"
         id="path7716" />
      <path
         d="m 1439.3263,1155.0128 q 0.09,5.58 2.16,8.37 2.16,2.7 5.22,2.7 2.52,0 4.95,-1.71 2.43,-1.71 3.96,-4.59 4.32,1.71 4.32,5.31 0,2.79 -4.23,4.86 -4.23,2.07 -9.72,2.07 -3.42,0 -6.48,-0.9 -2.97,-0.99 -5.67,-2.88 -2.61,-1.98 -4.14,-5.4 -1.53,-3.51 -1.53,-8.19 0,-6.57 2.16,-11.88 2.16,-5.4 5.58,-8.55 3.51,-3.24 7.47,-4.95 4.05,-1.71 8.01,-1.71 6.03,0 9.09,3.15 3.06,3.06 3.06,7.74 0,4.5 -2.61,8.73 -2.61,4.14 -7.02,5.94 -4.86,2.07 -11.61,2.07 -1.35,0 -2.97,-0.18 z m 13.05,-16.11 q 0,-2.34 -1.17,-3.87 -1.08,-1.62 -2.88,-1.62 -3.33,0 -5.85,4.77 -2.52,4.68 -3.06,11.7 1.71,0 2.88,-0.09 1.26,-0.18 3.33,-0.81 2.07,-0.63 3.33,-1.71 1.35,-1.08 2.34,-3.24 1.08,-2.16 1.08,-5.13 z"
         style="font-style:italic;font-variant:normal;font-weight:bold;font-stretch:normal;font-size:90px;font-family:Overlock;-inkscape-font-specification:'Overlock Bold Italic';text-align:center;text-anchor:middle;fill:#eddcc0;fill-opacity:1"
         id="path7718" />
      <path
         d="m 1482.3702,1147.8128 q -1.8,13.5 -1.8,18 0,2.61 0.27,4.86 -3.51,0.81 -5.94,0.81 -4.95,0 -4.95,-3.15 0,-1.17 1.98,-14.22 2.07,-13.14 2.07,-15.66 0,-3.78 -2.52,-4.86 0.36,-2.79 2.43,-4.41 2.07,-1.62 4.59,-1.62 2.34,0 3.96,1.44 1.62,1.44 1.62,4.14 0,1.62 -0.27,3.24 2.61,-4.23 6.3,-6.48 3.78,-2.34 7.2,-2.34 4.41,0 6.75,3.15 2.43,3.15 2.43,8.19 0,1.62 -1.62,10.8 -1.53,9.18 -1.71,11.7 0,3.51 3.33,5.04 -0.36,2.52 -2.34,4.05 -1.89,1.53 -4.23,1.53 -2.7,0 -4.59,-2.07 -1.89,-2.07 -1.89,-6.03 0,-3.78 1.62,-12.78 1.62,-9.09 1.62,-10.8 0,-5.85 -3.6,-5.85 -2.7,0 -5.67,3.78 -2.88,3.69 -5.04,9.54 z"
         style="font-style:italic;font-variant:normal;font-weight:bold;font-stretch:normal;font-size:90px;font-family:Overlock;-inkscape-font-specification:'Overlock Bold Italic';text-align:center;text-anchor:middle;fill:#eddcc0;fill-opacity:1"
         id="path7720" />
      <path
         d="m 1537.1718,1140.0728 q -0.9,-3.15 -2.61,-4.68 -1.62,-1.53 -3.6,-1.53 -2.43,0 -4.5,1.98 -2.07,1.98 -2.07,4.68 0,2.43 1.8,3.78 1.89,1.35 4.5,2.07 2.61,0.72 5.22,1.71 2.61,0.99 4.41,3.51 1.89,2.52 1.89,6.57 0,6.84 -4.95,10.35 -4.86,3.51 -12.69,3.51 -5.31,0 -9.09,-1.98 -3.69,-1.98 -3.69,-5.31 0,-4.59 5.4,-5.67 0.81,3.06 3.06,4.77 2.25,1.71 4.95,1.71 3.78,0 6.03,-1.62 2.34,-1.71 2.34,-3.96 0,-2.34 -1.89,-3.69 -1.8,-1.35 -4.41,-2.16 -2.61,-0.81 -5.31,-1.89 -2.61,-1.08 -4.5,-3.6 -1.8,-2.52 -1.8,-6.48 0,-7.29 4.95,-10.98 4.95,-3.69 12.06,-3.69 3.96,0 7.56,1.98 3.6,1.89 3.6,5.31 0,4.59 -6.66,5.31 z"
         style="font-style:italic;font-variant:normal;font-weight:bold;font-stretch:normal;font-size:90px;font-family:Overlock;-inkscape-font-specification:'Overlock Bold Italic';text-align:center;text-anchor:middle;fill:#eddcc0;fill-opacity:1"
         id="path7722" />
    </g>
  </g>
</svg>
