<?xml version="1.0" encoding="UTF-8" standalone="no"?>
<!-- Created with Inkscape (http://www.inkscape.org/) -->

<svg
   xmlns:dc="http://purl.org/dc/elements/1.1/"
   xmlns:cc="http://creativecommons.org/ns#"
   xmlns:rdf="http://www.w3.org/1999/02/22-rdf-syntax-ns#"
   xmlns:svg="http://www.w3.org/2000/svg"
   xmlns="http://www.w3.org/2000/svg"
   xmlns:sodipodi="http://sodipodi.sourceforge.net/DTD/sodipodi-0.dtd"
   xmlns:inkscape="http://www.inkscape.org/namespaces/inkscape"
   width="1.8in"
   height="0.69999999in"
   viewBox="0 0 161.99999 62.999999"
   id="svg2"
   version="1.1"
   inkscape:version="0.91 r13725"
   sodipodi:docname="nav_wd.svg">
  <defs
     id="defs4" />
  <sodipodi:namedview
     id="base"
     pagecolor="#ffffff"
     bordercolor="#666666"
     borderopacity="1.0"
     inkscape:pageopacity="0.0"
     inkscape:pageshadow="2"
     inkscape:zoom="2.8"
     inkscape:cx="94.510657"
     inkscape:cy="53.791054"
     inkscape:document-units="px"
     inkscape:current-layer="layer1"
     showgrid="true"
     borderlayer="true"
     units="in"
     inkscape:window-width="1121"
     inkscape:window-height="677"
     inkscape:window-x="93"
     inkscape:window-y="105"
     inkscape:window-maximized="0"
     showguides="false">
    <inkscape:grid
       type="xygrid"
       id="grid4382" />
  </sodipodi:namedview>
  <metadata
     id="metadata7">
    <rdf:RDF>
      <cc:Work
         rdf:about="">
        <dc:format>image/svg+xml</dc:format>
        <dc:type
           rdf:resource="http://purl.org/dc/dcmitype/StillImage" />
        <dc:title></dc:title>
      </cc:Work>
    </rdf:RDF>
  </metadata>
  <g
     inkscape:label="Layer 1"
     inkscape:groupmode="layer"
     id="layer1"
     transform="translate(0,-989.3622)">
    <g
       transform="translate(23.428564,1066.2193)"
       style="font-style:normal;font-weight:normal;font-size:40px;line-height:125%;font-family:sans-serif;letter-spacing:0px;word-spacing:0px;fill:#3e033d;fill-opacity:1;stroke:none;stroke-width:1px;stroke-linecap:butt;stroke-linejoin:miter;stroke-opacity:1"
       id="flowRoot4371">
      <path
         d="m 13.234844,-60.294992 q -1.04,0.04 -4.8400002,0.04 -0.6800001,3.88 -1.1200001,7.4 l -1.04,8.04 q -0.48,3.52 -0.48,5.48 0,1.36 0.16,2.44 -0.96,0.32 -2.4799999,0.32 -2.32,0 -2.32,-1.68 0,-0.28 0.2,-1.72 0.1999999,-1.48 0.72,-5.44 0.56,-4 1.1199999,-8.52 0.4800001,-3.8 0.6800001,-6.32 -4.12000005,0 -6.3600001,0.16 -0.04,-0.28 -0.04,-0.72 0,-1.2 0.44,-1.72 0.44,-0.52 1.47999995,-0.56 1,-0.04 4.16000005,-0.04 l 4.2399999,0 q 5.9600003,0 7.3200003,-0.12 0.08,0.48 0.08,0.96 0,1 -0.44,1.48 -0.44,0.44 -1.48,0.52 z"
         style="font-style:italic;font-variant:normal;font-weight:bold;font-stretch:normal;font-size:40px;font-family:Overlock;-inkscape-font-specification:'Overlock Bold Italic';fill:#3e033d;fill-opacity:1"
         id="path4422" />
      <path
         d="m 19.587969,-47.054992 q -0.8,6 -0.8,8 0,1.16 0.12,2.16 -1.56,0.36 -2.64,0.36 -2.2,0 -2.2,-1.4 0,-1.4 1.68,-11.84 1.72,-10.48 1.72,-11.92 0,-1.48 -1.08,-2.04 0.08,-1.08 0.96,-1.88 0.88,-0.8 2.16,-0.8 1.28,0 1.88,0.76 0.6,0.72 0.6,1.8 0,0.96 -0.56,5.04 -0.56,4.08 -0.96,6.32 1.2,-1.72 2.76,-2.64 1.56,-0.92 3,-0.92 1.96,0 3,1.4 1.08,1.4 1.08,3.64 0,0.72 -0.72,4.8 -0.68,4.08 -0.76,5.2 0,1.56 1.48,2.24 -0.16,1.12 -1.04,1.8 -0.84,0.68 -1.88,0.68 -1.2,0 -2.04,-0.92 -0.84,-0.92 -0.84,-2.68 0,-1.68 0.72,-5.68 0.72,-4.04 0.72,-4.8 0,-2.6 -1.6,-2.6 -1.2,0 -2.52,1.68 -1.28,1.64 -2.24,4.24 z"
         style="font-style:italic;font-variant:normal;font-weight:bold;font-stretch:normal;font-size:40px;font-family:Overlock;-inkscape-font-specification:'Overlock Bold Italic';fill:#3e033d;fill-opacity:1"
         id="path4424" />
      <path
         d="m 38.082969,-43.854992 q 0.04,2.48 0.96,3.72 0.96,1.2 2.32,1.2 1.12,0 2.2,-0.76 1.08,-0.76 1.76,-2.04 1.92,0.76 1.92,2.36 0,1.24 -1.88,2.16 -1.88,0.92 -4.32,0.92 -1.52,0 -2.88,-0.4 -1.32,-0.44 -2.52,-1.28 -1.16,-0.88 -1.84,-2.4 -0.68,-1.56 -0.68,-3.64 0,-2.92 0.96,-5.28 0.96,-2.4 2.48,-3.8 1.56,-1.44 3.32,-2.2 1.8,-0.76 3.56,-0.76 2.68,0 4.04,1.4 1.36,1.36 1.36,3.44 0,2 -1.16,3.88 -1.16,1.84 -3.12,2.64 -2.16,0.92 -5.16,0.92 -0.6,0 -1.32,-0.08 z m 5.8,-7.16 q 0,-1.04 -0.52,-1.72 -0.48,-0.72 -1.28,-0.72 -1.48,0 -2.6,2.12 -1.12,2.08 -1.36,5.2 0.76,0 1.28,-0.04 0.56,-0.08 1.48,-0.36 0.92,-0.28 1.48,-0.76 0.6,-0.48 1.04,-1.44 0.48,-0.96 0.48,-2.28 z"
         style="font-style:italic;font-variant:normal;font-weight:bold;font-stretch:normal;font-size:40px;font-family:Overlock;-inkscape-font-specification:'Overlock Bold Italic';fill:#3e033d;fill-opacity:1"
         id="path4426" />
      <path
         d="m 59.431719,-38.814992 q 1.16,-5.32 2.12,-12.24 0.96,-6.92 1.08,-12.08 2.28,-0.48 5.96,-0.48 12.12,0 12.12,10.76 0,4.32 -1.56,8.04 -1.52,3.68 -4.72,6.12 -3.16,2.4 -7.36,2.4 -5.12,0 -7.64,-2.52 z m 7.44,-21.56 q -0.84,10.12 -2.8,19.56 1.44,1.44 3.88,1.44 2.2,0 3.84,-1.2 1.64,-1.24 2.52,-3.2 0.88,-1.96 1.28,-4 0.44,-2.04 0.44,-4.08 0,-4.32 -1.88,-6.48 -1.84,-2.2 -5.28,-2.2 -0.72,0 -2,0.16 z"
         style="font-style:italic;font-variant:normal;font-weight:bold;font-stretch:normal;font-size:40px;font-family:Overlock;-inkscape-font-specification:'Overlock Bold Italic';fill:#3e033d;fill-opacity:1"
         id="path4428" />
      <path
         d="m 93.737969,-40.454992 q -2.76,4.16 -6.12,4.16 -2.28,0 -3.72,-1.84 -1.4,-1.84 -1.4,-5.36 0,-5.16 2.76,-8.84 2.8,-3.72 6.84,-3.72 4.4,0 7.8,2.28 -1.96,8.96 -1.96,12.44 0,1.88 1.52,2.56 -0.16,0.92 -0.92,1.72 -0.72,0.76 -2,0.76 -1.32,0 -2.08,-0.96 -0.76,-0.96 -0.76,-2.44 0,-0.52 0.04,-0.76 z m 0.44,-4.48 1.08,-6.8 q -1.56,-1.68 -3.2,-1.68 -2,0 -3.32,2.56 -1.32,2.52 -1.32,6.52 0,2.16 0.64,3.6 0.68,1.4 1.76,1.4 0.96,0 2.2,-1.56 1.24,-1.6 2.16,-4.04 z"
         style="font-style:italic;font-variant:normal;font-weight:bold;font-stretch:normal;font-size:40px;font-family:Overlock;-inkscape-font-specification:'Overlock Bold Italic';fill:#3e033d;fill-opacity:1"
         id="path4430" />
      <path
         d="m 107.65234,-54.094992 q 1.84,5.16 2.64,12.56 3.52,-6.72 3.52,-11.28 0,-1.12 -0.48,-2.48 1.4,-0.76 2.48,-0.76 2.56,0 2.56,2.68 0,3.12 -2.08,7.96 -2.04,4.8 -4.96,9 -2.16,3.08 -3.8,4.84 -1.6,1.76 -3.84,2.92 -2.24,1.16 -4.919996,1.16 -1.96,0 -3.32,-0.64 -1.4,-0.64 -1.4,-1.72 0,-1.32 1.88,-2.44 1.16,2.16 3.32,2.16 3.759996,0 7.799996,-6.16 -0.16,-5.04 -1.84,-10.8 -1.68,-5.8 -3.28,-7.16 1.52,-1.8 3,-1.8 2.04,0 2.72,1.96 z"
         style="font-style:italic;font-variant:normal;font-weight:bold;font-stretch:normal;font-size:40px;font-family:Overlock;-inkscape-font-specification:'Overlock Bold Italic';fill:#3e033d;fill-opacity:1"
         id="path4432" />
    </g>
    <flowRoot
       transform="translate(7.428564,1010.1479)"
       style="font-style:normal;font-weight:normal;font-size:40px;line-height:125%;font-family:sans-serif;letter-spacing:0px;word-spacing:0px;fill:#3e033d;fill-opacity:1;stroke:none;stroke-width:1px;stroke-linecap:butt;stroke-linejoin:miter;stroke-opacity:1"
       id="flowRoot4396"
       xml:space="preserve"><flowRegion
         id="flowRegion4398"><rect
           style="fill:#3e033d;fill-opacity:1"
           y="-76.285713"
           x="-4.2857141"
           height="81.428574"
           width="243.57143"
           id="rect4400" /></flowRegion><flowPara
         style="font-style:italic;font-variant:normal;font-weight:bold;font-stretch:normal;font-size:40px;font-family:Overlock;-inkscape-font-specification:'Overlock Bold Italic';fill:#3e033d;fill-opacity:1"
         id="flowPara4402">Our Story</flowPara></flowRoot>  </g>
</svg>
