<?xml version="1.0" encoding="UTF-8" standalone="no"?>
<!-- Created with Inkscape (http://www.inkscape.org/) -->

<svg
   xmlns:dc="http://purl.org/dc/elements/1.1/"
   xmlns:cc="http://creativecommons.org/ns#"
   xmlns:rdf="http://www.w3.org/1999/02/22-rdf-syntax-ns#"
   xmlns:svg="http://www.w3.org/2000/svg"
   xmlns="http://www.w3.org/2000/svg"
   xmlns:sodipodi="http://sodipodi.sourceforge.net/DTD/sodipodi-0.dtd"
   xmlns:inkscape="http://www.inkscape.org/namespaces/inkscape"
   width="1.8in"
   height="0.69999999in"
   viewBox="0 0 161.99999 62.999999"
   id="svg2"
   version="1.1"
   inkscape:version="0.91 r13725"
   sodipodi:docname="nav_r.svg">
  <defs
     id="defs4" />
  <sodipodi:namedview
     id="base"
     pagecolor="#ffffff"
     bordercolor="#666666"
     borderopacity="1.0"
     inkscape:pageopacity="0.0"
     inkscape:pageshadow="2"
     inkscape:zoom="2.8"
     inkscape:cx="94.510657"
     inkscape:cy="53.791054"
     inkscape:document-units="px"
     inkscape:current-layer="layer1"
     showgrid="true"
     borderlayer="true"
     units="in"
     inkscape:window-width="1121"
     inkscape:window-height="677"
     inkscape:window-x="93"
     inkscape:window-y="105"
     inkscape:window-maximized="0"
     showguides="false">
    <inkscape:grid
       type="xygrid"
       id="grid4382" />
  </sodipodi:namedview>
  <metadata
     id="metadata7">
    <rdf:RDF>
      <cc:Work
         rdf:about="">
        <dc:format>image/svg+xml</dc:format>
        <dc:type
           rdf:resource="http://purl.org/dc/dcmitype/StillImage" />
        <dc:title></dc:title>
      </cc:Work>
    </rdf:RDF>
  </metadata>
  <g
     inkscape:label="Layer 1"
     inkscape:groupmode="layer"
     id="layer1"
     transform="translate(0,-989.3622)">
    <g
       transform="translate(19.428564,1066.2193)"
       style="font-style:normal;font-weight:normal;font-size:40px;line-height:125%;font-family:sans-serif;letter-spacing:0px;word-spacing:0px;fill:#3e033d;fill-opacity:1;stroke:none;stroke-width:1px;stroke-linecap:butt;stroke-linejoin:miter;stroke-opacity:1"
       id="flowRoot4371">
      <path
         d="m 10.754844,-43.734992 q 1,2.12 1.72,3.16 0.72,1.04 2.44,1.04 0.8,0 1.12,-0.12 0.16,0.72 0.16,1.28 0,2.08 -3.16,2.08 -2.72,0 -4.0000002,-2.28 -1.84,-3.24 -3.88,-8.96 -0.6800001,-0.24 -0.6800001,-0.92 0,-0.8 0.6800001,-1.6 0.3199999,0.16 0.8799999,0.16 1.4,0 2.6400001,-0.68 2.6000002,-1.48 2.6000002,-5.68 0,-2.56 -1,-3.4 -0.9600002,-0.88 -3.1200002,-0.88 -1.32,0 -2.16,0.16 -0.2000001,3.52 -0.6800001,6.96 l -1.1999999,8.8 q -0.48,3.52 -0.48,5.52 0,1.24 0.16,2.2 -0.9600001,0.32 -2.56000005,0.32 -2.23999995,0 -2.23999995,-1.68 0,-0.4 0.1599999,-1.64 0.2000001,-1.28 0.4800001,-3.12 0.28,-1.84 0.39999995,-2.92 l 1,-8 q 0.72,-5.84 0.72,-9.2 2.79999995,-0.48 5.92000005,-0.48 3.9600002,0 6.5600002,1.6 2.64,1.6 2.64,5.32 0,3.48 -1.88,5.96 -1.88,2.48 -4.8400002,3.16 0.6,1.72 1.6000002,3.84 z"
         style="font-style:italic;font-variant:normal;font-weight:bold;font-stretch:normal;font-size:40px;font-family:Overlock;-inkscape-font-specification:'Overlock Bold Italic';fill:#3e033d;fill-opacity:1"
         id="path4471" />
      <path
         d="m 23.004844,-43.854992 q 0.04,2.48 0.96,3.72 0.96,1.2 2.32,1.2 1.12,0 2.2,-0.76 1.08,-0.76 1.76,-2.04 1.92,0.76 1.92,2.36 0,1.24 -1.88,2.16 -1.88,0.92 -4.32,0.92 -1.52,0 -2.88,-0.4 -1.32,-0.44 -2.52,-1.28 -1.16,-0.88 -1.84,-2.4 -0.68,-1.56 -0.68,-3.64 0,-2.92 0.96,-5.28 0.96,-2.4 2.48,-3.8 1.56,-1.44 3.32,-2.2 1.8,-0.76 3.56,-0.76 2.68,0 4.04,1.4 1.36,1.36 1.36,3.44 0,2 -1.16,3.88 -1.16,1.84 -3.12,2.64 -2.16,0.92 -5.16,0.92 -0.6,0 -1.32,-0.08 z m 5.8,-7.16 q 0,-1.04 -0.52,-1.72 -0.48,-0.72 -1.28,-0.72 -1.48,0 -2.6,2.12 -1.12,2.08 -1.36,5.2 0.76,0 1.28,-0.04 0.56,-0.08 1.48,-0.36 0.92,-0.28 1.48,-0.76 0.6,-0.48 1.04,-1.44 0.48,-0.96 0.48,-2.28 z"
         style="font-style:italic;font-variant:normal;font-weight:bold;font-stretch:normal;font-size:40px;font-family:Overlock;-inkscape-font-specification:'Overlock Bold Italic';fill:#3e033d;fill-opacity:1"
         id="path4473" />
      <path
         d="m 41.535469,-40.694992 q 0.72,1.36 1.68,1.36 0.96,0 2.16,-1.52 1.24,-1.52 2.24,-4.08 0.56,-3.68 1.08,-6.8 -1.48,-1.68 -3.24,-1.68 -2.12,0 -3.36,2.68 -1.24,2.64 -1.24,6.4 0,2.28 0.68,3.64 z m 4,-15.4 q 4.48,0 7.72,2.28 -0.96,3.92 -1.96,10.64 -0.12,0.88 -0.32,2.6 -0.2,1.72 -0.36,2.84 -0.12,1.08 -0.48,2.68 -0.32,1.64 -0.76,2.68 -0.44,1.08 -1.24,2.28 -0.76,1.2 -1.8,1.88 -1,0.72 -2.52,1.16 -1.48,0.48 -3.36,0.48 -2.36,0 -3.92,-0.84 -1.56,-0.84 -1.56,-2 0,-1.6 2.56,-2.6 0.88,2.8 3.24,2.8 5.36,0 5.92,-10.68 -1.16,1.88 -2.72,2.76 -1.52,0.84 -2.88,0.84 -2.56,0 -3.88,-2.08 -1.28,-2.12 -1.28,-5.12 0,-5.08 2.76,-8.84 2.76,-3.76 6.84,-3.76 z"
         style="font-style:italic;font-variant:normal;font-weight:bold;font-stretch:normal;font-size:40px;font-family:Overlock;-inkscape-font-specification:'Overlock Bold Italic';fill:#3e033d;fill-opacity:1"
         id="path4475" />
      <path
         d="m 60.230469,-57.934992 q -1,0 -1.64,-0.64 -0.6,-0.68 -0.6,-1.8 0,-1.28 0.88,-2.2 0.88,-0.92 2.04,-0.92 0.92,0 1.56,0.76 0.68,0.72 0.68,1.8 0,1.24 -0.96,2.12 -0.92,0.88 -1.96,0.88 z m -2.52,6.6 q 0,-1.52 -1.08,-2.04 0.12,-1.2 1.04,-1.92 0.92,-0.76 2.08,-0.76 1.04,0 1.76,0.64 0.72,0.64 0.72,1.88 0,1.52 -1.12,6.8 -1.08,5.24 -1.08,5.72 0,1.6 1.48,2.24 -0.16,1.04 -0.92,1.76 -0.72,0.72 -1.88,0.72 -1.48,0 -2.2,-1.08 -0.68,-1.08 -0.68,-2.56 0,-1.88 0.92,-5.96 0.96,-4.08 0.96,-5.44 z"
         style="font-style:italic;font-variant:normal;font-weight:bold;font-stretch:normal;font-size:40px;font-family:Overlock;-inkscape-font-specification:'Overlock Bold Italic';fill:#3e033d;fill-opacity:1"
         id="path4477" />
      <path
         d="m 75.007344,-50.494992 q -0.4,-1.4 -1.16,-2.08 -0.72,-0.68 -1.6,-0.68 -1.08,0 -2,0.88 -0.92,0.88 -0.92,2.08 0,1.08 0.8,1.68 0.84,0.6 2,0.92 1.16,0.32 2.32,0.76 1.16,0.44 1.96,1.56 0.84,1.12 0.84,2.92 0,3.04 -2.2,4.6 -2.16,1.56 -5.64,1.56 -2.36,0 -4.04,-0.88 -1.64,-0.88 -1.64,-2.36 0,-2.04 2.4,-2.52 0.36,1.36 1.36,2.12 1,0.76 2.2,0.76 1.68,0 2.68,-0.72 1.04,-0.76 1.04,-1.76 0,-1.04 -0.84,-1.64 -0.8,-0.6 -1.96,-0.96 -1.16,-0.36 -2.36,-0.84 -1.16,-0.48 -2,-1.6 -0.8,-1.12 -0.8,-2.88 0,-3.24 2.2,-4.88 2.2,-1.64 5.36,-1.64 1.76,0 3.36,0.88 1.6,0.84 1.6,2.36 0,2.04 -2.96,2.36 z"
         style="font-style:italic;font-variant:normal;font-weight:bold;font-stretch:normal;font-size:40px;font-family:Overlock;-inkscape-font-specification:'Overlock Bold Italic';fill:#3e033d;fill-opacity:1"
         id="path4479" />
      <path
         d="m 81.917969,-55.614992 1.36,0 q 0.04,-0.24 0.2,-1.84 0.2,-1.6 0.24,-2.16 0.84,-0.28 2.24,-0.28 2.2,0 2.2,1.36 0,0.2 -0.48,2.96 3.4,0 6,-0.2 0.12,0.48 0.12,0.96 0,1.88 -1.84,2 -1.24,0.04 -4.72,0.04 -1.44,9.28 -1.44,10.76 0,1.76 0.6,2.36 0.6,0.6 1.88,0.6 1.28,0 2.4,-1.2 1.04,0.72 1.04,1.84 0,2.12 -4.68,2.12 -2.32,0 -3.88,-1.24 -1.56,-1.24 -1.56,-4.16 0,-0.88 0.2,-2.64 0.24,-1.76 0.64,-4.44 0.4,-2.68 0.56,-4 -0.68,0 -3.32,0.24 -0.08,-0.56 -0.08,-0.84 0,-2.24 2.32,-2.24 z"
         style="font-style:italic;font-variant:normal;font-weight:bold;font-stretch:normal;font-size:40px;font-family:Overlock;-inkscape-font-specification:'Overlock Bold Italic';fill:#3e033d;fill-opacity:1"
         id="path4481" />
      <path
         d="m 104.70797,-52.134992 q -2.36,0 -4.56,3.4 -1.040001,7.04 -1.040001,9.68 0,1.16 0.12,2.16 -1.56,0.36 -2.64,0.36 -2.2,0 -2.2,-1.4 0,-0.52 0.88,-6.32 0.92,-5.84 0.92,-6.96 0,-1.68 -1.12,-2.16 0.16,-1.24 1.08,-1.96 0.92,-0.72 2.04,-0.72 1.04,0 1.76,0.64 0.720001,0.64 0.720001,1.84 0,0.68 -0.12,1.4 0.96,-1.56 2.36,-2.72 1.44,-1.16 2.92,-1.16 1.8,0 1.8,1.92 0,1.56 -1.12,2.76 -0.76,-0.76 -1.8,-0.76 z"
         style="font-style:italic;font-variant:normal;font-weight:bold;font-stretch:normal;font-size:40px;font-family:Overlock;-inkscape-font-specification:'Overlock Bold Italic';fill:#3e033d;fill-opacity:1"
         id="path4483" />
      <path
         d="m 113.04297,-54.094992 q 1.84,5.16 2.64,12.56 3.52,-6.72 3.52,-11.28 0,-1.12 -0.48,-2.48 1.4,-0.76 2.48,-0.76 2.56,0 2.56,2.68 0,3.12 -2.08,7.96 -2.04,4.8 -4.96,9 -2.16,3.08 -3.8,4.84 -1.6,1.76 -3.84,2.92 -2.24,1.16 -4.92,1.16 -1.96,0 -3.32,-0.64 -1.400001,-0.64 -1.400001,-1.72 0,-1.32 1.880001,-2.44 1.16,2.16 3.32,2.16 3.76,0 7.8,-6.16 -0.16,-5.04 -1.84,-10.8 -1.68,-5.8 -3.28,-7.16 1.52,-1.8 3,-1.8 2.04,0 2.72,1.96 z"
         style="font-style:italic;font-variant:normal;font-weight:bold;font-stretch:normal;font-size:40px;font-family:Overlock;-inkscape-font-specification:'Overlock Bold Italic';fill:#3e033d;fill-opacity:1"
         id="path4485" />
    </g>
    <flowRoot
       transform="translate(7.428564,1010.1479)"
       style="font-style:normal;font-weight:normal;font-size:40px;line-height:125%;font-family:sans-serif;letter-spacing:0px;word-spacing:0px;fill:#3e033d;fill-opacity:1;stroke:none;stroke-width:1px;stroke-linecap:butt;stroke-linejoin:miter;stroke-opacity:1"
       id="flowRoot4396"
       xml:space="preserve"><flowRegion
         id="flowRegion4398"><rect
           style="fill:#3e033d;fill-opacity:1"
           y="-76.285713"
           x="-4.2857141"
           height="81.428574"
           width="243.57143"
           id="rect4400" /></flowRegion><flowPara
         style="font-style:italic;font-variant:normal;font-weight:bold;font-stretch:normal;font-size:40px;font-family:Overlock;-inkscape-font-specification:'Overlock Bold Italic';fill:#3e033d;fill-opacity:1"
         id="flowPara4402">Our Story</flowPara></flowRoot>  </g>
</svg>
