<?xml version="1.0" encoding="UTF-8" standalone="no"?>
<!-- Created with Inkscape (http://www.inkscape.org/) -->

<svg
   xmlns:dc="http://purl.org/dc/elements/1.1/"
   xmlns:cc="http://creativecommons.org/ns#"
   xmlns:rdf="http://www.w3.org/1999/02/22-rdf-syntax-ns#"
   xmlns:svg="http://www.w3.org/2000/svg"
   xmlns="http://www.w3.org/2000/svg"
   xmlns:sodipodi="http://sodipodi.sourceforge.net/DTD/sodipodi-0.dtd"
   xmlns:inkscape="http://www.inkscape.org/namespaces/inkscape"
   width="1.8in"
   height="0.69999999in"
   viewBox="0 0 161.99999 62.999999"
   id="svg2"
   version="1.1"
   inkscape:version="0.91 r13725"
   sodipodi:docname="nav_rsvp.svg">
  <defs
     id="defs4" />
  <sodipodi:namedview
     id="base"
     pagecolor="#ffffff"
     bordercolor="#666666"
     borderopacity="1.0"
     inkscape:pageopacity="0.0"
     inkscape:pageshadow="2"
     inkscape:zoom="2.8"
     inkscape:cx="94.510657"
     inkscape:cy="53.791054"
     inkscape:document-units="px"
     inkscape:current-layer="layer1"
     showgrid="true"
     borderlayer="true"
     units="in"
     inkscape:window-width="1121"
     inkscape:window-height="677"
     inkscape:window-x="93"
     inkscape:window-y="105"
     inkscape:window-maximized="0"
     showguides="false">
    <inkscape:grid
       type="xygrid"
       id="grid4382" />
  </sodipodi:namedview>
  <metadata
     id="metadata7">
    <rdf:RDF>
      <cc:Work
         rdf:about="">
        <dc:format>image/svg+xml</dc:format>
        <dc:type
           rdf:resource="http://purl.org/dc/dcmitype/StillImage" />
        <dc:title></dc:title>
      </cc:Work>
    </rdf:RDF>
  </metadata>
  <g
     inkscape:label="Layer 1"
     inkscape:groupmode="layer"
     id="layer1"
     transform="translate(0,-989.3622)">
    <g
       transform="translate(41.428564,1066.2193)"
       style="font-style:normal;font-weight:normal;font-size:40px;line-height:125%;font-family:sans-serif;letter-spacing:0px;word-spacing:0px;fill:#3e033d;fill-opacity:1;stroke:none;stroke-width:1px;stroke-linecap:butt;stroke-linejoin:miter;stroke-opacity:1"
       id="flowRoot4371">
      <path
         d="m 10.754844,-43.734992 q 1,2.12 1.72,3.16 0.72,1.04 2.44,1.04 0.8,0 1.12,-0.12 0.16,0.72 0.16,1.28 0,2.08 -3.16,2.08 -2.72,0 -4.0000002,-2.28 -1.84,-3.24 -3.88,-8.96 -0.6800001,-0.24 -0.6800001,-0.92 0,-0.8 0.6800001,-1.6 0.3199999,0.16 0.8799999,0.16 1.4,0 2.6400001,-0.68 2.6000002,-1.48 2.6000002,-5.68 0,-2.56 -1,-3.4 -0.9600002,-0.88 -3.1200002,-0.88 -1.32,0 -2.16,0.16 -0.2000001,3.52 -0.6800001,6.96 l -1.1999999,8.8 q -0.48,3.52 -0.48,5.52 0,1.24 0.16,2.2 -0.9600001,0.32 -2.56000005,0.32 -2.23999995,0 -2.23999995,-1.68 0,-0.4 0.1599999,-1.64 0.2000001,-1.28 0.4800001,-3.12 0.28,-1.84 0.39999995,-2.92 l 1,-8 q 0.72,-5.84 0.72,-9.2 2.79999995,-0.48 5.92000005,-0.48 3.9600002,0 6.5600002,1.6 2.64,1.6 2.64,5.32 0,3.48 -1.88,5.96 -1.88,2.48 -4.8400002,3.16 0.6,1.72 1.6000002,3.84 z"
         style="font-style:italic;font-variant:normal;font-weight:bold;font-stretch:normal;font-size:40px;font-family:Overlock;-inkscape-font-specification:'Overlock Bold Italic';fill:#3e033d;fill-opacity:1"
         id="path4552" />
      <path
         d="m 33.124844,-57.614992 q -0.36,-1.12 -1.52,-1.92 -1.16,-0.8 -2.48,-0.8 -1.88,0 -3.24,1.2 -1.32,1.2 -1.32,3.4 0,1.4 0.92,2.16 0.92,0.76 2.68,1.4 0.24,0.08 1.24,0.44 1.04,0.36 1.4,0.52 0.36,0.16 1.16,0.6 0.84,0.4 1.16,0.8 0.36,0.36 0.8,0.96 0.48,0.6 0.64,1.36 0.2,0.76 0.2,1.72 0,4.48 -2.68,7 -2.64,2.48 -7.08,2.48 -2.8,0 -4.96,-1 -2.12,-1.04 -2.12,-2.44 0,-1.88 2.56,-2.84 0.44,1.32 1.88,2.24 1.48,0.92 3,0.92 2.08,0 3.64,-1.32 1.56,-1.36 1.56,-3.76 0,-1.48 -0.96,-2.2 -0.96,-0.72 -2.8,-1.28 -1.28,-0.36 -1.88,-0.56 -0.56,-0.2 -1.64,-0.76 -1.08,-0.6 -1.6,-1.2 -0.48,-0.64 -0.92,-1.76 -0.44,-1.12 -0.44,-2.56 0,-4.08 2.68,-6.4 2.72,-2.32 6.8,-2.32 2.32,0 4.32,0.88 2,0.88 2,2.44 0,0.96 -0.76,1.72 -0.72,0.72 -2.24,0.88 z"
         style="font-style:italic;font-variant:normal;font-weight:bold;font-stretch:normal;font-size:40px;font-family:Overlock;-inkscape-font-specification:'Overlock Bold Italic';fill:#3e033d;fill-opacity:1"
         id="path4554" />
      <path
         d="m 41.246719,-57.534992 q 0,-2.92 -1.08,-5.16 1.8,-0.96 3.16,-0.96 2.56,0 2.56,3.8 0,2.04 -0.92,7.52 -0.88,5.44 -0.88,8 0,3.88 1.24,5.48 2.52,-0.84 4.76,-4.24 2.28,-3.44 3.56,-7.64 1.28,-4.24 1.28,-7.84 0,-2.48 -0.68,-4.24 1.68,-0.84 3.04,-0.84 2.64,0 2.64,3.2 0,2.2 -0.68,5.28 -0.64,3.04 -2,6.36 -1.32,3.28 -3.08,6.08 -1.72,2.8 -4.16,4.64 -2.4,1.8 -4.96,1.8 -1.4,0 -2.64,-0.44 -2.48,-2.64 -2.48,-7.6 0,-2.56 0.64,-6.24 0.68,-3.68 0.68,-6.96 z"
         style="font-style:italic;font-variant:normal;font-weight:bold;font-stretch:normal;font-size:40px;font-family:Overlock;-inkscape-font-specification:'Overlock Bold Italic';fill:#3e033d;fill-opacity:1"
         id="path4556" />
      <path
         d="m 70.222969,-49.174992 q 2.4,0 3.64,-1.96 1.24,-1.96 1.24,-5.04 0,-2.48 -1.12,-3.4 -1.08,-0.96 -3.12,-0.96 -1.12,0 -2.04,0.16 -0.28,3.64 -1.2,10.2 1.2,1 2.6,1 z m -7.36,3.24 1,-8 q 0.72,-6.2 0.72,-9.2 2.8,-0.48 5.88,-0.48 9.24,0 9.24,7.2 0,4.76 -2.6,7.56 -2.6,2.76 -5.92,2.76 -2.4,0 -3.92,-1.28 -0.8,5.96 -0.8,8.24 0,1.28 0.16,2.24 -0.96,0.32 -2.56,0.32 -2.24,0 -2.24,-1.68 0,-0.36 0.16,-1.6 0.2,-1.28 0.48,-3.12 0.28,-1.88 0.4,-2.96 z"
         style="font-style:italic;font-variant:normal;font-weight:bold;font-stretch:normal;font-size:40px;font-family:Overlock;-inkscape-font-specification:'Overlock Bold Italic';fill:#3e033d;fill-opacity:1"
         id="path4558" />
    </g>
    <flowRoot
       transform="translate(7.428564,1010.1479)"
       style="font-style:normal;font-weight:normal;font-size:40px;line-height:125%;font-family:sans-serif;letter-spacing:0px;word-spacing:0px;fill:#3e033d;fill-opacity:1;stroke:none;stroke-width:1px;stroke-linecap:butt;stroke-linejoin:miter;stroke-opacity:1"
       id="flowRoot4396"
       xml:space="preserve"><flowRegion
         id="flowRegion4398"><rect
           style="fill:#3e033d;fill-opacity:1"
           y="-76.285713"
           x="-4.2857141"
           height="81.428574"
           width="243.57143"
           id="rect4400" /></flowRegion><flowPara
         style="font-style:italic;font-variant:normal;font-weight:bold;font-stretch:normal;font-size:40px;font-family:Overlock;-inkscape-font-specification:'Overlock Bold Italic';fill:#3e033d;fill-opacity:1"
         id="flowPara4402">Our Story</flowPara></flowRoot>  </g>
</svg>
