<?xml version="1.0" encoding="UTF-8" standalone="no"?>
<!-- Created with Inkscape (http://www.inkscape.org/) -->

<svg
   xmlns:dc="http://purl.org/dc/elements/1.1/"
   xmlns:cc="http://creativecommons.org/ns#"
   xmlns:rdf="http://www.w3.org/1999/02/22-rdf-syntax-ns#"
   xmlns:svg="http://www.w3.org/2000/svg"
   xmlns="http://www.w3.org/2000/svg"
   xmlns:sodipodi="http://sodipodi.sourceforge.net/DTD/sodipodi-0.dtd"
   xmlns:inkscape="http://www.inkscape.org/namespaces/inkscape"
   width="2in"
   height="0.69999999in"
   viewBox="0 0 179.99999 62.999999"
   id="svg2"
   version="1.1"
   inkscape:version="0.91 r13725"
   sodipodi:docname="nex.svg">
  <defs
     id="defs4" />
  <sodipodi:namedview
     id="base"
     pagecolor="#ffffff"
     bordercolor="#666666"
     borderopacity="1.0"
     inkscape:pageopacity="0.0"
     inkscape:pageshadow="2"
     inkscape:zoom="3.959798"
     inkscape:cx="93.247966"
     inkscape:cy="7.4676156"
     inkscape:document-units="px"
     inkscape:current-layer="layer1"
     showgrid="true"
     borderlayer="true"
     units="in"
     inkscape:window-width="1218"
     inkscape:window-height="758"
     inkscape:window-x="24"
     inkscape:window-y="0"
     inkscape:window-maximized="0"
     showguides="false">
    <inkscape:grid
       type="xygrid"
       id="grid4382" />
  </sodipodi:namedview>
  <metadata
     id="metadata7">
    <rdf:RDF>
      <cc:Work
         rdf:about="">
        <dc:format>image/svg+xml</dc:format>
        <dc:type
           rdf:resource="http://purl.org/dc/dcmitype/StillImage" />
        <dc:title></dc:title>
      </cc:Work>
    </rdf:RDF>
  </metadata>
  <g
     inkscape:label="Layer 1"
     inkscape:groupmode="layer"
     id="layer1"
     transform="translate(0,-989.3622)">
    <g
       transform="translate(56.113835,1068.2193)"
       style="font-style:normal;font-weight:normal;font-size:40px;line-height:125%;font-family:sans-serif;letter-spacing:0px;word-spacing:0px;fill:#3e033d;fill-opacity:1;stroke:none;stroke-width:1px;stroke-linecap:butt;stroke-linejoin:miter;stroke-opacity:1"
       id="flowRoot4371">
      <path
         d="m 15.714844,-36.734992 q -0.8,0.16 -1.8,0.16 -2,0 -2.44,-1.08 -1.36,-3.12 -3.9600003,-9.72 -2.5999999,-6.64 -3.48,-8.84 -0.1999999,1.44 -0.64,4.8 -0.4399999,3.36 -0.6799999,5.2 -0.2,1.84 -0.44,4 -0.2,2.12 -0.2,3.16 0,0.8 0.16,2.16 -0.96,0.32 -2.00000005,0.32 -1.27999995,0 -1.75999995,-0.36 -0.48,-0.36 -0.48,-1.16 0,-0.36 0.1599999,-1.64 0.2000001,-1.28 0.4400001,-3.16 0.28,-1.88 0.43999995,-3.04 0.28,-2.2 0.64,-4.96 0.36,-2.76 0.52,-4.16 0.2,-1.4 0.32,-2.96 0.16,-1.6 0.16,-2.84 0,-1.28 -0.16,-2.2 0.99999995,-0.32 2.39999995,-0.32 1.6800001,0 2.48,1.16 1.4000001,2.08 3.5600001,7.04 2.2000002,4.96 4.0000002,10.04 l 1.04,-8.8 q 0.76,-6.36 0.92,-9.28 0.84,-0.12 1.72,-0.12 2.28,0 2.28,1.36 0,0.28 -0.24,1.6 -0.24,1.28 -0.6,3.48 -0.32,2.16 -0.56,4.04 -0.24,1.96 -0.72,5.68 -0.48,3.68 -0.72,6.04 -0.24,2.32 -0.36,4.4 z"
         style="font-style:italic;font-variant:normal;font-weight:bold;font-stretch:normal;font-size:40px;font-family:Overlock;-inkscape-font-specification:'Overlock Bold Italic';fill:#3e033d;fill-opacity:1"
         id="path4688" />
      <path
         d="m 25.582969,-43.854992 q 0.04,2.48 0.96,3.72 0.96,1.2 2.32,1.2 1.12,0 2.2,-0.76 1.08,-0.76 1.76,-2.04 1.92,0.76 1.92,2.36 0,1.24 -1.88,2.16 -1.88,0.92 -4.32,0.92 -1.52,0 -2.88,-0.4 -1.32,-0.44 -2.52,-1.28 -1.16,-0.88 -1.84,-2.4 -0.68,-1.56 -0.68,-3.64 0,-2.92 0.96,-5.28 0.96,-2.4 2.48,-3.8 1.56,-1.44 3.32,-2.2 1.8,-0.76 3.56,-0.76 2.68,0 4.04,1.4 1.36,1.36 1.36,3.44 0,2 -1.16,3.88 -1.16,1.84 -3.12,2.64 -2.16,0.92 -5.16,0.92 -0.6,0 -1.32,-0.08 z m 5.8,-7.16 q 0,-1.04 -0.52,-1.72 -0.48,-0.72 -1.28,-0.72 -1.48,0 -2.6,2.12 -1.12,2.08 -1.36,5.2 0.76,0 1.28,-0.04 0.56,-0.08 1.48,-0.36 0.92,-0.28 1.48,-0.76 0.6,-0.48 1.04,-1.44 0.48,-0.96 0.48,-2.28 z"
         style="font-style:italic;font-variant:normal;font-weight:bold;font-stretch:normal;font-size:40px;font-family:Overlock;-inkscape-font-specification:'Overlock Bold Italic';fill:#3e033d;fill-opacity:1"
         id="path4690" />
      <path
         d="m 48.153594,-46.334992 q 0.28,0.56 0.84,1.92 0.56,1.32 0.84,1.88 0.28,0.52 0.8,1.28 0.52,0.76 1.08,1.08 0.6,0.28 1.36,0.28 0.16,0.72 0.16,1.16 0,1.04 -0.88,1.76 -0.88,0.68 -2.12,0.68 -2.48,0 -5.16,-6.8 -3.44,4.56 -3.72,6.6 -0.6,0.12 -1.12,0.12 -1.08,0 -1.72,-0.44 -0.64,-0.44 -0.64,-1.2 0,-0.84 0.76,-2 1.48,-2.16 5.36,-5.92 -0.16,-0.4 -0.48,-1.16 -0.28,-0.76 -0.44,-1.12 -0.16,-0.36 -0.44,-1 -0.28,-0.64 -0.48,-0.92 -0.16,-0.32 -0.44,-0.76 -0.28,-0.48 -0.52,-0.68 -0.24,-0.2 -0.56,-0.44 -0.32,-0.24 -0.68,-0.32 -0.36,-0.12 -0.76,-0.12 -0.16,-0.72 -0.16,-1.16 0,-1.04 0.88,-1.72 0.88,-0.72 2.12,-0.72 1.4,0 2.72,2 1.36,2 2.2,4.6 2.28,-4.04 2.6,-6.44 0.68,-0.16 1.44,-0.16 2.36,0 2.36,1.84 0,0.8 -0.68,2.04 -0.68,1.2 -1.28,2 -0.6,0.76 -1.88,2.24 -1.24,1.48 -1.36,1.6 z"
         style="font-style:italic;font-variant:normal;font-weight:bold;font-stretch:normal;font-size:40px;font-family:Overlock;-inkscape-font-specification:'Overlock Bold Italic';fill:#3e033d;fill-opacity:1"
         id="path4692" />
      <path
         d="m 57.386719,-55.614992 1.36,0 q 0.04,-0.24 0.2,-1.84 0.2,-1.6 0.24,-2.16 0.84,-0.28 2.24,-0.28 2.2,0 2.2,1.36 0,0.2 -0.48,2.96 3.4,0 6,-0.2 0.12,0.48 0.12,0.96 0,1.88 -1.84,2 -1.24,0.04 -4.72,0.04 -1.44,9.28 -1.44,10.76 0,1.76 0.6,2.36 0.6,0.6 1.88,0.6 1.28,0 2.4,-1.2 1.04,0.72 1.04,1.84 0,2.12 -4.68,2.12 -2.32,0 -3.88,-1.24 -1.56,-1.24 -1.56,-4.16 0,-0.88 0.2,-2.64 0.24,-1.76 0.64,-4.44 0.4,-2.68 0.56,-4 -0.68,0 -3.32,0.24 -0.08,-0.56 -0.08,-0.84 0,-2.24 2.32,-2.24 z"
         style="font-style:italic;font-variant:normal;font-weight:bold;font-stretch:normal;font-size:40px;font-family:Overlock;-inkscape-font-specification:'Overlock Bold Italic';fill:#3e033d;fill-opacity:1"
         id="path4694" />
    </g>
  </g>
</svg>
