<?xml version="1.0" encoding="UTF-8" standalone="no"?>
<!-- Created with Inkscape (http://www.inkscape.org/) -->

<svg
   xmlns:dc="http://purl.org/dc/elements/1.1/"
   xmlns:cc="http://creativecommons.org/ns#"
   xmlns:rdf="http://www.w3.org/1999/02/22-rdf-syntax-ns#"
   xmlns:svg="http://www.w3.org/2000/svg"
   xmlns="http://www.w3.org/2000/svg"
   xmlns:sodipodi="http://sodipodi.sourceforge.net/DTD/sodipodi-0.dtd"
   xmlns:inkscape="http://www.inkscape.org/namespaces/inkscape"
   width="2in"
   height="0.69999999in"
   viewBox="0 0 179.99999 62.999999"
   id="svg2"
   version="1.1"
   inkscape:version="0.91 r13725"
   sodipodi:docname="reg_main.svg">
  <defs
     id="defs4" />
  <sodipodi:namedview
     id="base"
     pagecolor="#ffffff"
     bordercolor="#666666"
     borderopacity="1.0"
     inkscape:pageopacity="0.0"
     inkscape:pageshadow="2"
     inkscape:zoom="2.8"
     inkscape:cx="63.896995"
     inkscape:cy="47.873717"
     inkscape:document-units="px"
     inkscape:current-layer="layer1"
     showgrid="true"
     borderlayer="true"
     units="in"
     inkscape:window-width="1213"
     inkscape:window-height="754"
     inkscape:window-x="98"
     inkscape:window-y="6"
     inkscape:window-maximized="0"
     showguides="false">
    <inkscape:grid
       type="xygrid"
       id="grid4382" />
  </sodipodi:namedview>
  <metadata
     id="metadata7">
    <rdf:RDF>
      <cc:Work
         rdf:about="">
        <dc:format>image/svg+xml</dc:format>
        <dc:type
           rdf:resource="http://purl.org/dc/dcmitype/StillImage" />
        <dc:title />
      </cc:Work>
    </rdf:RDF>
  </metadata>
  <g
     inkscape:label="Layer 1"
     inkscape:groupmode="layer"
     id="layer1"
     transform="translate(0,-989.3622)">
    <g
       transform="matrix(0.83519098,0,0,0.83519098,44.332022,1049.4413)"
       style="font-style:normal;font-weight:normal;font-size:40px;line-height:125%;font-family:sans-serif;letter-spacing:0px;word-spacing:0px;fill:#eddcc0;fill-opacity:1;stroke:none;stroke-width:1px;stroke-linecap:butt;stroke-linejoin:miter;stroke-opacity:1"
       id="flowRoot6253">
      <path
         d="m 5.04,-34.449836 q 1,2.12 1.72,3.16 0.72,1.04 2.44,1.04 0.8,0 1.12,-0.12 0.16,0.72 0.16,1.28 0,2.08 -3.16,2.08 -2.72,0 -4,-2.28 -1.84,-3.24 -3.88,-8.96 -0.68,-0.24 -0.68,-0.92 0,-0.8 0.68,-1.6 0.32,0.16 0.88,0.16 1.4,0 2.64,-0.68 2.6,-1.48 2.6,-5.68 0,-2.56 -1,-3.4 -0.96,-0.88 -3.12,-0.88 -1.32,0 -2.16,0.16 -0.2,3.52 -0.68,6.96 l -1.2,8.8 q -0.48,3.52 -0.48,5.52 0,1.24 0.16,2.2 -0.96,0.32 -2.56,0.32 -2.24,0 -2.24,-1.68 0,-0.4 0.16,-1.64 0.2,-1.28 0.48,-3.12 0.28,-1.84 0.4,-2.92 l 1,-8 q 0.72,-5.84 0.72,-9.2 2.8,-0.48 5.92,-0.48 3.96,0 6.56,1.6 2.64,1.6 2.64,5.32 0,3.48 -1.88,5.96 -1.88,2.48 -4.84,3.16 0.6,1.72 1.6,3.84 z"
         style="font-style:italic;font-variant:normal;font-weight:bold;font-stretch:normal;font-family:Overlock;-inkscape-font-specification:'Overlock Bold Italic';fill:#eddcc0;fill-opacity:1"
         id="path6391" />
      <path
         d="m 17.29,-34.569836 q 0.04,2.48 0.96,3.72 0.96,1.2 2.32,1.2 1.12,0 2.2,-0.76 1.08,-0.76 1.76,-2.04 1.92,0.76 1.92,2.36 0,1.24 -1.88,2.16 -1.88,0.92 -4.32,0.92 -1.52,0 -2.88,-0.4 -1.32,-0.44 -2.52,-1.28 -1.16,-0.88 -1.84,-2.4 -0.68,-1.56 -0.68,-3.64 0,-2.92 0.96,-5.28 0.96,-2.4 2.48,-3.8 1.56,-1.44 3.32,-2.2 1.8,-0.76 3.56,-0.76 2.68,0 4.04,1.4 1.36,1.36 1.36,3.44 0,2 -1.16,3.88 -1.16,1.84 -3.12,2.64 -2.16,0.92 -5.16,0.92 -0.6,0 -1.32,-0.08 z m 5.8,-7.16 q 0,-1.04 -0.52,-1.72 -0.48,-0.72 -1.28,-0.72 -1.48,0 -2.6,2.12 -1.12,2.08 -1.36,5.2 0.76,0 1.28,-0.04 0.56,-0.08 1.48,-0.36 0.92,-0.28 1.48,-0.76 0.6,-0.48 1.04,-1.44 0.48,-0.96 0.48,-2.28 z"
         style="font-style:italic;font-variant:normal;font-weight:bold;font-stretch:normal;font-family:Overlock;-inkscape-font-specification:'Overlock Bold Italic';fill:#eddcc0;fill-opacity:1"
         id="path6393" />
      <path
         d="m 35.820625,-31.409836 q 0.72,1.36 1.68,1.36 0.96,0 2.16,-1.52 1.24,-1.52 2.24,-4.08 0.56,-3.68 1.08,-6.8 -1.48,-1.68 -3.24,-1.68 -2.12,0 -3.36,2.68 -1.24,2.64 -1.24,6.4 0,2.28 0.68,3.64 z m 4,-15.4 q 4.48,0 7.72,2.28 -0.96,3.92 -1.96,10.64 -0.12,0.88 -0.32,2.6 -0.2,1.72 -0.36,2.84 -0.12,1.08 -0.48,2.68 -0.32,1.64 -0.76,2.68 -0.44,1.08 -1.24,2.28 -0.76,1.2 -1.8,1.88 -1,0.72 -2.52,1.16 -1.48,0.48 -3.36,0.48 -2.36,0 -3.92,-0.84 -1.56,-0.84 -1.56,-2 0,-1.6 2.56,-2.6 0.88,2.8 3.24,2.8 5.36,0 5.92,-10.68 -1.16,1.88 -2.72,2.76 -1.52,0.84 -2.88,0.84 -2.56,0 -3.88,-2.08 -1.28,-2.12 -1.28,-5.12 0,-5.08 2.76,-8.84 2.76,-3.76 6.84,-3.76 z"
         style="font-style:italic;font-variant:normal;font-weight:bold;font-stretch:normal;font-family:Overlock;-inkscape-font-specification:'Overlock Bold Italic';fill:#eddcc0;fill-opacity:1"
         id="path6395" />
      <path
         d="m 54.515625,-48.649836 q -1,0 -1.64,-0.64 -0.6,-0.68 -0.6,-1.8 0,-1.28 0.88,-2.2 0.88,-0.92 2.04,-0.92 0.92,0 1.56,0.76 0.68,0.72 0.68,1.8 0,1.24 -0.96,2.12 -0.92,0.88 -1.96,0.88 z m -2.52,6.6 q 0,-1.52 -1.08,-2.04 0.12,-1.2 1.04,-1.92 0.92,-0.76 2.08,-0.76 1.04,0 1.76,0.64 0.72,0.64 0.72,1.88 0,1.52 -1.12,6.8 -1.08,5.24 -1.08,5.72 0,1.6 1.48,2.24 -0.16,1.04 -0.92,1.76 -0.72,0.72 -1.88,0.72 -1.48,0 -2.2,-1.08 -0.68,-1.08 -0.68,-2.56 0,-1.88 0.92,-5.96 0.96,-4.08 0.96,-5.44 z"
         style="font-style:italic;font-variant:normal;font-weight:bold;font-stretch:normal;font-family:Overlock;-inkscape-font-specification:'Overlock Bold Italic';fill:#eddcc0;fill-opacity:1"
         id="path6397" />
      <path
         d="m 69.2925,-41.209836 q -0.4,-1.4 -1.16,-2.08 -0.72,-0.68 -1.6,-0.68 -1.08,0 -2,0.88 -0.92,0.88 -0.92,2.08 0,1.08 0.8,1.68 0.84,0.6 2,0.92 1.16,0.32 2.32,0.76 1.16,0.44 1.96,1.56 0.84,1.12 0.84,2.92 0,3.04 -2.2,4.6 -2.16,1.56 -5.64,1.56 -2.36,0 -4.04,-0.88 -1.64,-0.88 -1.64,-2.36 0,-2.04 2.4,-2.52 0.36,1.36 1.36,2.12 1,0.76 2.2,0.76 1.68,0 2.68,-0.72 1.04,-0.76 1.04,-1.76 0,-1.04 -0.84,-1.64 -0.8,-0.6 -1.96,-0.96 -1.16,-0.36 -2.36,-0.84 -1.16,-0.48 -2,-1.6 -0.8,-1.12 -0.8,-2.88 0,-3.24 2.2,-4.88 2.2,-1.64 5.36,-1.64 1.76,0 3.36,0.88 1.6,0.84 1.6,2.36 0,2.04 -2.96,2.36 z"
         style="font-style:italic;font-variant:normal;font-weight:bold;font-stretch:normal;font-family:Overlock;-inkscape-font-specification:'Overlock Bold Italic';fill:#eddcc0;fill-opacity:1"
         id="path6399" />
      <path
         d="m 76.203125,-46.329836 1.36,0 q 0.04,-0.24 0.2,-1.84 0.2,-1.6 0.24,-2.16 0.84,-0.28 2.24,-0.28 2.2,0 2.2,1.36 0,0.2 -0.48,2.96 3.4,0 6,-0.2 0.12,0.48 0.12,0.96 0,1.88 -1.84,2 -1.24,0.04 -4.72,0.04 -1.44,9.28 -1.44,10.76 0,1.76 0.6,2.36 0.6,0.6 1.88,0.6 1.28,0 2.4,-1.2 1.04,0.72 1.04,1.84 0,2.12 -4.68,2.12 -2.32,0 -3.88,-1.24 -1.56,-1.24 -1.56,-4.16 0,-0.88 0.2,-2.64 0.24,-1.76 0.64,-4.44 0.4,-2.68 0.56,-4 -0.68,0 -3.32,0.24 -0.08,-0.56 -0.08,-0.84 0,-2.24 2.32,-2.24 z"
         style="font-style:italic;font-variant:normal;font-weight:bold;font-stretch:normal;font-family:Overlock;-inkscape-font-specification:'Overlock Bold Italic';fill:#eddcc0;fill-opacity:1"
         id="path6401" />
      <path
         d="m 98.993125,-42.849836 q -2.36,0 -4.56,3.4 -1.04,7.04 -1.04,9.68 0,1.16 0.12,2.16 -1.56,0.36 -2.64,0.36 -2.2,0 -2.2,-1.4 0,-0.52 0.88,-6.32 0.92,-5.84 0.92,-6.96 0,-1.68 -1.12,-2.16 0.16,-1.24 1.08,-1.96 0.92,-0.72 2.04,-0.72 1.04,0 1.76,0.64 0.72,0.64 0.72,1.84 0,0.68 -0.12,1.4 0.96,-1.56 2.36,-2.72 1.44,-1.16 2.919995,-1.16 1.80001,0 1.80001,1.92 0,1.56 -1.12,2.76 -0.76001,-0.76 -1.800005,-0.76 z"
         style="font-style:italic;font-variant:normal;font-weight:bold;font-stretch:normal;font-family:Overlock;-inkscape-font-specification:'Overlock Bold Italic';fill:#eddcc0;fill-opacity:1"
         id="path6403" />
      <path
         d="m 107.32813,-44.809836 q 1.84,5.16 2.64,12.56 3.51999,-6.72 3.51999,-11.28 0,-1.12 -0.47999,-2.48 1.39999,-0.76 2.47999,-0.76 2.56001,0 2.56001,2.68 0,3.12 -2.08,7.96 -2.04001,4.8 -4.96,9 -2.16001,3.08 -3.80001,4.84 -1.59999,1.76 -3.83999,2.92 -2.24001,1.16 -4.920005,1.16 -1.96,0 -3.32,-0.64 -1.4,-0.64 -1.4,-1.72 0,-1.32 1.88,-2.44 1.16,2.16 3.32,2.16 3.760005,0 7.800005,-6.16 -0.16001,-5.04 -1.84,-10.8 -1.68001,-5.8 -3.28,-7.16 1.51999,-1.8 3,-1.8 2.03999,0 2.72,1.96 z"
         style="font-style:italic;font-variant:normal;font-weight:bold;font-stretch:normal;font-family:Overlock;-inkscape-font-specification:'Overlock Bold Italic';fill:#eddcc0;fill-opacity:1"
         id="path6405" />
    </g>
  </g>
</svg>
