<?xml version="1.0" encoding="UTF-8" standalone="no"?>
<!-- Created with Inkscape (http://www.inkscape.org/) -->

<svg
   xmlns:dc="http://purl.org/dc/elements/1.1/"
   xmlns:cc="http://creativecommons.org/ns#"
   xmlns:rdf="http://www.w3.org/1999/02/22-rdf-syntax-ns#"
   xmlns:svg="http://www.w3.org/2000/svg"
   xmlns="http://www.w3.org/2000/svg"
   xmlns:sodipodi="http://sodipodi.sourceforge.net/DTD/sodipodi-0.dtd"
   xmlns:inkscape="http://www.inkscape.org/namespaces/inkscape"
   width="2in"
   height="0.30000001in"
   viewBox="0 0 179.99999 27.000001"
   id="svg2"
   version="1.1"
   inkscape:version="0.91 r13725"
   sodipodi:docname="return_home.svg">
  <defs
     id="defs4" />
  <sodipodi:namedview
     id="base"
     pagecolor="#ffffff"
     bordercolor="#666666"
     borderopacity="1.0"
     inkscape:pageopacity="0.0"
     inkscape:pageshadow="2"
     inkscape:zoom="2.8"
     inkscape:cx="95.301339"
     inkscape:cy="33.588003"
     inkscape:document-units="px"
     inkscape:current-layer="layer1"
     showgrid="true"
     borderlayer="true"
     units="in"
     inkscape:window-width="1213"
     inkscape:window-height="754"
     inkscape:window-x="98"
     inkscape:window-y="6"
     inkscape:window-maximized="0"
     showguides="false">
    <inkscape:grid
       type="xygrid"
       id="grid4382" />
  </sodipodi:namedview>
  <metadata
     id="metadata7">
    <rdf:RDF>
      <cc:Work
         rdf:about="">
        <dc:format>image/svg+xml</dc:format>
        <dc:type
           rdf:resource="http://purl.org/dc/dcmitype/StillImage" />
        <dc:title></dc:title>
      </cc:Work>
    </rdf:RDF>
  </metadata>
  <g
     inkscape:label="Layer 1"
     inkscape:groupmode="layer"
     id="layer1"
     transform="translate(0,-1025.3622)">
    <g
       transform="matrix(0.83519098,0,0,0.83519098,44.332022,990.51273)"
       style="font-style:normal;font-weight:normal;font-size:40px;line-height:125%;font-family:sans-serif;letter-spacing:0px;word-spacing:0px;fill:#eddcc0;fill-opacity:1;stroke:none;stroke-width:1px;stroke-linecap:butt;stroke-linejoin:miter;stroke-opacity:1"
       id="flowRoot6253">
      <path
         d="m 5.04,-34.449836 q 1,2.12 1.72,3.16 0.72,1.04 2.44,1.04 0.8,0 1.12,-0.12 0.16,0.72 0.16,1.28 0,2.08 -3.16,2.08 -2.72,0 -4,-2.28 -1.84,-3.24 -3.88,-8.96 -0.68,-0.24 -0.68,-0.92 0,-0.8 0.68,-1.6 0.32,0.16 0.88,0.16 1.4,0 2.64,-0.68 2.6,-1.48 2.6,-5.68 0,-2.56 -1,-3.4 -0.96,-0.88 -3.12,-0.88 -1.32,0 -2.16,0.16 -0.2,3.52 -0.68,6.96 l -1.2,8.8 q -0.48,3.52 -0.48,5.52 0,1.24 0.16,2.2 -0.96,0.32 -2.56,0.32 -2.24,0 -2.24,-1.68 0,-0.4 0.16,-1.64 0.2,-1.28 0.48,-3.12 0.28,-1.84 0.4,-2.92 l 1,-8 q 0.72,-5.84 0.72,-9.2 2.8,-0.48 5.92,-0.48 3.96,0 6.56,1.6 2.64,1.6 2.64,5.32 0,3.48 -1.88,5.96 -1.88,2.48 -4.84,3.16 0.6,1.72 1.6,3.84 z"
         style="font-style:italic;font-variant:normal;font-weight:bold;font-stretch:normal;font-family:Overlock;-inkscape-font-specification:'Overlock Bold Italic';fill:#eddcc0;fill-opacity:1"
         id="path6391"
         inkscape:connector-curvature="0" />
      <path
         d="m 17.29,-34.569836 q 0.04,2.48 0.96,3.72 0.96,1.2 2.32,1.2 1.12,0 2.2,-0.76 1.08,-0.76 1.76,-2.04 1.92,0.76 1.92,2.36 0,1.24 -1.88,2.16 -1.88,0.92 -4.32,0.92 -1.52,0 -2.88,-0.4 -1.32,-0.44 -2.52,-1.28 -1.16,-0.88 -1.84,-2.4 -0.68,-1.56 -0.68,-3.64 0,-2.92 0.96,-5.28 0.96,-2.4 2.48,-3.8 1.56,-1.44 3.32,-2.2 1.8,-0.76 3.56,-0.76 2.68,0 4.04,1.4 1.36,1.36 1.36,3.44 0,2 -1.16,3.88 -1.16,1.84 -3.12,2.64 -2.16,0.92 -5.16,0.92 -0.6,0 -1.32,-0.08 z m 5.8,-7.16 q 0,-1.04 -0.52,-1.72 -0.48,-0.72 -1.28,-0.72 -1.48,0 -2.6,2.12 -1.12,2.08 -1.36,5.2 0.76,0 1.28,-0.04 0.56,-0.08 1.48,-0.36 0.92,-0.28 1.48,-0.76 0.6,-0.48 1.04,-1.44 0.48,-0.96 0.48,-2.28 z"
         style="font-style:italic;font-variant:normal;font-weight:bold;font-stretch:normal;font-family:Overlock;-inkscape-font-specification:'Overlock Bold Italic';fill:#eddcc0;fill-opacity:1"
         id="path6393"
         inkscape:connector-curvature="0" />
      <path
         d="m 35.820625,-31.409836 q 0.72,1.36 1.68,1.36 0.96,0 2.16,-1.52 1.24,-1.52 2.24,-4.08 0.56,-3.68 1.08,-6.8 -1.48,-1.68 -3.24,-1.68 -2.12,0 -3.36,2.68 -1.24,2.64 -1.24,6.4 0,2.28 0.68,3.64 z m 4,-15.4 q 4.48,0 7.72,2.28 -0.96,3.92 -1.96,10.64 -0.12,0.88 -0.32,2.6 -0.2,1.72 -0.36,2.84 -0.12,1.08 -0.48,2.68 -0.32,1.64 -0.76,2.68 -0.44,1.08 -1.24,2.28 -0.76,1.2 -1.8,1.88 -1,0.72 -2.52,1.16 -1.48,0.48 -3.36,0.48 -2.36,0 -3.92,-0.84 -1.56,-0.84 -1.56,-2 0,-1.6 2.56,-2.6 0.88,2.8 3.24,2.8 5.36,0 5.92,-10.68 -1.16,1.88 -2.72,2.76 -1.52,0.84 -2.88,0.84 -2.56,0 -3.88,-2.08 -1.28,-2.12 -1.28,-5.12 0,-5.08 2.76,-8.84 2.76,-3.76 6.84,-3.76 z"
         style="font-style:italic;font-variant:normal;font-weight:bold;font-stretch:normal;font-family:Overlock;-inkscape-font-specification:'Overlock Bold Italic';fill:#eddcc0;fill-opacity:1"
         id="path6395"
         inkscape:connector-curvature="0" />
      <path
         d="m 54.515625,-48.649836 q -1,0 -1.64,-0.64 -0.6,-0.68 -0.6,-1.8 0,-1.28 0.88,-2.2 0.88,-0.92 2.04,-0.92 0.92,0 1.56,0.76 0.68,0.72 0.68,1.8 0,1.24 -0.96,2.12 -0.92,0.88 -1.96,0.88 z m -2.52,6.6 q 0,-1.52 -1.08,-2.04 0.12,-1.2 1.04,-1.92 0.92,-0.76 2.08,-0.76 1.04,0 1.76,0.64 0.72,0.64 0.72,1.88 0,1.52 -1.12,6.8 -1.08,5.24 -1.08,5.72 0,1.6 1.48,2.24 -0.16,1.04 -0.92,1.76 -0.72,0.72 -1.88,0.72 -1.48,0 -2.2,-1.08 -0.68,-1.08 -0.68,-2.56 0,-1.88 0.92,-5.96 0.96,-4.08 0.96,-5.44 z"
         style="font-style:italic;font-variant:normal;font-weight:bold;font-stretch:normal;font-family:Overlock;-inkscape-font-specification:'Overlock Bold Italic';fill:#eddcc0;fill-opacity:1"
         id="path6397"
         inkscape:connector-curvature="0" />
      <path
         d="m 69.2925,-41.209836 q -0.4,-1.4 -1.16,-2.08 -0.72,-0.68 -1.6,-0.68 -1.08,0 -2,0.88 -0.92,0.88 -0.92,2.08 0,1.08 0.8,1.68 0.84,0.6 2,0.92 1.16,0.32 2.32,0.76 1.16,0.44 1.96,1.56 0.84,1.12 0.84,2.92 0,3.04 -2.2,4.6 -2.16,1.56 -5.64,1.56 -2.36,0 -4.04,-0.88 -1.64,-0.88 -1.64,-2.36 0,-2.04 2.4,-2.52 0.36,1.36 1.36,2.12 1,0.76 2.2,0.76 1.68,0 2.68,-0.72 1.04,-0.76 1.04,-1.76 0,-1.04 -0.84,-1.64 -0.8,-0.6 -1.96,-0.96 -1.16,-0.36 -2.36,-0.84 -1.16,-0.48 -2,-1.6 -0.8,-1.12 -0.8,-2.88 0,-3.24 2.2,-4.88 2.2,-1.64 5.36,-1.64 1.76,0 3.36,0.88 1.6,0.84 1.6,2.36 0,2.04 -2.96,2.36 z"
         style="font-style:italic;font-variant:normal;font-weight:bold;font-stretch:normal;font-family:Overlock;-inkscape-font-specification:'Overlock Bold Italic';fill:#eddcc0;fill-opacity:1"
         id="path6399"
         inkscape:connector-curvature="0" />
      <path
         d="m 76.203125,-46.329836 1.36,0 q 0.04,-0.24 0.2,-1.84 0.2,-1.6 0.24,-2.16 0.84,-0.28 2.24,-0.28 2.2,0 2.2,1.36 0,0.2 -0.48,2.96 3.4,0 6,-0.2 0.12,0.48 0.12,0.96 0,1.88 -1.84,2 -1.24,0.04 -4.72,0.04 -1.44,9.28 -1.44,10.76 0,1.76 0.6,2.36 0.6,0.6 1.88,0.6 1.28,0 2.4,-1.2 1.04,0.72 1.04,1.84 0,2.12 -4.68,2.12 -2.32,0 -3.88,-1.24 -1.56,-1.24 -1.56,-4.16 0,-0.88 0.2,-2.64 0.24,-1.76 0.64,-4.44 0.4,-2.68 0.56,-4 -0.68,0 -3.32,0.24 -0.08,-0.56 -0.08,-0.84 0,-2.24 2.32,-2.24 z"
         style="font-style:italic;font-variant:normal;font-weight:bold;font-stretch:normal;font-family:Overlock;-inkscape-font-specification:'Overlock Bold Italic';fill:#eddcc0;fill-opacity:1"
         id="path6401"
         inkscape:connector-curvature="0" />
      <path
         d="m 98.993125,-42.849836 q -2.36,0 -4.56,3.4 -1.04,7.04 -1.04,9.68 0,1.16 0.12,2.16 -1.56,0.36 -2.64,0.36 -2.2,0 -2.2,-1.4 0,-0.52 0.88,-6.32 0.92,-5.84 0.92,-6.96 0,-1.68 -1.12,-2.16 0.16,-1.24 1.08,-1.96 0.92,-0.72 2.04,-0.72 1.04,0 1.76,0.64 0.72,0.64 0.72,1.84 0,0.68 -0.12,1.4 0.96,-1.56 2.36,-2.72 1.44,-1.16 2.919995,-1.16 1.80001,0 1.80001,1.92 0,1.56 -1.12,2.76 -0.76001,-0.76 -1.800005,-0.76 z"
         style="font-style:italic;font-variant:normal;font-weight:bold;font-stretch:normal;font-family:Overlock;-inkscape-font-specification:'Overlock Bold Italic';fill:#eddcc0;fill-opacity:1"
         id="path6403"
         inkscape:connector-curvature="0" />
      <path
         d="m 107.32813,-44.809836 q 1.84,5.16 2.64,12.56 3.51999,-6.72 3.51999,-11.28 0,-1.12 -0.47999,-2.48 1.39999,-0.76 2.47999,-0.76 2.56001,0 2.56001,2.68 0,3.12 -2.08,7.96 -2.04001,4.8 -4.96,9 -2.16001,3.08 -3.80001,4.84 -1.59999,1.76 -3.83999,2.92 -2.24001,1.16 -4.920005,1.16 -1.96,0 -3.32,-0.64 -1.4,-0.64 -1.4,-1.72 0,-1.32 1.88,-2.44 1.16,2.16 3.32,2.16 3.760005,0 7.800005,-6.16 -0.16001,-5.04 -1.84,-10.8 -1.68001,-5.8 -3.28,-7.16 1.51999,-1.8 3,-1.8 2.03999,0 2.72,1.96 z"
         style="font-style:italic;font-variant:normal;font-weight:bold;font-stretch:normal;font-family:Overlock;-inkscape-font-specification:'Overlock Bold Italic';fill:#eddcc0;fill-opacity:1"
         id="path6405"
         inkscape:connector-curvature="0" />
    </g>
    <g
       transform="matrix(1.2637453,0,0,1.2637453,-8.8103258,1076.4391)"
       style="font-style:normal;font-weight:normal;font-size:40px;line-height:125%;font-family:sans-serif;letter-spacing:0px;word-spacing:0px;fill:#eddcc0;fill-opacity:1;stroke:none;stroke-width:1px;stroke-linecap:butt;stroke-linejoin:miter;stroke-opacity:1"
       id="flowRoot4172">
      <path
         d="m 16.11,-28.776496 q 0.40625,0.86125 0.69875,1.28375 0.2925,0.4225 0.99125,0.4225 0.325,0 0.455,-0.04875 0.065,0.2925 0.065,0.52 0,0.845 -1.28375,0.845 -1.105,0 -1.625,-0.92625 -0.7475,-1.31625 -1.57625,-3.64 -0.27625,-0.0975 -0.27625,-0.37375 0,-0.325 0.27625,-0.65 0.13,0.065 0.3575,0.065 0.56875,0 1.0725,-0.27625 1.05625,-0.60125 1.05625,-2.3075 0,-1.04 -0.40625,-1.38125 -0.39,-0.3575 -1.2675,-0.3575 -0.53625,0 -0.8775,0.065 -0.08125,1.43 -0.27625,2.8275 l -0.4875,3.575 q -0.195,1.43 -0.195,2.2425 0,0.50375 0.065,0.89375 -0.39,0.13 -1.04,0.13 -0.91,0 -0.91,-0.6825 0,-0.1625 0.065,-0.66625 0.08125,-0.52 0.195,-1.2675 0.11375,-0.7475 0.1625,-1.18625 l 0.40625,-3.25 q 0.2925,-2.3725 0.2925,-3.7375 1.1375,-0.195 2.405,-0.195 1.60875,0 2.665,0.65 1.0725,0.65 1.0725,2.16125 0,1.41375 -0.76375,2.42125 -0.76375,1.0075 -1.96625,1.28375 0.24375,0.69875 0.65,1.56 z"
         style="font-style:italic;font-variant:normal;font-weight:bold;font-stretch:normal;font-size:16.25px;font-family:Overlock;-inkscape-font-specification:'Overlock Bold Italic';fill:#eddcc0;fill-opacity:1"
         id="path4201"
         inkscape:connector-curvature="0" />
      <path
         d="m 21.086562,-28.825246 q 0.01625,1.0075 0.39,1.51125 0.39,0.4875 0.9425,0.4875 0.455,0 0.89375,-0.30875 0.43875,-0.30875 0.715,-0.82875 0.78,0.30875 0.78,0.95875 0,0.50375 -0.76375,0.8775 -0.76375,0.37375 -1.755,0.37375 -0.6175,0 -1.17,-0.1625 -0.53625,-0.17875 -1.02375,-0.52 -0.47125,-0.3575 -0.7475,-0.975 -0.27625,-0.63375 -0.27625,-1.47875 0,-1.18625 0.39,-2.145 0.39,-0.975 1.0075,-1.54375 0.63375,-0.585 1.34875,-0.89375 0.73125,-0.30875 1.446251,-0.30875 1.088749,0 1.641249,0.56875 0.5525,0.5525 0.5525,1.3975 0,0.8125 -0.47125,1.57625 -0.47125,0.7475 -1.2675,1.0725 -0.877499,0.37375 -2.09625,0.37375 -0.24375,0 -0.53625,-0.0325 z m 2.35625,-2.90875 q 0,-0.4225 -0.211249,-0.69875 -0.195,-0.2925 -0.520001,-0.2925 -0.60125,0 -1.05625,0.86125 -0.455,0.845 -0.5525,2.1125 0.30875,0 0.52,-0.01625 0.2275,-0.0325 0.60125,-0.14625 0.37375,-0.11375 0.60125,-0.30875 0.24375,-0.195 0.422501,-0.585 0.194999,-0.39 0.194999,-0.92625 z"
         style="font-style:italic;font-variant:normal;font-weight:bold;font-stretch:normal;font-size:16.25px;font-family:Overlock;-inkscape-font-specification:'Overlock Bold Italic';fill:#eddcc0;fill-opacity:1"
         id="path4203"
         inkscape:connector-curvature="0" />
      <path
         d="m 27.119629,-33.602746 0.5525,0 q 0.01625,-0.0975 0.08125,-0.7475 0.08125,-0.65 0.0975,-0.8775 0.34125,-0.11375 0.91,-0.11375 0.89375,0 0.89375,0.5525 0,0.08125 -0.195,1.2025 1.38125,0 2.4375,-0.08125 0.04875,0.195 0.04875,0.39 0,0.76375 -0.7475,0.8125 -0.50375,0.01625 -1.9175,0.01625 -0.585,3.77 -0.585,4.37125 0,0.715 0.24375,0.95875 0.24375,0.24375 0.76375,0.24375 0.52,0 0.975,-0.4875 0.4225,0.2925 0.4225,0.7475 0,0.86125 -1.90125,0.86125 -0.9425,0 -1.57625,-0.50375 -0.63375,-0.50375 -0.63375,-1.69 0,-0.3575 0.08125,-1.0725 0.0975,-0.715 0.26,-1.80375 0.1625,-1.08875 0.2275,-1.625 -0.27625,0 -1.34875,0.0975 -0.0325,-0.2275 -0.0325,-0.34125 0,-0.91 0.9425,-0.91 z"
         style="font-style:italic;font-variant:normal;font-weight:bold;font-stretch:normal;font-size:16.25px;font-family:Overlock;-inkscape-font-specification:'Overlock Bold Italic';fill:#eddcc0;fill-opacity:1"
         id="path4205"
         inkscape:connector-curvature="0" />
      <path
         d="m 34.753066,-32.773996 q 0,0.6825 -0.34125,2.55125 -0.34125,1.8525 -0.34125,2.16125 0,1.05625 0.65,1.05625 0.4875,0 1.0075,-0.66625 0.53625,-0.6825 0.92625,-1.73875 0.04875,-0.40625 0.17875,-1.3325 0.13,-0.92625 0.195,-1.56 0.08125,-0.63375 0.11375,-1.31625 0.40625,-0.11375 0.91,-0.11375 0.89375,0 0.89375,0.56875 0,0.0975 -0.0325,0.30875 -0.0325,0.21125 -0.11375,0.65 -0.08125,0.43875 -0.13,0.79625 0,0.0325 -0.1625,0.9425 -0.14625,0.89375 -0.24375,1.64125 -0.0975,0.73125 -0.0975,1.105 0,0.6825 0.455,0.8775 -0.065,0.50375 -0.43875,0.79625 -0.37375,0.2925 -0.82875,0.2925 -0.4225,0 -0.715,-0.26 -0.2925,-0.26 -0.2925,-0.7475 0,-0.2925 0.04875,-0.585 -0.47125,0.76375 -1.15375,1.18625 -0.66625,0.40625 -1.28375,0.40625 -0.79625,0 -1.235,-0.56875 -0.4225,-0.56875 -0.4225,-1.47875 0,-0.2925 0.30875,-2.0475 0.30875,-1.755 0.30875,-2.145 0,-0.40625 -0.43875,-0.69875 0.0325,-0.39 0.37375,-0.73125 0.34125,-0.3575 0.89375,-0.3575 0.4225,0 0.715,0.24375 0.2925,0.24375 0.2925,0.76375 z"
         style="font-style:italic;font-variant:normal;font-weight:bold;font-stretch:normal;font-size:16.25px;font-family:Overlock;-inkscape-font-specification:'Overlock Bold Italic';fill:#eddcc0;fill-opacity:1"
         id="path4207"
         inkscape:connector-curvature="0" />
      <path
         d="m 44.534805,-32.188996 q -0.95875,0 -1.8525,1.38125 -0.4225,2.86 -0.4225,3.9325 0,0.47125 0.04875,0.8775 -0.63375,0.14625 -1.0725,0.14625 -0.89375,0 -0.89375,-0.56875 0,-0.21125 0.3575,-2.5675 0.37375,-2.3725 0.37375,-2.8275 0,-0.6825 -0.455,-0.8775 0.065,-0.50375 0.43875,-0.79625 0.37375,-0.2925 0.82875,-0.2925 0.4225,0 0.715,0.26 0.2925,0.26 0.2925,0.7475 0,0.27625 -0.04875,0.56875 0.39,-0.63375 0.95875,-1.105 0.585,-0.47125 1.18625,-0.47125 0.73125,0 0.73125,0.78 0,0.63375 -0.455,1.12125 -0.30875,-0.30875 -0.73125,-0.30875 z"
         style="font-style:italic;font-variant:normal;font-weight:bold;font-stretch:normal;font-size:16.25px;font-family:Overlock;-inkscape-font-specification:'Overlock Bold Italic';fill:#eddcc0;fill-opacity:1"
         id="path4209"
         inkscape:connector-curvature="0" />
      <path
         d="m 48.440898,-30.125246 q -0.325,2.4375 -0.325,3.25 0,0.47125 0.04875,0.8775 -0.63375,0.14625 -1.0725,0.14625 -0.89375,0 -0.89375,-0.56875 0,-0.21125 0.3575,-2.5675 0.37375,-2.3725 0.37375,-2.8275 0,-0.6825 -0.455,-0.8775 0.065,-0.50375 0.43875,-0.79625 0.37375,-0.2925 0.82875,-0.2925 0.4225,0 0.715,0.26 0.2925,0.26 0.2925,0.7475 0,0.2925 -0.04875,0.585 0.47125,-0.76375 1.1375,-1.17 0.6825,-0.4225 1.3,-0.4225 0.79625,0 1.21875,0.56875 0.43875,0.56875 0.43875,1.47875 0,0.2925 -0.2925,1.95 -0.27625,1.6575 -0.30875,2.1125 0,0.63375 0.60125,0.91 -0.065,0.455 -0.4225,0.73125 -0.34125,0.27625 -0.76375,0.27625 -0.4875,0 -0.82875,-0.37375 -0.34125,-0.37375 -0.34125,-1.08875 0,-0.6825 0.2925,-2.3075 0.2925,-1.64125 0.2925,-1.95 0,-1.05625 -0.65,-1.05625 -0.4875,0 -1.02375,0.6825 -0.52,0.66625 -0.91,1.7225 z"
         style="font-style:italic;font-variant:normal;font-weight:bold;font-stretch:normal;font-size:16.25px;font-family:Overlock;-inkscape-font-specification:'Overlock Bold Italic';fill:#eddcc0;fill-opacity:1"
         id="path4211"
         inkscape:connector-curvature="0" />
      <path
         d="m 57.969238,-33.602746 0.5525,0 q 0.01625,-0.0975 0.08125,-0.7475 0.08125,-0.65 0.0975,-0.8775 0.34125,-0.11375 0.91,-0.11375 0.89375,0 0.89375,0.5525 0,0.08125 -0.195,1.2025 1.38125,0 2.4375,-0.08125 0.04875,0.195 0.04875,0.39 0,0.76375 -0.7475,0.8125 -0.50375,0.01625 -1.9175,0.01625 -0.585,3.77 -0.585,4.37125 0,0.715 0.24375,0.95875 0.24375,0.24375 0.76375,0.24375 0.52,0 0.975,-0.4875 0.4225,0.2925 0.4225,0.7475 0,0.86125 -1.90125,0.86125 -0.9425,0 -1.57625,-0.50375 -0.63375,-0.50375 -0.63375,-1.69 0,-0.3575 0.08125,-1.0725 0.0975,-0.715 0.26,-1.80375 0.1625,-1.08875 0.2275,-1.625 -0.27625,0 -1.34875,0.0975 -0.0325,-0.2275 -0.0325,-0.34125 0,-0.91 0.9425,-0.91 z"
         style="font-style:italic;font-variant:normal;font-weight:bold;font-stretch:normal;font-size:16.25px;font-family:Overlock;-inkscape-font-specification:'Overlock Bold Italic';fill:#eddcc0;fill-opacity:1"
         id="path4213"
         inkscape:connector-curvature="0" />
      <path
         d="m 65.797676,-25.753996 q -1.43,0 -2.22625,-0.82875 -0.79625,-0.845 -0.79625,-2.34 0,-2.0475 1.17,-3.445 1.17,-1.41375 2.99,-1.41375 1.4625,0 2.275,0.86125 0.82875,0.845 0.82875,2.34 0,2.03125 -1.21875,3.42875 -1.2025,1.3975 -3.0225,1.3975 z m 0.91,-6.955 q -0.89375,0 -1.41375,1.0725 -0.52,1.05625 -0.52,2.45375 0,1.02375 0.34125,1.69 0.3575,0.66625 0.99125,0.66625 0.8775,0 1.3975,-1.04 0.52,-1.04 0.52,-2.42125 0,-1.05625 -0.3575,-1.73875 -0.34125,-0.6825 -0.95875,-0.6825 z"
         style="font-style:italic;font-variant:normal;font-weight:bold;font-stretch:normal;font-size:16.25px;font-family:Overlock;-inkscape-font-specification:'Overlock Bold Italic';fill:#eddcc0;fill-opacity:1"
         id="path4215"
         inkscape:connector-curvature="0" />
      <path
         d="m 81.436777,-36.690246 q 0.455,-0.04875 0.86125,-0.04875 0.975,0 0.975,0.69875 0,0.08125 -0.08125,0.4875 -0.065,0.40625 -0.21125,1.2675 -0.13,0.86125 -0.24375,1.80375 l -0.4225,3.26625 q -0.195,1.43 -0.195,2.22625 0,0.5525 0.065,0.99125 -0.56875,0.13 -0.975,0.13 -0.95875,0 -0.95875,-0.845 0,-0.0975 0.04875,-0.50375 0.065,-0.4225 0.21125,-1.54375 0.1625,-1.1375 0.325,-2.405 -0.6175,0.0325 -1.77125,0.0325 -1.08875,0 -2.25875,-0.0325 l -0.24375,1.95 q -0.195,1.43 -0.195,2.22625 0,0.5525 0.065,0.99125 -0.56875,0.13 -0.975,0.13 -0.95875,0 -0.95875,-0.845 0,-0.11375 0.065,-0.66625 0.08125,-0.5525 0.2925,-2.1125 0.2275,-1.57625 0.455,-3.42875 0.30875,-2.4375 0.37375,-3.77 0.47125,-0.04875 0.86125,-0.04875 0.975,0 0.975,0.69875 0,0.08125 -0.08125,0.50375 -0.065,0.40625 -0.21125,1.3 -0.13,0.8775 -0.26,1.8525 1.625,0.0325 2.21,0.0325 0.715,0 1.82,-0.0325 0.39,-3.00625 0.43875,-4.30625 z"
         style="font-style:italic;font-variant:normal;font-weight:bold;font-stretch:normal;font-size:16.25px;font-family:Overlock;-inkscape-font-specification:'Overlock Bold Italic';fill:#eddcc0;fill-opacity:1"
         id="path4217"
         inkscape:connector-curvature="0" />
      <path
         d="m 86.998848,-25.753996 q -1.43,0 -2.22625,-0.82875 -0.79625,-0.845 -0.79625,-2.34 0,-2.0475 1.17,-3.445 1.17,-1.41375 2.99,-1.41375 1.4625,0 2.275,0.86125 0.82875,0.845 0.82875,2.34 0,2.03125 -1.21875,3.42875 -1.2025,1.3975 -3.0225,1.3975 z m 0.91,-6.955 q -0.89375,0 -1.41375,1.0725 -0.52,1.05625 -0.52,2.45375 0,1.02375 0.34125,1.69 0.3575,0.66625 0.99125,0.66625 0.8775,0 1.3975,-1.04 0.52,-1.04 0.52,-2.42125 0,-1.05625 -0.3575,-1.73875 -0.34125,-0.6825 -0.95875,-0.6825 z"
         style="font-style:italic;font-variant:normal;font-weight:bold;font-stretch:normal;font-size:16.25px;font-family:Overlock;-inkscape-font-specification:'Overlock Bold Italic';fill:#eddcc0;fill-opacity:1"
         id="path4219"
         inkscape:connector-curvature="0" />
      <path
         d="m 94.651836,-30.125246 q -0.325,2.4375 -0.325,3.25 0,0.47125 0.04875,0.8775 -0.63375,0.14625 -1.0725,0.14625 -0.89375,0 -0.89375,-0.56875 0,-0.21125 0.3575,-2.5675 0.37375,-2.3725 0.37375,-2.8275 0,-0.6825 -0.455,-0.8775 0.065,-0.50375 0.43875,-0.79625 0.37375,-0.2925 0.82875,-0.2925 0.4225,0 0.715,0.26 0.2925,0.26 0.2925,0.7475 0,0.2925 -0.04875,0.585 0.43875,-0.76375 1.05625,-1.17 0.6175,-0.4225 1.21875,-0.4225 0.69875,0 1.12125,0.455 0.43875,0.455 0.52,1.21875 0.4225,-0.79625 1.05625,-1.235 0.633754,-0.43875 1.267504,-0.43875 0.79625,0 1.21875,0.56875 0.43875,0.56875 0.43875,1.47875 0,0.2925 -0.2925,1.95 -0.27625,1.6575 -0.30875,2.1125 0,0.63375 0.60125,0.91 -0.065,0.455 -0.4225,0.73125 -0.34125,0.27625 -0.76375,0.27625 -0.4875,0 -0.82875,-0.37375 -0.34125,-0.37375 -0.34125,-1.08875 0,-0.6825 0.2925,-2.3075 0.2925,-1.64125 0.2925,-1.95 0,-1.05625 -0.6175,-1.05625 -0.422504,0 -0.942504,0.6825 -0.52,0.6825 -0.82875,1.56 -0.3575,2.19375 -0.3575,3.4125 0,0.47125 0.04875,0.8775 -0.63375,0.14625 -1.0725,0.14625 -0.89375,0 -0.89375,-0.56875 0,-0.21125 0.34125,-2.38875 0.34125,-2.19375 0.34125,-2.7625 0,-0.95875 -0.60125,-0.95875 -0.43875,0 -0.99125,0.7475 -0.53625,0.73125 -0.8125,1.6575 z"
         style="font-style:italic;font-variant:normal;font-weight:bold;font-stretch:normal;font-size:16.25px;font-family:Overlock;-inkscape-font-specification:'Overlock Bold Italic';fill:#eddcc0;fill-opacity:1"
         id="path4221"
         inkscape:connector-curvature="0" />
      <path
         d="m 106.14516,-28.825246 q 0.0162,1.0075 0.39,1.51125 0.39,0.4875 0.9425,0.4875 0.455,0 0.89375,-0.30875 0.43875,-0.30875 0.715,-0.82875 0.78,0.30875 0.78,0.95875 0,0.50375 -0.76375,0.8775 -0.76375,0.37375 -1.755,0.37375 -0.6175,0 -1.17,-0.1625 -0.53625,-0.17875 -1.02375,-0.52 -0.47125,-0.3575 -0.7475,-0.975 -0.27625,-0.63375 -0.27625,-1.47875 0,-1.18625 0.39,-2.145 0.39,-0.975 1.0075,-1.54375 0.63375,-0.585 1.34875,-0.89375 0.73125,-0.30875 1.44625,-0.30875 1.08875,0 1.64125,0.56875 0.5525,0.5525 0.5525,1.3975 0,0.8125 -0.47125,1.57625 -0.47125,0.7475 -1.2675,1.0725 -0.8775,0.37375 -2.09625,0.37375 -0.24375,0 -0.53625,-0.0325 z m 2.35625,-2.90875 q 0,-0.4225 -0.21125,-0.69875 -0.195,-0.2925 -0.52,-0.2925 -0.60125,0 -1.05625,0.86125 -0.455,0.845 -0.5525,2.1125 0.30875,0 0.52,-0.01625 0.2275,-0.0325 0.60125,-0.14625 0.37375,-0.11375 0.60125,-0.30875 0.24375,-0.195 0.4225,-0.585 0.195,-0.39 0.195,-0.92625 z"
         style="font-style:italic;font-variant:normal;font-weight:bold;font-stretch:normal;font-size:16.25px;font-family:Overlock;-inkscape-font-specification:'Overlock Bold Italic';fill:#eddcc0;fill-opacity:1"
         id="path4223"
         inkscape:connector-curvature="0" />
      <path
         d="m 118.37684,-30.986496 q 0.975,0 1.47875,-0.79625 0.50375,-0.79625 0.50375,-2.0475 0,-1.0075 -0.455,-1.38125 -0.43875,-0.39 -1.2675,-0.39 -0.455,0 -0.82875,0.065 -0.11375,1.47875 -0.4875,4.14375 0.4875,0.40625 1.05625,0.40625 z m -2.99,1.31625 0.40625,-3.25 q 0.2925,-2.51875 0.2925,-3.7375 1.1375,-0.195 2.38875,-0.195 3.75375,0 3.75375,2.925 0,1.93375 -1.05625,3.07125 -1.05625,1.12125 -2.405,1.12125 -0.975,0 -1.5925,-0.52 -0.325,2.42125 -0.325,3.3475 0,0.52 0.065,0.91 -0.39,0.13 -1.04,0.13 -0.91,0 -0.91,-0.6825 0,-0.14625 0.065,-0.65 0.0812,-0.52 0.195,-1.2675 0.11375,-0.76375 0.1625,-1.2025 z"
         style="font-style:italic;font-variant:normal;font-weight:bold;font-stretch:normal;font-size:16.25px;font-family:Overlock;-inkscape-font-specification:'Overlock Bold Italic';fill:#eddcc0;fill-opacity:1"
         id="path4225"
         inkscape:connector-curvature="0" />
      <path
         d="m 127.07287,-27.443996 q -1.12125,1.69 -2.48625,1.69 -0.92625,0 -1.51125,-0.7475 -0.56875,-0.7475 -0.56875,-2.1775 0,-2.09625 1.12125,-3.59125 1.1375,-1.51125 2.77875,-1.51125 1.7875,0 3.16875,0.92625 -0.79625,3.64 -0.79625,5.05375 0,0.76375 0.6175,1.04 -0.065,0.37375 -0.37375,0.69875 -0.2925,0.30875 -0.8125,0.30875 -0.53625,0 -0.845,-0.39 -0.30875,-0.39 -0.30875,-0.99125 0,-0.21125 0.0162,-0.30875 z m 0.17875,-1.82 0.43875,-2.7625 q -0.63375,-0.6825 -1.3,-0.6825 -0.8125,0 -1.34875,1.04 -0.53625,1.02375 -0.53625,2.64875 0,0.8775 0.26,1.4625 0.27625,0.56875 0.715,0.56875 0.39,0 0.89375,-0.63375 0.50375,-0.65 0.8775,-1.64125 z"
         style="font-style:italic;font-variant:normal;font-weight:bold;font-stretch:normal;font-size:16.25px;font-family:Overlock;-inkscape-font-specification:'Overlock Bold Italic';fill:#eddcc0;fill-opacity:1"
         id="path4227"
         inkscape:connector-curvature="0" />
      <path
         d="m 133.00184,-27.541496 q 0.2925,0.5525 0.6825,0.5525 0.39,0 0.8775,-0.6175 0.50375,-0.6175 0.91,-1.6575 0.2275,-1.495 0.43875,-2.7625 -0.60125,-0.6825 -1.31625,-0.6825 -0.86125,0 -1.365,1.08875 -0.50375,1.0725 -0.50375,2.6 0,0.92625 0.27625,1.47875 z m 1.625,-6.25625 q 1.82,0 3.13625,0.92625 -0.39,1.5925 -0.79625,4.3225 -0.0487,0.3575 -0.13,1.05625 -0.0812,0.69875 -0.14625,1.15375 -0.0487,0.43875 -0.195,1.08875 -0.13,0.66625 -0.30875,1.08875 -0.17875,0.43875 -0.50375,0.92625 -0.30875,0.4875 -0.73125,0.76375 -0.40625,0.2925 -1.02375,0.47125 -0.60125,0.195 -1.365,0.195 -0.95875,0 -1.5925,-0.34125 -0.63375,-0.34125 -0.63375,-0.8125 0,-0.65 1.04,-1.05625 0.3575,1.1375 1.31625,1.1375 2.1775,0 2.405,-4.33875 -0.47125,0.76375 -1.105,1.12125 -0.6175,0.34125 -1.17,0.34125 -1.04,0 -1.57625,-0.845 -0.52,-0.86125 -0.52,-2.08 0,-2.06375 1.12125,-3.59125 1.12125,-1.5275 2.77875,-1.5275 z"
         style="font-style:italic;font-variant:normal;font-weight:bold;font-stretch:normal;font-size:16.25px;font-family:Overlock;-inkscape-font-specification:'Overlock Bold Italic';fill:#eddcc0;fill-opacity:1"
         id="path4229"
         inkscape:connector-curvature="0" />
      <path
         d="m 140.61293,-28.825246 q 0.0162,1.0075 0.39,1.51125 0.39,0.4875 0.9425,0.4875 0.455,0 0.89375,-0.30875 0.43875,-0.30875 0.715,-0.82875 0.78,0.30875 0.78,0.95875 0,0.50375 -0.76375,0.8775 -0.76375,0.37375 -1.755,0.37375 -0.6175,0 -1.17,-0.1625 -0.53625,-0.17875 -1.02375,-0.52 -0.47125,-0.3575 -0.7475,-0.975 -0.27625,-0.63375 -0.27625,-1.47875 0,-1.18625 0.39,-2.145 0.39,-0.975 1.0075,-1.54375 0.63375,-0.585 1.34875,-0.89375 0.73125,-0.30875 1.44625,-0.30875 1.08875,0 1.64125,0.56875 0.5525,0.5525 0.5525,1.3975 0,0.8125 -0.47125,1.57625 -0.47125,0.7475 -1.2675,1.0725 -0.8775,0.37375 -2.09625,0.37375 -0.24375,0 -0.53625,-0.0325 z m 2.35625,-2.90875 q 0,-0.4225 -0.21125,-0.69875 -0.195,-0.2925 -0.52,-0.2925 -0.60125,0 -1.05625,0.86125 -0.455,0.845 -0.5525,2.1125 0.30875,0 0.52,-0.01625 0.2275,-0.0325 0.60125,-0.14625 0.37375,-0.11375 0.60125,-0.30875 0.24375,-0.195 0.4225,-0.585 0.195,-0.39 0.195,-0.92625 z"
         style="font-style:italic;font-variant:normal;font-weight:bold;font-stretch:normal;font-size:16.25px;font-family:Overlock;-inkscape-font-specification:'Overlock Bold Italic';fill:#eddcc0;fill-opacity:1"
         id="path4231"
         inkscape:connector-curvature="0" />
    </g>
  </g>
</svg>
