<?xml version="1.0" encoding="UTF-8" standalone="no"?>
<!-- Created with Inkscape (http://www.inkscape.org/) -->

<svg
   xmlns:dc="http://purl.org/dc/elements/1.1/"
   xmlns:cc="http://creativecommons.org/ns#"
   xmlns:rdf="http://www.w3.org/1999/02/22-rdf-syntax-ns#"
   xmlns:svg="http://www.w3.org/2000/svg"
   xmlns="http://www.w3.org/2000/svg"
   xmlns:sodipodi="http://sodipodi.sourceforge.net/DTD/sodipodi-0.dtd"
   xmlns:inkscape="http://www.inkscape.org/namespaces/inkscape"
   width="2in"
   height="0.69999999in"
   viewBox="0 0 179.99999 62.999999"
   id="svg2"
   version="1.1"
   inkscape:version="0.91 r13725"
   sodipodi:docname="Return.svg">
  <defs
     id="defs4" />
  <sodipodi:namedview
     id="base"
     pagecolor="#ffffff"
     bordercolor="#666666"
     borderopacity="1.0"
     inkscape:pageopacity="0.0"
     inkscape:pageshadow="2"
     inkscape:zoom="2.8"
     inkscape:cx="105.54921"
     inkscape:cy="47.873717"
     inkscape:document-units="px"
     inkscape:current-layer="layer1"
     showgrid="true"
     borderlayer="true"
     units="in"
     inkscape:window-width="1213"
     inkscape:window-height="754"
     inkscape:window-x="98"
     inkscape:window-y="6"
     inkscape:window-maximized="0"
     showguides="false">
    <inkscape:grid
       type="xygrid"
       id="grid4382" />
  </sodipodi:namedview>
  <metadata
     id="metadata7">
    <rdf:RDF>
      <cc:Work
         rdf:about="">
        <dc:format>image/svg+xml</dc:format>
        <dc:type
           rdf:resource="http://purl.org/dc/dcmitype/StillImage" />
        <dc:title></dc:title>
      </cc:Work>
    </rdf:RDF>
  </metadata>
  <g
     inkscape:label="Layer 1"
     inkscape:groupmode="layer"
     id="layer1"
     transform="translate(0,-989.3622)">
    <g
       transform="translate(39.285707,1057.9336)"
       style="font-style:normal;font-weight:normal;font-size:40px;line-height:125%;font-family:sans-serif;letter-spacing:0px;word-spacing:0px;fill:#3e033d;fill-opacity:1;stroke:none;stroke-width:1px;stroke-linecap:butt;stroke-linejoin:miter;stroke-opacity:1"
       id="flowRoot4872">
      <path
         d="m 17.045,-46.006762 q -0.715,0.0275 -3.3275,0.0275 -0.4675,2.6675 -0.77,5.0875 l -0.715,5.5275 q -0.33,2.42 -0.33,3.7675 0,0.935 0.11,1.6775 -0.66,0.22 -1.705,0.22 -1.595,0 -1.595,-1.155 0,-0.1925 0.1375,-1.1825 0.1375,-1.0175 0.495,-3.74 0.385,-2.75 0.77,-5.8575 0.33,-2.6125 0.4675,-4.345 -2.8325,0 -4.3725,0.11 -0.0275,-0.1925 -0.0275,-0.495 0,-0.825 0.3025,-1.1825 0.3025,-0.3575 1.0175,-0.385 0.6875,-0.0275 2.86,-0.0275 l 2.915,0 q 4.0975,0 5.0325,-0.0825 0.055,0.33 0.055,0.66 0,0.6875 -0.3025,1.0175 -0.3025,0.3025 -1.0175,0.3575 z"
         style="font-style:italic;font-variant:normal;font-weight:bold;font-stretch:normal;font-size:27.5px;font-family:Overlock;-inkscape-font-specification:'Overlock Bold Italic';fill:#3e033d;fill-opacity:1"
         id="path4936" />
      <path
         d="m 21.116289,-29.506762 q -2.42,0 -3.7675,-1.4025 -1.3475,-1.43 -1.3475,-3.96 0,-3.465 1.98,-5.83 1.98,-2.3925 5.06,-2.3925 2.475,0 3.85,1.4575 1.4025,1.43 1.4025,3.96 0,3.4375 -2.0625,5.8025 -2.035,2.365 -5.115,2.365 z m 1.54,-11.77 q -1.5125,0 -2.3925,1.815 -0.88,1.7875 -0.88,4.1525 0,1.7325 0.5775,2.86 0.605,1.1275 1.6775,1.1275 1.485,0 2.365,-1.76 0.88,-1.76 0.88,-4.0975 0,-1.7875 -0.605,-2.9425 -0.5775,-1.155 -1.6225,-1.155 z"
         style="font-style:italic;font-variant:normal;font-weight:bold;font-stretch:normal;font-size:27.5px;font-family:Overlock;-inkscape-font-specification:'Overlock Bold Italic';fill:#3e033d;fill-opacity:1"
         id="path4938" />
      <path
         d="m 45.006484,-44.164262 q -0.2475,-0.77 -1.045,-1.32 -0.7975,-0.55 -1.705,-0.55 -1.2925,0 -2.2275,0.825 -0.9075,0.825 -0.9075,2.3375 0,0.9625 0.6325,1.485 0.6325,0.5225 1.8425,0.9625 0.165,0.055 0.8525,0.3025 0.715,0.2475 0.9625,0.3575 0.2475,0.11 0.7975,0.4125 0.5775,0.275 0.7975,0.55 0.2475,0.2475 0.55,0.66 0.33,0.4125 0.44,0.935 0.1375,0.5225 0.1375,1.1825 0,3.08 -1.8425,4.8125 -1.815,1.705 -4.8675,1.705 -1.925,0 -3.41,-0.6875 -1.4575,-0.715 -1.4575,-1.6775 0,-1.2925 1.76,-1.9525 0.3025,0.9075 1.2925,1.54 1.0175,0.6325 2.0625,0.6325 1.43,0 2.5025,-0.9075 1.0725,-0.935 1.0725,-2.585 0,-1.0175 -0.66,-1.5125 -0.66,-0.495 -1.925,-0.88 -0.88,-0.2475 -1.2925,-0.385 -0.385,-0.1375 -1.1275,-0.5225 -0.7425,-0.4125 -1.1,-0.825 -0.33,-0.44 -0.6325,-1.21 -0.3025,-0.77 -0.3025,-1.76 0,-2.805 1.8425,-4.4 1.87,-1.595 4.675,-1.595 1.595,0 2.97,0.605 1.375,0.605 1.375,1.6775 0,0.66 -0.5225,1.1825 -0.495,0.495 -1.54,0.605 z"
         style="font-style:italic;font-variant:normal;font-weight:bold;font-stretch:normal;font-size:27.5px;font-family:Overlock;-inkscape-font-specification:'Overlock Bold Italic';fill:#3e033d;fill-opacity:1"
         id="path4940" />
      <path
         d="m 49.118164,-42.789262 0.935,0 q 0.0275,-0.165 0.1375,-1.265 0.1375,-1.1 0.165,-1.485 0.5775,-0.1925 1.54,-0.1925 1.5125,0 1.5125,0.935 0,0.1375 -0.33,2.035 2.3375,0 4.125,-0.1375 0.0825,0.33 0.0825,0.66 0,1.2925 -1.265,1.375 -0.8525,0.0275 -3.245,0.0275 -0.99,6.38 -0.99,7.3975 0,1.21 0.4125,1.6225 0.4125,0.4125 1.2925,0.4125 0.88,0 1.65,-0.825 0.715,0.495 0.715,1.265 0,1.4575 -3.2175,1.4575 -1.595,0 -2.6675,-0.8525 -1.0725,-0.8525 -1.0725,-2.86 0,-0.605 0.1375,-1.815 0.165,-1.21 0.44,-3.0525 0.275,-1.8425 0.385,-2.75 -0.4675,0 -2.2825,0.165 -0.055,-0.385 -0.055,-0.5775 0,-1.54 1.595,-1.54 z"
         style="font-style:italic;font-variant:normal;font-weight:bold;font-stretch:normal;font-size:27.5px;font-family:Overlock;-inkscape-font-specification:'Overlock Bold Italic';fill:#3e033d;fill-opacity:1"
         id="path4942" />
      <path
         d="m 64.978789,-32.366762 q -1.8975,2.86 -4.2075,2.86 -1.5675,0 -2.5575,-1.265 -0.9625,-1.265 -0.9625,-3.685 0,-3.5475 1.8975,-6.0775 1.925,-2.5575 4.7025,-2.5575 3.025,0 5.3625,1.5675 -1.3475,6.16 -1.3475,8.5525 0,1.2925 1.045,1.76 -0.11,0.6325 -0.6325,1.1825 -0.495,0.5225 -1.375,0.5225 -0.9075,0 -1.43,-0.66 -0.5225,-0.66 -0.5225,-1.6775 0,-0.3575 0.0275,-0.5225 z m 0.3025,-3.08 0.7425,-4.675 q -1.0725,-1.155 -2.2,-1.155 -1.375,0 -2.2825,1.76 -0.9075,1.7325 -0.9075,4.4825 0,1.485 0.44,2.475 0.4675,0.9625 1.21,0.9625 0.66,0 1.5125,-1.0725 0.8525,-1.1 1.485,-2.7775 z"
         style="font-style:italic;font-variant:normal;font-weight:bold;font-stretch:normal;font-size:27.5px;font-family:Overlock;-inkscape-font-specification:'Overlock Bold Italic';fill:#3e033d;fill-opacity:1"
         id="path4944" />
      <path
         d="m 78.697422,-40.396762 q -1.6225,0 -3.135,2.3375 -0.715,4.84 -0.715,6.655 0,0.7975 0.0825,1.485 -1.0725,0.2475 -1.815,0.2475 -1.5125,0 -1.5125,-0.9625 0,-0.3575 0.605,-4.345 0.6325,-4.015 0.6325,-4.785 0,-1.155 -0.77,-1.485 0.11,-0.8525 0.7425,-1.3475 0.6325,-0.495 1.4025,-0.495 0.715,0 1.21,0.44 0.495,0.44 0.495,1.265 0,0.4675 -0.0825,0.9625 0.66,-1.0725 1.6225,-1.87 0.99,-0.7975 2.0075,-0.7975 1.2375,0 1.2375,1.32 0,1.0725 -0.77,1.8975 -0.5225,-0.5225 -1.2375,-0.5225 z"
         style="font-style:italic;font-variant:normal;font-weight:bold;font-stretch:normal;font-size:27.5px;font-family:Overlock;-inkscape-font-specification:'Overlock Bold Italic';fill:#3e033d;fill-opacity:1"
         id="path4946" />
      <path
         d="m 82.365234,-42.789262 0.935,0 q 0.0275,-0.165 0.1375,-1.265 0.1375,-1.1 0.165,-1.485 0.5775,-0.1925 1.54,-0.1925 1.5125,0 1.5125,0.935 0,0.1375 -0.33,2.035 2.3375,0 4.125,-0.1375 0.0825,0.33 0.0825,0.66 0,1.2925 -1.265,1.375 -0.8525,0.0275 -3.245,0.0275 -0.99,6.38 -0.99,7.3975 0,1.21 0.4125,1.6225 0.4125,0.4125 1.2925,0.4125 0.88,0 1.65,-0.825 0.715,0.495 0.715,1.265 0,1.4575 -3.2175,1.4575 -1.595,0 -2.6675,-0.8525 -1.0725,-0.8525 -1.0725,-2.86 0,-0.605 0.1375,-1.815 0.165,-1.21 0.44,-3.0525 0.275,-1.8425 0.385,-2.75 -0.4675,0 -2.2825,0.165 -0.055,-0.385 -0.055,-0.5775 0,-1.54 1.595,-1.54 z"
         style="font-style:italic;font-variant:normal;font-weight:bold;font-stretch:normal;font-size:27.5px;font-family:Overlock;-inkscape-font-specification:'Overlock Bold Italic';fill:#3e033d;fill-opacity:1"
         id="path4948" />
    </g>
  </g>
</svg>
