<?xml version="1.0" encoding="UTF-8" standalone="no"?>
<!-- Created with Inkscape (http://www.inkscape.org/) -->

<svg
   xmlns:dc="http://purl.org/dc/elements/1.1/"
   xmlns:cc="http://creativecommons.org/ns#"
   xmlns:rdf="http://www.w3.org/1999/02/22-rdf-syntax-ns#"
   xmlns:svg="http://www.w3.org/2000/svg"
   xmlns="http://www.w3.org/2000/svg"
   xmlns:sodipodi="http://sodipodi.sourceforge.net/DTD/sodipodi-0.dtd"
   xmlns:inkscape="http://www.inkscape.org/namespaces/inkscape"
   width="2in"
   height="0.69999999in"
   viewBox="0 0 179.99999 62.999999"
   id="svg2"
   version="1.1"
   inkscape:version="0.91 r13725"
   sodipodi:docname="RSVP_os.svg">
  <defs
     id="defs4" />
  <sodipodi:namedview
     id="base"
     pagecolor="#ffffff"
     bordercolor="#666666"
     borderopacity="1.0"
     inkscape:pageopacity="0.0"
     inkscape:pageshadow="2"
     inkscape:zoom="2.8"
     inkscape:cx="93.718423"
     inkscape:cy="47.873717"
     inkscape:document-units="px"
     inkscape:current-layer="layer1"
     showgrid="true"
     borderlayer="true"
     units="in"
     inkscape:window-width="1213"
     inkscape:window-height="754"
     inkscape:window-x="98"
     inkscape:window-y="6"
     inkscape:window-maximized="0"
     showguides="false">
    <inkscape:grid
       type="xygrid"
       id="grid4382" />
  </sodipodi:namedview>
  <metadata
     id="metadata7">
    <rdf:RDF>
      <cc:Work
         rdf:about="">
        <dc:format>image/svg+xml</dc:format>
        <dc:type
           rdf:resource="http://purl.org/dc/dcmitype/StillImage" />
        <dc:title></dc:title>
      </cc:Work>
    </rdf:RDF>
  </metadata>
  <g
     inkscape:label="Layer 1"
     inkscape:groupmode="layer"
     id="layer1"
     transform="translate(0,-989.3622)">
    <rect
       style="opacity:1;fill:#3e033d;fill-opacity:1;stroke:none;stroke-width:10;stroke-miterlimit:4;stroke-dasharray:none;stroke-opacity:1"
       id="rect4602"
       width="79.644653"
       height="1.46319"
       x="50.404819"
       y="1036.0402"
       ry="7.7560777e-05" />
    <g
       transform="matrix(0.83519098,0,0,0.83519098,64.332022,1055.4413)"
       style="font-style:normal;font-weight:normal;font-size:40px;line-height:125%;font-family:sans-serif;letter-spacing:0px;word-spacing:0px;fill:#3e033d;fill-opacity:1;stroke:none;stroke-width:1px;stroke-linecap:butt;stroke-linejoin:miter;stroke-opacity:1"
       id="flowRoot6253">
      <path
         d="m 5.04,-34.449836 q 1,2.12 1.72,3.16 0.72,1.04 2.44,1.04 0.8,0 1.12,-0.12 0.16,0.72 0.16,1.28 0,2.08 -3.16,2.08 -2.72,0 -4,-2.28 -1.84,-3.24 -3.88,-8.96 -0.68,-0.24 -0.68,-0.92 0,-0.8 0.68,-1.6 0.32,0.16 0.88,0.16 1.4,0 2.64,-0.68 2.6,-1.48 2.6,-5.68 0,-2.56 -1,-3.4 -0.96,-0.88 -3.12,-0.88 -1.32,0 -2.16,0.16 -0.2,3.52 -0.68,6.96 l -1.2,8.8 q -0.48,3.52 -0.48,5.52 0,1.24 0.16,2.2 -0.96,0.32 -2.56,0.32 -2.24,0 -2.24,-1.68 0,-0.4 0.16,-1.64 0.2,-1.28 0.48,-3.12 0.28,-1.84 0.4,-2.92 l 1,-8 q 0.72,-5.84 0.72,-9.2 2.8,-0.48 5.92,-0.48 3.96,0 6.56,1.6 2.64,1.6 2.64,5.32 0,3.48 -1.88,5.96 -1.88,2.48 -4.84,3.16 0.6,1.72 1.6,3.84 z"
         style="font-style:italic;font-variant:normal;font-weight:bold;font-stretch:normal;font-family:Overlock;-inkscape-font-specification:'Overlock Bold Italic';fill:#3e033d;fill-opacity:1"
         id="path6408"
         inkscape:connector-curvature="0" />
      <path
         d="m 27.41,-48.329836 q -0.36,-1.12 -1.52,-1.92 -1.16,-0.8 -2.48,-0.8 -1.88,0 -3.24,1.2 -1.32,1.2 -1.32,3.4 0,1.4 0.92,2.16 0.92,0.76 2.68,1.4 0.24,0.08 1.24,0.44 1.04,0.36 1.4,0.52 0.36,0.16 1.16,0.6 0.84,0.4 1.16,0.8 0.36,0.36 0.8,0.96 0.48,0.6 0.64,1.36 0.2,0.76 0.2,1.72 0,4.48 -2.68,7 -2.64,2.48 -7.08,2.48 -2.8,0 -4.96,-1 -2.12,-1.04 -2.12,-2.44 0,-1.88 2.56,-2.84 0.44,1.32 1.88,2.24 1.48,0.92 3,0.92 2.08,0 3.64,-1.32 1.56,-1.36 1.56,-3.76 0,-1.48 -0.96,-2.2 -0.96,-0.72 -2.8,-1.28 -1.28,-0.36 -1.88,-0.56 -0.56,-0.2 -1.64,-0.76 -1.08,-0.6 -1.6,-1.2 -0.48,-0.64 -0.92,-1.76 -0.44,-1.12 -0.44,-2.56 0,-4.08 2.68,-6.4 2.72,-2.32 6.8,-2.32 2.32,0 4.32,0.88 2,0.88 2,2.44 0,0.96 -0.76,1.72 -0.72,0.72 -2.24,0.88 z"
         style="font-style:italic;font-variant:normal;font-weight:bold;font-stretch:normal;font-family:Overlock;-inkscape-font-specification:'Overlock Bold Italic';fill:#3e033d;fill-opacity:1"
         id="path6410"
         inkscape:connector-curvature="0" />
      <path
         d="m 35.531875,-48.249836 q 0,-2.92 -1.08,-5.16 1.8,-0.96 3.16,-0.96 2.56,0 2.56,3.8 0,2.04 -0.92,7.52 -0.88,5.44 -0.88,8 0,3.88 1.24,5.48 2.52,-0.84 4.76,-4.24 2.28,-3.44 3.56,-7.64 1.28,-4.24 1.28,-7.84 0,-2.48 -0.68,-4.24 1.68,-0.84 3.04,-0.84 2.64,0 2.64,3.2 0,2.2 -0.68,5.28 -0.64,3.04 -2,6.36 -1.32,3.28 -3.08,6.08 -1.72,2.8 -4.16,4.64 -2.4,1.8 -4.96,1.8 -1.4,0 -2.64,-0.44 -2.48,-2.64 -2.48,-7.6 0,-2.56 0.64,-6.24 0.68,-3.68 0.68,-6.96 z"
         style="font-style:italic;font-variant:normal;font-weight:bold;font-stretch:normal;font-family:Overlock;-inkscape-font-specification:'Overlock Bold Italic';fill:#3e033d;fill-opacity:1"
         id="path6412"
         inkscape:connector-curvature="0" />
      <path
         d="m 64.508125,-39.889836 q 2.4,0 3.64,-1.96 1.24,-1.96 1.24,-5.04 0,-2.48 -1.12,-3.4 -1.08,-0.96 -3.12,-0.96 -1.12,0 -2.04,0.16 -0.28,3.64 -1.2,10.2 1.2,1 2.6,1 z m -7.36,3.24 1,-8 q 0.72,-6.2 0.72,-9.2 2.8,-0.48 5.88,-0.48 9.24,0 9.24,7.2 0,4.76 -2.6,7.56 -2.6,2.76 -5.92,2.76 -2.4,0 -3.92,-1.28 -0.8,5.96 -0.8,8.24 0,1.28 0.16,2.24 -0.96,0.32 -2.56,0.32 -2.24,0 -2.24,-1.68 0,-0.36 0.16,-1.6 0.2,-1.28 0.48,-3.12 0.28,-1.88 0.4,-2.96 z"
         style="font-style:italic;font-variant:normal;font-weight:bold;font-stretch:normal;font-family:Overlock;-inkscape-font-specification:'Overlock Bold Italic';fill:#3e033d;fill-opacity:1"
         id="path6414"
         inkscape:connector-curvature="0" />
    </g>
  </g>
</svg>
