<?xml version="1.0" encoding="UTF-8" standalone="no"?>
<!-- Created with Inkscape (http://www.inkscape.org/) -->

<svg
   xmlns:dc="http://purl.org/dc/elements/1.1/"
   xmlns:cc="http://creativecommons.org/ns#"
   xmlns:rdf="http://www.w3.org/1999/02/22-rdf-syntax-ns#"
   xmlns:svg="http://www.w3.org/2000/svg"
   xmlns="http://www.w3.org/2000/svg"
   xmlns:sodipodi="http://sodipodi.sourceforge.net/DTD/sodipodi-0.dtd"
   xmlns:inkscape="http://www.inkscape.org/namespaces/inkscape"
   width="3.5999999in"
   height="1in"
   viewBox="0 0 324 90"
   id="svg2"
   version="1.1"
   inkscape:version="0.91 r13725"
   sodipodi:docname="ScDow.svg">
  <defs
     id="defs4" />
  <sodipodi:namedview
     id="base"
     pagecolor="#ffffff"
     bordercolor="#666666"
     borderopacity="1.0"
     inkscape:pageopacity="0.0"
     inkscape:pageshadow="2"
     inkscape:zoom="1.4"
     inkscape:cx="222.12843"
     inkscape:cy="77.563389"
     inkscape:document-units="px"
     inkscape:current-layer="layer1"
     showgrid="false"
     units="in"
     inkscape:window-width="1436"
     inkscape:window-height="855"
     inkscape:window-x="4"
     inkscape:window-y="1"
     inkscape:window-maximized="1"
     borderlayer="true" />
  <metadata
     id="metadata7">
    <rdf:RDF>
      <cc:Work
         rdf:about="">
        <dc:format>image/svg+xml</dc:format>
        <dc:type
           rdf:resource="http://purl.org/dc/dcmitype/StillImage" />
        <dc:title></dc:title>
      </cc:Work>
    </rdf:RDF>
  </metadata>
  <g
     inkscape:label="Layer 1"
     inkscape:groupmode="layer"
     id="layer1"
     transform="translate(0,-962.36215)">
    <g
       transform="matrix(1.7075538,0,0,1.7075538,309.09343,913.5264)"
       style="font-style:normal;font-weight:normal;font-size:40px;line-height:125%;font-family:sans-serif;letter-spacing:0px;word-spacing:0px;fill:#eddcc0;fill-opacity:1;stroke:none;stroke-width:1px;stroke-linecap:butt;stroke-linejoin:miter;stroke-opacity:1"
       id="flowRoot4152">
      <path
         d="m -161.69742,47.46118 q -0.36,-1.12 -1.52,-1.92 -1.16,-0.8 -2.48,-0.8 -1.88,0 -3.24,1.2 -1.32,1.2 -1.32,3.4 0,1.4 0.92,2.16 0.92,0.76 2.68,1.4 0.24,0.08 1.24,0.44 1.04,0.36 1.4,0.52 0.36,0.16 1.16,0.6 0.84,0.4 1.16,0.8 0.36,0.36 0.8,0.96 0.48,0.6 0.64,1.36 0.2,0.76 0.2,1.72 0,4.48 -2.68,7 -2.64,2.48 -7.08,2.48 -2.8,0 -4.96,-1 -2.12,-1.04 -2.12,-2.44 0,-1.88 2.56,-2.84 0.44,1.32 1.88,2.24 1.48,0.92 3,0.92 2.08,0 3.64,-1.32 1.56,-1.36 1.56,-3.76 0,-1.48 -0.96,-2.2 -0.96,-0.72 -2.8,-1.28 -1.28,-0.36 -1.88,-0.56 -0.56,-0.2 -1.64,-0.76 -1.08,-0.6 -1.6,-1.2 -0.48,-0.64 -0.92,-1.76 -0.44,-1.12 -0.44,-2.56 0,-4.08 2.68,-6.4 2.72,-2.32 6.8,-2.32 2.32,0 4.32,0.88 2,0.88 2,2.44 0,0.96 -0.76,1.72 -0.72,0.72 -2.24,0.88 z"
         style="font-style:italic;font-variant:normal;font-weight:bold;font-stretch:normal;font-family:Overlock;-inkscape-font-specification:'Overlock Bold Italic';fill:#eddcc0;fill-opacity:1"
         id="path4215" />
      <path
         d="m -145.1568,54.90118 q -0.84,-3.04 -2.92,-3.04 -2.08,0 -3.36,2.6 -1.28,2.56 -1.28,6.12 0,2.8 0.92,4.2 0.92,1.36 2.4,1.36 2.4,0 3.96,-2.8 1.92,0.76 1.92,2.36 0,1.24 -1.92,2.16 -1.92,0.92 -4.28,0.92 -3.64,0 -5.8,-2.04 -2.12,-2.04 -2.12,-5.56 0,-2.96 0.92,-5.36 0.92,-2.4 2.44,-3.84 1.52,-1.44 3.28,-2.2 1.76,-0.76 3.6,-0.76 2,0 3.76,0.84 1.76,0.8 1.76,2.4 0,0.96 -0.76,1.8 -0.76,0.8 -2.52,0.84 z"
         style="font-style:italic;font-variant:normal;font-weight:bold;font-stretch:normal;font-family:Overlock;-inkscape-font-specification:'Overlock Bold Italic';fill:#eddcc0;fill-opacity:1"
         id="path4217" />
      <path
         d="m -129.41117,52.94118 q -2.36,0 -4.56,3.4 -1.04,7.04 -1.04,9.68 0,1.16 0.12,2.16 -1.56,0.36 -2.64,0.36 -2.2,0 -2.2,-1.4 0,-0.52 0.88,-6.32 0.92,-5.84 0.92,-6.96 0,-1.68 -1.12,-2.16 0.16,-1.24 1.08,-1.96 0.92,-0.72 2.04,-0.72 1.04,0 1.76,0.64 0.72,0.64 0.72,1.84 0,0.68 -0.12,1.4 0.96,-1.56 2.36,-2.72 1.44,-1.16 2.92,-1.16 1.8,0 1.8,1.92 0,1.56 -1.12,2.76 -0.76,-0.76 -1.8,-0.76 z"
         style="font-style:italic;font-variant:normal;font-weight:bold;font-stretch:normal;font-family:Overlock;-inkscape-font-specification:'Overlock Bold Italic';fill:#eddcc0;fill-opacity:1"
         id="path4219" />
      <path
         d="m -119.5718,68.78118 q -3.52,0 -5.48,-2.04 -1.96,-2.08 -1.96,-5.76 0,-5.04 2.88,-8.48 2.88,-3.48 7.36,-3.48 3.6,0 5.6,2.12 2.04,2.08 2.04,5.76 0,5 -3,8.44 -2.96,3.44 -7.44,3.44 z m 2.24,-17.12 q -2.2,0 -3.48,2.64 -1.28,2.6 -1.28,6.04 0,2.52 0.84,4.16 0.88,1.64 2.44,1.64 2.16,0 3.44,-2.56 1.28,-2.56 1.28,-5.96 0,-2.6 -0.88,-4.28 -0.84,-1.68 -2.36,-1.68 z"
         style="font-style:italic;font-variant:normal;font-weight:bold;font-stretch:normal;font-family:Overlock;-inkscape-font-specification:'Overlock Bold Italic';fill:#eddcc0;fill-opacity:1"
         id="path4221" />
      <path
         d="m -103.93367,39.46118 q 0.88,-0.8 2.16,-0.8 1.28,0 1.879998,0.76 0.6,0.72 0.6,1.8 0,1.48 -1.519998,11.52 -1.48,10 -1.6,11.28 0,1.68 1.48,2.28 -0.48,2.48 -2.84,2.48 -1.44,0 -2.16,-1.08 -0.68,-1.08 -0.68,-2.56 0,-1.88 1.32,-10.88 1.36,-9 1.48,-10.88 0,-1.48 -1.08,-2.04 0.08,-1.08 0.96,-1.88 z"
         style="font-style:italic;font-variant:normal;font-weight:bold;font-stretch:normal;font-family:Overlock;-inkscape-font-specification:'Overlock Bold Italic';fill:#eddcc0;fill-opacity:1"
         id="path4223" />
      <path
         d="m -94.793047,39.46118 q 0.88,-0.8 2.16,-0.8 1.28,0 1.88,0.76 0.6,0.72 0.6,1.8 0,1.48 -1.52,11.52 -1.48,10 -1.6,11.28 0,1.68 1.48,2.28 -0.48,2.48 -2.84,2.48 -1.44,0 -2.16,-1.08 -0.68,-1.08 -0.68,-2.56 0,-1.88 1.32,-10.88 1.36,-9 1.48,-10.88 0,-1.48 -1.08,-2.04 0.08,-1.08 0.96,-1.88 z"
         style="font-style:italic;font-variant:normal;font-weight:bold;font-stretch:normal;font-family:Overlock;-inkscape-font-specification:'Overlock Bold Italic';fill:#eddcc0;fill-opacity:1"
         id="path4225" />
      <path
         d="m -80.234297,66.26118 q 1.16,-5.32 2.12,-12.24 0.96,-6.92 1.08,-12.08 2.28,-0.48 5.96,-0.48 12.12,0 12.12,10.76 0,4.32 -1.56,8.04 -1.52,3.68 -4.72,6.12 -3.16,2.4 -7.36,2.4 -5.12,0 -7.64,-2.52 z m 7.44,-21.56 q -0.84,10.12 -2.8,19.56 1.44,1.44 3.88,1.44 2.2,0 3.84,-1.2 1.64,-1.24 2.52,-3.2 0.88,-1.96 1.28,-4 0.44,-2.04 0.44,-4.08 0,-4.32 -1.88,-6.48 -1.84,-2.2 -5.28,-2.2 -0.72,0 -2,0.16 z"
         style="font-style:italic;font-variant:normal;font-weight:bold;font-stretch:normal;font-family:Overlock;-inkscape-font-specification:'Overlock Bold Italic';fill:#eddcc0;fill-opacity:1"
         id="path4227" />
      <path
         d="m -49.728047,68.78118 q -3.52,0 -5.48,-2.04 -1.96,-2.08 -1.96,-5.76 0,-5.04 2.88,-8.48 2.88,-3.48 7.36,-3.48 3.6,0 5.6,2.12 2.04,2.08 2.04,5.76 0,5 -3,8.44 -2.96,3.44 -7.44,3.44 z m 2.24,-17.12 q -2.2,0 -3.48,2.64 -1.28,2.6 -1.28,6.04 0,2.52 0.84,4.16 0.88,1.64 2.44,1.64 2.16,0 3.44,-2.56 1.28,-2.56 1.28,-5.96 0,-2.6 -0.88,-4.28 -0.84,-1.68 -2.36,-1.68 z"
         style="font-style:italic;font-variant:normal;font-weight:bold;font-stretch:normal;font-family:Overlock;-inkscape-font-specification:'Overlock Bold Italic';fill:#eddcc0;fill-opacity:1"
         id="path4229" />
      <path
         d="m -35.449922,53.42118 q 0,-2 -0.76,-3.6 1.56,-0.8 3.16,-0.8 2.56,0 2.56,2.64 0,1.44 -0.64,5.24 -0.64,3.8 -0.64,5.6 0,2.12 0.56,3.24 2.04,-0.44 3.56,-4.4 1.52,-4 1.52,-7.24 0,-2.12 -0.6,-3.32 1.24,-0.72 2.96,-0.72 1.24,0 1.8,0.72 0.56,0.72 0.56,1.8 0,2.56 -1.56,6.44 -0.08,1.28 -0.08,1.96 0,3.28 0.72,4.76 2.04,-0.48 3.56,-4.72 1.52,-4.28 1.52,-7.72 0,-2.32 -0.6,-3.56 1.24,-0.72 2.96,-0.72 1.24,0 1.8,0.76 0.56,0.76 0.56,1.88 0,1.92 -0.88,4.76 -0.88,2.8 -2.36,5.6 -1.44,2.8 -3.72,4.8 -2.28,1.96 -4.72,1.96 -0.8,0 -1.48,-0.32 -1,-1 -1.2,-2.92 -2.96,3.24 -6.2,3.24 -0.8,0 -1.48,-0.32 -1.68,-1.72 -1.68,-5.48 0,-1.84 0.4,-4.52 0.4,-2.68 0.4,-5.04 z"
         style="font-style:italic;font-variant:normal;font-weight:bold;font-stretch:normal;font-family:Overlock;-inkscape-font-specification:'Overlock Bold Italic';fill:#eddcc0;fill-opacity:1"
         id="path4231" />
      <path
         d="m -5.1867969,58.02118 q -0.8,6 -0.8,8 0,1.16 0.12,2.16 -1.56,0.36 -2.64,0.36 -2.2000001,0 -2.2000001,-1.4 0,-0.52 0.8800001,-6.32 0.92,-5.84 0.92,-6.96 0,-1.68 -1.1200001,-2.16 0.1600001,-1.24 1.0800001,-1.96 0.92,-0.72 2.04,-0.72 1.04,0 1.76,0.64 0.72,0.64 0.72,1.84 0,0.72 -0.12,1.44 1.16,-1.88 2.8,-2.88 1.68000003,-1.04 3.2,-1.04 1.96,0 3,1.4 1.08,1.4 1.08,3.64 0,0.72 -0.72,4.8 -0.68,4.08 -0.76,5.2 0,1.56 1.48,2.24 -0.16,1.12 -1.04,1.8 -0.84,0.68 -1.88,0.68 -1.2,0 -2.03999997,-0.92 -0.84000001,-0.92 -0.84000001,-2.68 0,-1.68 0.72,-5.68 0.71999998,-4.04 0.71999998,-4.8 0,-2.6 -1.59999998,-2.6 -1.20000002,0 -2.52000002,1.68 -1.28,1.64 -2.24,4.24 z"
         style="font-style:italic;font-variant:normal;font-weight:bold;font-stretch:normal;font-family:Overlock;-inkscape-font-specification:'Overlock Bold Italic';fill:#eddcc0;fill-opacity:1"
         id="path4233" />
    </g>
  </g>
</svg>
