<?xml version="1.0" encoding="UTF-8" standalone="no"?>
<!-- Created with Inkscape (http://www.inkscape.org/) -->

<svg
   xmlns:dc="http://purl.org/dc/elements/1.1/"
   xmlns:cc="http://creativecommons.org/ns#"
   xmlns:rdf="http://www.w3.org/1999/02/22-rdf-syntax-ns#"
   xmlns:svg="http://www.w3.org/2000/svg"
   xmlns="http://www.w3.org/2000/svg"
   xmlns:sodipodi="http://sodipodi.sourceforge.net/DTD/sodipodi-0.dtd"
   xmlns:inkscape="http://www.inkscape.org/namespaces/inkscape"
   width="17in"
   height="4.4444447in"
   viewBox="0 0 1530.0001 400.00001"
   id="svg2"
   version="1.1"
   inkscape:version="0.91 r13725"
   sodipodi:docname="Thanks.svg">
  <defs
     id="defs4" />
  <sodipodi:namedview
     id="base"
     pagecolor="#ffffff"
     bordercolor="#666666"
     borderopacity="1.0"
     inkscape:pageopacity="0.0"
     inkscape:pageshadow="2"
     inkscape:zoom="0.35"
     inkscape:cx="709.87322"
     inkscape:cy="472.66131"
     inkscape:document-units="px"
     inkscape:current-layer="layer1"
     showgrid="false"
     borderlayer="true"
     units="in"
     inkscape:window-width="1053"
     inkscape:window-height="806"
     inkscape:window-x="327"
     inkscape:window-y="0"
     inkscape:window-maximized="0" />
  <metadata
     id="metadata7">
    <rdf:RDF>
      <cc:Work
         rdf:about="">
        <dc:format>image/svg+xml</dc:format>
        <dc:type
           rdf:resource="http://purl.org/dc/dcmitype/StillImage" />
        <dc:title></dc:title>
      </cc:Work>
    </rdf:RDF>
  </metadata>
  <g
     inkscape:label="Layer 1"
     inkscape:groupmode="layer"
     id="layer1"
     transform="translate(0,-652.36219)">
    <g
       transform="matrix(4.2280158,0,0,4.2280158,241.88593,1046.17)"
       style="font-style:normal;font-weight:normal;font-size:40px;line-height:125%;font-family:sans-serif;letter-spacing:0px;word-spacing:0px;fill:#eddcc0;fill-opacity:1;stroke:none;stroke-width:1px;stroke-linecap:butt;stroke-linejoin:miter;stroke-opacity:1"
       id="flowRoot4136">
      <path
         d="m -33.907734,-61.152414 q -1.04,0.04 -4.84,0.04 -0.68,3.88 -1.12,7.4 l -1.04,8.04 q -0.48,3.52 -0.48,5.48 0,1.36 0.16,2.44 -0.96,0.32 -2.48,0.32 -2.32,0 -2.32,-1.68 0,-0.28 0.2,-1.72 0.2,-1.48 0.72,-5.44 0.56,-4 1.12,-8.52 0.48,-3.8 0.68,-6.32 -4.12,0 -6.36,0.16 -0.04,-0.28 -0.04,-0.72 0,-1.2 0.44,-1.72 0.44,-0.52 1.48,-0.56 1,-0.04 4.16,-0.04 l 4.24,0 q 5.96,0 7.32,-0.12 0.08,0.48 0.08,0.96 0,1 -0.44,1.48 -0.44,0.44 -1.48,0.52 z"
         style="font-style:italic;font-variant:normal;font-weight:bold;font-stretch:normal;font-family:Overlock;-inkscape-font-specification:'Overlock Bold Italic';fill:#eddcc0;fill-opacity:1"
         id="path4180" />
      <path
         d="m -27.554609,-47.912414 q -0.8,6 -0.8,8 0,1.16 0.12,2.16 -1.56,0.36 -2.64,0.36 -2.2,0 -2.2,-1.4 0,-1.4 1.68,-11.84 1.72,-10.48 1.72,-11.92 0,-1.48 -1.08,-2.04 0.08,-1.08 0.96,-1.88 0.88,-0.8 2.16,-0.8 1.28,0 1.88,0.76 0.6,0.72 0.6,1.8 0,0.96 -0.56,5.04 -0.56,4.08 -0.96,6.32 1.2,-1.72 2.76,-2.64 1.56,-0.92 3,-0.92 1.96,0 3,1.4 1.08,1.4 1.08,3.64 0,0.72 -0.72,4.8 -0.68,4.08 -0.76,5.2 0,1.56 1.48,2.24 -0.16,1.12 -1.04,1.8 -0.84,0.68 -1.88,0.68 -1.2,0 -2.04,-0.92 -0.84,-0.92 -0.84,-2.68 0,-1.68 0.72,-5.68 0.72,-4.04 0.72,-4.8 0,-2.6 -1.6,-2.6 -1.2,0 -2.52,1.68 -1.28,1.64 -2.24,4.24 z"
         style="font-style:italic;font-variant:normal;font-weight:bold;font-stretch:normal;font-family:Overlock;-inkscape-font-specification:'Overlock Bold Italic';fill:#eddcc0;fill-opacity:1"
         id="path4182" />
      <path
         d="m -3.1702344,-41.312414 q -2.76,4.16 -6.12,4.16 -2.2799996,0 -3.7199996,-1.84 -1.4,-1.84 -1.4,-5.36 0,-5.16 2.76,-8.84 2.7999996,-3.72 6.8399996,-3.72 4.40000003,0 7.8,2.28 -1.96,8.96 -1.96,12.44 0,1.88 1.52,2.56 -0.16,0.92 -0.92,1.72 -0.71999997,0.76 -1.99999997,0.76 -1.32000003,0 -2.08000003,-0.96 -0.76,-0.96 -0.76,-2.44 0,-0.52 0.04,-0.76 z m 0.44,-4.48 1.08,-6.8 q -1.56,-1.68 -3.2,-1.68 -2,0 -3.32,2.56 -1.32,2.52 -1.32,6.52 0,2.16 0.64,3.6 0.68,1.4 1.76,1.4 0.96,0 2.2,-1.56 1.24,-1.6 2.16,-4.04 z"
         style="font-style:italic;font-variant:normal;font-weight:bold;font-stretch:normal;font-family:Overlock;-inkscape-font-specification:'Overlock Bold Italic';fill:#eddcc0;fill-opacity:1"
         id="path4184" />
      <path
         d="m 12.024141,-47.912414 q -0.8,6 -0.8,8 0,1.16 0.12,2.16 -1.5600004,0.36 -2.6400004,0.36 -2.2,0 -2.2,-1.4 0,-0.52 0.88,-6.32 0.92,-5.84 0.92,-6.96 0,-1.68 -1.12,-2.16 0.16,-1.24 1.08,-1.96 0.92,-0.72 2.0400004,-0.72 1.04,0 1.76,0.64 0.72,0.64 0.72,1.84 0,0.72 -0.12,1.44 1.16,-1.88 2.8,-2.88 1.68,-1.04 3.2,-1.04 1.96,0 3,1.4 1.08,1.4 1.08,3.64 0,0.72 -0.72,4.8 -0.68,4.08 -0.76,5.2 0,1.56 1.48,2.24 -0.16,1.12 -1.04,1.8 -0.84,0.68 -1.88,0.68 -1.2,0 -2.04,-0.92 -0.84,-0.92 -0.84,-2.68 0,-1.68 0.72,-5.68 0.72,-4.04 0.72,-4.8 0,-2.6 -1.6,-2.6 -1.2,0 -2.52,1.68 -1.28,1.64 -2.24,4.24 z"
         style="font-style:italic;font-variant:normal;font-weight:bold;font-stretch:normal;font-family:Overlock;-inkscape-font-specification:'Overlock Bold Italic';fill:#eddcc0;fill-opacity:1"
         id="path4186" />
      <path
         d="m 38.740391,-56.912414 q 2.2,0 3.28,1.2 1.12,1.16 1.12,3.04 0,2.56 -1.84,4.92 -1.8,2.36 -4.6,2.72 1.24,2.52 2.16,3.6 0.88,1.04 2.32,1.04 0.48,0 1.08,-0.12 0.16,0.6 0.16,1.28 0,2.08 -2.92,2.08 -2.16,0 -3.44,-1.8 -1.28,-1.8 -2.84,-6.16 -0.64,-0.4 -0.64,-1 0,-0.64 0.52,-1.44 0.84,0.32 1.52,0.32 1.56,0 2.56,-1.2 1.04,-1.24 1.04,-2.92 0,-1.08 -0.44,-1.8 -0.44,-0.72 -1.32,-0.72 -0.96,0 -2.36,1.64 -1.4,1.64 -2.24,4 -0.84,5.72 -0.84,8.32 0,1.16 0.12,2.16 -1.56,0.36 -2.64,0.36 -2.2,0 -2.2,-1.4 0,-1.4 1.68,-11.84 1.72,-10.48 1.72,-11.92 0,-1.48 -1.08,-2.04 0.08,-1.08 0.96,-1.88 0.88,-0.8 2.16,-0.8 1.28,0 1.88,0.76 0.6,0.72 0.6,1.8 0,0.96 -0.56,5.08 -0.56,4.12 -1,6.56 2.56,-3.84 6.08,-3.84 z"
         style="font-style:italic;font-variant:normal;font-weight:bold;font-stretch:normal;font-family:Overlock;-inkscape-font-specification:'Overlock Bold Italic';fill:#eddcc0;fill-opacity:1"
         id="path4188" />
      <path
         d="m 55.442891,-51.352414 q -0.4,-1.4 -1.16,-2.08 -0.72,-0.68 -1.6,-0.68 -1.08,0 -2,0.88 -0.92,0.88 -0.92,2.08 0,1.08 0.8,1.68 0.84,0.6 2,0.92 1.16,0.32 2.32,0.76 1.16,0.44 1.96,1.56 0.84,1.12 0.84,2.92 0,3.04 -2.2,4.6 -2.16,1.56 -5.64,1.56 -2.36,0 -4.04,-0.88 -1.64,-0.88 -1.64,-2.36 0,-2.04 2.4,-2.52 0.36,1.36 1.36,2.12 1,0.76 2.2,0.76 1.68,0 2.68,-0.72 1.04,-0.76 1.04,-1.76 0,-1.04 -0.84,-1.64 -0.8,-0.6 -1.96,-0.96 -1.16,-0.36 -2.36,-0.84 -1.16,-0.48 -2,-1.6 -0.8,-1.12 -0.8,-2.88 0,-3.24 2.2,-4.88 2.2,-1.64 5.36,-1.64 1.76,0 3.36,0.88 1.6,0.84 1.6,2.36 0,2.04 -2.96,2.36 z"
         style="font-style:italic;font-variant:normal;font-weight:bold;font-stretch:normal;font-family:Overlock;-inkscape-font-specification:'Overlock Bold Italic';fill:#eddcc0;fill-opacity:1"
         id="path4190" />
      <path
         d="m 81.411641,-60.632414 q -0.72,-2.6 -2.68,-2.6 -1.44,0 -2.28,2 -0.8,1.96 -1,4.8 2.92,0 5.44,-0.2 0.12,0.52 0.12,1 0,1.84 -1.92,1.92 -0.92,0.08 -3.88,0.08 -0.96,9.92 -1.52,13.8 -0.2,1.44 -0.44,2.48 -0.2,1.04 -0.68,2.32 -0.44,1.32 -1.24,2 -0.8,0.72 -1.88,0.72 -1.84,0 -2.68,-2.52 3.04,-0.88 4.12,-18.76 -1.2,0.04 -2.48,0.2 -0.08,-0.72 -0.08,-0.92 0,-2.16 2.32,-2.16 l 0.52,0 q 0.92,-9.64 8.6,-9.64 1.96,0 3.44,0.68 1.48,0.64 1.48,2.12 0,0.96 -0.76,1.8 -0.72,0.84 -2.52,0.88 z"
         style="font-style:italic;font-variant:normal;font-weight:bold;font-stretch:normal;font-family:Overlock;-inkscape-font-specification:'Overlock Bold Italic';fill:#eddcc0;fill-opacity:1"
         id="path4192" />
      <path
         d="m 89.201641,-37.152414 q -3.52,0 -5.48,-2.04 -1.96,-2.08 -1.96,-5.76 0,-5.04 2.88,-8.48 2.88,-3.48 7.36,-3.48 3.6,0 5.6,2.12 2.04,2.08 2.04,5.76 0,5 -3,8.44 -2.96,3.44 -7.44,3.44 z m 2.24,-17.12 q -2.2,0 -3.48,2.64 -1.28,2.6 -1.28,6.04 0,2.52 0.84,4.16 0.88,1.64 2.44,1.64 2.16,0 3.44,-2.56 1.28,-2.56 1.28,-5.96 0,-2.6 -0.88,-4.28 -0.84,-1.68 -2.36,-1.68 z"
         style="font-style:italic;font-variant:normal;font-weight:bold;font-stretch:normal;font-family:Overlock;-inkscape-font-specification:'Overlock Bold Italic';fill:#eddcc0;fill-opacity:1"
         id="path4194" />
      <path
         d="m 112.79977,-52.992414 q -2.36,0 -4.56,3.4 -1.04,7.04 -1.04,9.68 0,1.16 0.12,2.16 -1.56,0.36 -2.64,0.36 -2.2,0 -2.2,-1.4 0,-0.52 0.88,-6.32 0.92,-5.84 0.92,-6.96 0,-1.68 -1.12,-2.16 0.16,-1.24 1.08,-1.96 0.92,-0.72 2.04,-0.72 1.04,0 1.76,0.64 0.72,0.64 0.72,1.84 0,0.68 -0.12,1.4 0.96,-1.56 2.36,-2.72 1.44,-1.16 2.92,-1.16 1.8,0 1.8,1.92 0,1.56 -1.12,2.76 -0.76,-0.76 -1.8,-0.76 z"
         style="font-style:italic;font-variant:normal;font-weight:bold;font-stretch:normal;font-family:Overlock;-inkscape-font-specification:'Overlock Bold Italic';fill:#eddcc0;fill-opacity:1"
         id="path4196" />
      <path
         d="m 129.49414,-54.952414 q 1.84,5.16 2.64,12.56 3.52,-6.72 3.52,-11.28 0,-1.12 -0.48,-2.48 1.4,-0.76 2.48,-0.76 2.56,0 2.56,2.68 0,3.12 -2.08,7.96 -2.04,4.8 -4.96,9 -2.16,3.08 -3.8,4.84 -1.6,1.76 -3.84,2.92 -2.24,1.16 -4.92,1.16 -1.96,0 -3.32,-0.64 -1.4,-0.64 -1.4,-1.72 0,-1.32 1.88,-2.44 1.16,2.16 3.32,2.16 3.76,0 7.8,-6.16 -0.16,-5.04 -1.84,-10.8 -1.68,-5.8 -3.28,-7.16 1.52,-1.8 3,-1.8 2.04,0 2.72,1.96 z"
         style="font-style:italic;font-variant:normal;font-weight:bold;font-stretch:normal;font-family:Overlock;-inkscape-font-specification:'Overlock Bold Italic';fill:#eddcc0;fill-opacity:1"
         id="path4198" />
      <path
         d="m 149.35789,-37.152414 q -3.52,0 -5.48,-2.04 -1.96,-2.08 -1.96,-5.76 0,-5.04 2.88,-8.48 2.88,-3.48 7.36,-3.48 3.6,0 5.6,2.12 2.04,2.08 2.04,5.76 0,5 -3,8.44 -2.96,3.44 -7.44,3.44 z m 2.24,-17.12 q -2.2,0 -3.48,2.64 -1.28,2.6 -1.28,6.04 0,2.52 0.84,4.16 0.88,1.64 2.44,1.64 2.16,0 3.44,-2.56 1.28,-2.56 1.28,-5.96 0,-2.6 -0.88,-4.28 -0.84,-1.68 -2.36,-1.68 z"
         style="font-style:italic;font-variant:normal;font-weight:bold;font-stretch:normal;font-family:Overlock;-inkscape-font-specification:'Overlock Bold Italic';fill:#eddcc0;fill-opacity:1"
         id="path4200" />
      <path
         d="m 168.95602,-54.432414 q 0,1.68 -0.84,6.28 -0.84,4.56 -0.84,5.32 0,2.6 1.6,2.6 1.2,0 2.48,-1.64 1.32,-1.68 2.28,-4.28 0.12,-1 0.44,-3.28 0.32,-2.28 0.48,-3.84 0.2,-1.56 0.28,-3.24 1,-0.28 2.24,-0.28 2.2,0 2.2,1.4 0,0.24 -0.08,0.76 -0.08,0.52 -0.28,1.6 -0.2,1.08 -0.32,1.96 0,0.08 -0.4,2.32 -0.36,2.2 -0.6,4.04 -0.24,1.8 -0.24,2.72 0,1.68 1.12,2.16 -0.16,1.24 -1.08,1.96 -0.92,0.72 -2.04,0.72 -1.04,0 -1.76,-0.64 -0.72,-0.64 -0.72,-1.84 0,-0.72 0.12,-1.44 -1.16,1.88 -2.84,2.92 -1.64,1 -3.16,1 -1.96,0 -3.04,-1.4 -1.04,-1.4 -1.04,-3.64 0,-0.72 0.76,-5.04 0.76,-4.32 0.76,-5.28 0,-1 -1.08,-1.72 0.08,-0.96 0.92,-1.8 0.84,-0.88 2.2,-0.88 1.04,0 1.76,0.6 0.72,0.6 0.72,1.88 z"
         style="font-style:italic;font-variant:normal;font-weight:bold;font-stretch:normal;font-family:Overlock;-inkscape-font-specification:'Overlock Bold Italic';fill:#eddcc0;fill-opacity:1"
         id="path4202" />
      <path
         d="m 193.03414,-52.992414 q -2.36,0 -4.56,3.4 -1.04,7.04 -1.04,9.68 0,1.16 0.12,2.16 -1.56,0.36 -2.64,0.36 -2.2,0 -2.2,-1.4 0,-0.52 0.88,-6.32 0.92,-5.84 0.92,-6.96 0,-1.68 -1.12,-2.16 0.16,-1.24 1.08,-1.96 0.92,-0.72 2.04,-0.72 1.04,0 1.76,0.64 0.72,0.64 0.72,1.84 0,0.68 -0.12,1.4 0.96,-1.56 2.36,-2.72 1.44,-1.16 2.92,-1.16 1.8,0 1.8,1.92 0,1.56 -1.12,2.76 -0.76,-0.76 -1.8,-0.76 z"
         style="font-style:italic;font-variant:normal;font-weight:bold;font-stretch:normal;font-family:Overlock;-inkscape-font-specification:'Overlock Bold Italic';fill:#eddcc0;fill-opacity:1"
         id="path4204" />
      <path
         d="m 218.92477,-44.592414 q 1,2.12 1.72,3.16 0.72,1.04 2.44,1.04 0.8,0 1.12,-0.12 0.16,0.72 0.16,1.28 0,2.08 -3.16,2.08 -2.72,0 -4,-2.28 -1.84,-3.24 -3.88,-8.96 -0.68,-0.24 -0.68,-0.92 0,-0.8 0.68,-1.6 0.32,0.16 0.88,0.16 1.4,0 2.64,-0.68 2.6,-1.48 2.6,-5.68 0,-2.56 -1,-3.4 -0.96,-0.88 -3.12,-0.88 -1.32,0 -2.16,0.16 -0.2,3.52 -0.68,6.96 l -1.2,8.8 q -0.48,3.52 -0.48,5.52 0,1.24 0.16,2.2 -0.96,0.32 -2.56,0.32 -2.24,0 -2.24,-1.68 0,-0.4 0.16,-1.64 0.2,-1.28 0.48,-3.12 0.28,-1.84 0.4,-2.92 l 1,-8 q 0.72,-5.84 0.72,-9.2 2.8,-0.48 5.92,-0.48 3.96,0 6.56,1.6 2.64,1.6 2.64,5.32 0,3.48 -1.88,5.96 -1.88,2.48 -4.84,3.16 0.6,1.72 1.6,3.84 z"
         style="font-style:italic;font-variant:normal;font-weight:bold;font-stretch:normal;font-family:Overlock;-inkscape-font-specification:'Overlock Bold Italic';fill:#eddcc0;fill-opacity:1"
         id="path4206" />
      <path
         d="m 241.29477,-58.472414 q -0.36,-1.12 -1.52,-1.92 -1.16,-0.8 -2.48,-0.8 -1.88,0 -3.24,1.2 -1.32,1.2 -1.32,3.4 0,1.4 0.92,2.16 0.92,0.76 2.68,1.4 0.24,0.08 1.24,0.44 1.04,0.36 1.4,0.52 0.36,0.16 1.16,0.6 0.84,0.4 1.16,0.8 0.36,0.36 0.8,0.96 0.48,0.6 0.64,1.36 0.2,0.76 0.2,1.72 0,4.48 -2.68,7 -2.64,2.48 -7.08,2.48 -2.8,0 -4.96,-1 -2.12,-1.04 -2.12,-2.44 0,-1.88 2.56,-2.84 0.44,1.32 1.88,2.24 1.48,0.92 3,0.92 2.08,0 3.64,-1.32 1.56,-1.36 1.56,-3.76 0,-1.48 -0.96,-2.2 -0.96,-0.72 -2.8,-1.28 -1.28,-0.36 -1.88,-0.56 -0.56,-0.2 -1.64,-0.76 -1.08,-0.6 -1.6,-1.2 -0.48,-0.64 -0.92,-1.76 -0.44,-1.12 -0.44,-2.56 0,-4.08 2.68,-6.4 2.72,-2.32 6.8,-2.32 2.32,0 4.32,0.88 2,0.88 2,2.44 0,0.96 -0.76,1.72 -0.72,0.72 -2.24,0.88 z"
         style="font-style:italic;font-variant:normal;font-weight:bold;font-stretch:normal;font-family:Overlock;-inkscape-font-specification:'Overlock Bold Italic';fill:#eddcc0;fill-opacity:1"
         id="path4208" />
      <path
         d="m 249.41664,-58.392414 q 0,-2.92 -1.08,-5.16 1.8,-0.96 3.16,-0.96 2.56,0 2.56,3.8 0,2.04 -0.92,7.52 -0.88,5.44 -0.88,8 0,3.88 1.24,5.48 2.52,-0.84 4.76,-4.24 2.28,-3.44 3.56,-7.64 1.28,-4.24 1.28,-7.84 0,-2.48 -0.68,-4.24 1.68,-0.84 3.04,-0.84 2.64,0 2.64,3.2 0,2.2 -0.68,5.28 -0.64,3.04 -2,6.36 -1.32,3.28 -3.08,6.08 -1.72,2.8 -4.16,4.64 -2.4,1.8 -4.96,1.8 -1.4,0 -2.64,-0.44 -2.48,-2.64 -2.48,-7.6 0,-2.56 0.64,-6.24 0.68,-3.68 0.68,-6.96 z"
         style="font-style:italic;font-variant:normal;font-weight:bold;font-stretch:normal;font-family:Overlock;-inkscape-font-specification:'Overlock Bold Italic';fill:#eddcc0;fill-opacity:1"
         id="path4210" />
      <path
         d="m 278.39289,-50.032414 q 2.4,0 3.64,-1.96 1.24,-1.96 1.24,-5.04 0,-2.48 -1.12,-3.4 -1.08,-0.96 -3.12,-0.96 -1.12,0 -2.04,0.16 -0.28,3.64 -1.2,10.2 1.2,1 2.6,1 z m -7.36,3.24 1,-8 q 0.72,-6.2 0.72,-9.2 2.8,-0.48 5.88,-0.48 9.24,0 9.24,7.2 0,4.76 -2.6,7.56 -2.6,2.76 -5.92,2.76 -2.4,0 -3.92,-1.28 -0.8,5.96 -0.8,8.24 0,1.28 0.16,2.24 -0.96,0.32 -2.56,0.32 -2.24,0 -2.24,-1.68 0,-0.36 0.16,-1.6 0.2,-1.28 0.48,-3.12 0.28,-1.88 0.4,-2.96 z"
         style="font-style:italic;font-variant:normal;font-weight:bold;font-stretch:normal;font-family:Overlock;-inkscape-font-specification:'Overlock Bold Italic';fill:#eddcc0;fill-opacity:1"
         id="path4212" />
      <path
         d="m 292.53977,-37.152414 q -1,0 -1.72,-0.68 -0.68,-0.72 -0.68,-1.88 0,-1.4 0.96,-2.48 0.96,-1.08 2.24,-1.08 1,0 1.64,0.76 0.68,0.72 0.68,1.84 0,1.44 -0.92,2.48 -0.88,1.04 -2.2,1.04 z m 5.6,-26 q 0,1.08 -0.68,3.6 -0.56,2 -1.28,5.92 -0.72,3.92 -0.72,5.6 0,0.96 0.16,1.72 -1.32,0.56 -2.16,0.56 -2,0 -2,-1.64 0,-0.28 0.52,-4.16 1.24,-8.96 1.24,-11.76 0,-0.56 -0.04,-1.08 1.64,-0.52 2.68,-0.52 2.28,0 2.28,1.76 z"
         style="font-style:italic;font-variant:normal;font-weight:bold;font-stretch:normal;font-family:Overlock;-inkscape-font-specification:'Overlock Bold Italic';fill:#eddcc0;fill-opacity:1"
         id="path4214" />
    </g>
  </g>
</svg>
